<svg width="308" height="82" viewBox="0 0 308 82" fill="none" xmlns="http://www.w3.org/2000/svg">
<rect x="13.499" y="1.5" width="280" height="79" rx="39.5" fill="#F5CB24" stroke="black" stroke-width="3"/>
<mask id="path-2-outside-1_2_84" maskUnits="userSpaceOnUse" x="114.928" y="24" width="80" height="34" fill="black">
<rect fill="white" x="114.928" y="24" width="80" height="34"/>
<path d="M136.214 40.006C138.44 42.148 139.28 43.996 139.28 46.684C139.28 49.12 138.314 51.262 136.466 52.942C134.66 54.622 133.358 55 129.746 55H122.396C120.38 55 119.456 54.706 118.448 53.614C117.902 53.026 117.482 52.186 117.314 51.43C117.272 51.094 117.23 50.758 117.23 48.952V33.076V31.732C117.272 28.96 119.246 26.986 121.976 26.986H125.924C128.906 26.986 129.914 27.07 131.048 27.322C134.912 28.246 137.516 31.606 137.516 35.722C137.516 37.318 137.222 38.284 136.214 40.006ZM126.428 35.68V37.822H127.52C128.822 37.822 129.242 37.528 129.242 36.772C129.242 35.974 128.738 35.68 127.436 35.68H126.428ZM126.428 44.122V46.39H127.982C129.578 46.39 129.998 46.138 129.998 45.298C129.998 44.458 129.41 44.122 127.94 44.122H126.428ZM152.099 32.236V43.282C152.099 45.298 153.023 46.516 154.619 46.516C156.215 46.516 157.139 45.34 157.139 43.408V32.236C157.139 30.178 157.307 29.548 158.147 28.54C159.029 27.448 160.331 26.776 161.717 26.776C163.061 26.776 164.489 27.448 165.329 28.456C166.211 29.506 166.421 30.346 166.421 32.866V42.82C166.421 46.6 165.497 49.33 163.481 51.598C161.213 54.202 157.937 55.714 154.619 55.714C150.881 55.714 147.311 53.866 145.085 50.842C143.363 48.49 142.817 46.516 142.817 42.82V32.95C142.817 30.304 142.985 29.632 143.783 28.582C144.665 27.49 146.093 26.776 147.437 26.776C148.697 26.776 149.999 27.364 150.839 28.246C151.763 29.212 152.099 30.262 152.099 32.236ZM185.504 43.408V49.498C185.504 51.22 185.294 52.102 184.706 53.026C183.908 54.37 182.354 55.21 180.842 55.21C179.33 55.21 177.818 54.37 176.978 53.068C176.39 52.102 176.18 51.304 176.18 49.498V43.282L169.964 34.084C169.334 33.202 169.04 32.236 169.04 31.27C169.04 28.792 171.098 26.776 173.618 26.776C175.214 26.776 176.684 27.574 177.692 28.96L180.926 33.286L184.328 28.834C185.378 27.532 186.764 26.776 188.234 26.776C190.754 26.776 192.854 28.876 192.854 31.354C192.854 32.278 192.56 33.202 192.014 34.042L185.504 43.408Z"/>
</mask>
<path d="M136.214 40.006C138.44 42.148 139.28 43.996 139.28 46.684C139.28 49.12 138.314 51.262 136.466 52.942C134.66 54.622 133.358 55 129.746 55H122.396C120.38 55 119.456 54.706 118.448 53.614C117.902 53.026 117.482 52.186 117.314 51.43C117.272 51.094 117.23 50.758 117.23 48.952V33.076V31.732C117.272 28.96 119.246 26.986 121.976 26.986H125.924C128.906 26.986 129.914 27.07 131.048 27.322C134.912 28.246 137.516 31.606 137.516 35.722C137.516 37.318 137.222 38.284 136.214 40.006ZM126.428 35.68V37.822H127.52C128.822 37.822 129.242 37.528 129.242 36.772C129.242 35.974 128.738 35.68 127.436 35.68H126.428ZM126.428 44.122V46.39H127.982C129.578 46.39 129.998 46.138 129.998 45.298C129.998 44.458 129.41 44.122 127.94 44.122H126.428ZM152.099 32.236V43.282C152.099 45.298 153.023 46.516 154.619 46.516C156.215 46.516 157.139 45.34 157.139 43.408V32.236C157.139 30.178 157.307 29.548 158.147 28.54C159.029 27.448 160.331 26.776 161.717 26.776C163.061 26.776 164.489 27.448 165.329 28.456C166.211 29.506 166.421 30.346 166.421 32.866V42.82C166.421 46.6 165.497 49.33 163.481 51.598C161.213 54.202 157.937 55.714 154.619 55.714C150.881 55.714 147.311 53.866 145.085 50.842C143.363 48.49 142.817 46.516 142.817 42.82V32.95C142.817 30.304 142.985 29.632 143.783 28.582C144.665 27.49 146.093 26.776 147.437 26.776C148.697 26.776 149.999 27.364 150.839 28.246C151.763 29.212 152.099 30.262 152.099 32.236ZM185.504 43.408V49.498C185.504 51.22 185.294 52.102 184.706 53.026C183.908 54.37 182.354 55.21 180.842 55.21C179.33 55.21 177.818 54.37 176.978 53.068C176.39 52.102 176.18 51.304 176.18 49.498V43.282L169.964 34.084C169.334 33.202 169.04 32.236 169.04 31.27C169.04 28.792 171.098 26.776 173.618 26.776C175.214 26.776 176.684 27.574 177.692 28.96L180.926 33.286L184.328 28.834C185.378 27.532 186.764 26.776 188.234 26.776C190.754 26.776 192.854 28.876 192.854 31.354C192.854 32.278 192.56 33.202 192.014 34.042L185.504 43.408Z" fill="white"/>
<path d="M136.214 40.006L134.488 38.9956L133.693 40.355L134.828 41.4471L136.214 40.006ZM136.466 52.942L135.121 51.4621L135.112 51.4698L135.104 51.4776L136.466 52.942ZM118.448 53.614L119.918 52.2574L119.914 52.2531L118.448 53.614ZM117.314 51.43L115.33 51.6781L115.341 51.7717L115.362 51.8639L117.314 51.43ZM117.23 31.732L115.231 31.7017L115.23 31.7168V31.732H117.23ZM131.048 27.322L131.513 25.3768L131.498 25.3731L131.482 25.3696L131.048 27.322ZM126.428 35.68V33.68H124.428V35.68H126.428ZM126.428 37.822H124.428V39.822H126.428V37.822ZM126.428 44.122V42.122H124.428V44.122H126.428ZM126.428 46.39H124.428V48.39H126.428V46.39ZM134.828 41.4471C135.827 42.4093 136.413 43.2075 136.764 43.9732C137.107 44.7235 137.28 45.5614 137.28 46.684H141.28C141.28 45.1186 141.033 43.6885 140.4 42.3072C139.775 40.9415 138.827 39.7447 137.601 38.5649L134.828 41.4471ZM137.28 46.684C137.28 48.5381 136.566 50.1486 135.121 51.4621L137.812 54.4219C140.063 52.3754 141.28 49.7019 141.28 46.684H137.28ZM135.104 51.4776C134.339 52.1889 133.821 52.4995 133.202 52.6873C132.502 52.9 131.527 53 129.746 53V57C131.577 57 133.06 56.911 134.365 56.5147C135.752 56.0935 136.787 55.3751 137.829 54.4064L135.104 51.4776ZM129.746 53H122.396V57H129.746V53ZM122.396 53C121.452 53 120.985 52.9254 120.696 52.8258C120.473 52.7488 120.257 52.6247 119.918 52.2574L116.979 54.9706C117.648 55.6953 118.398 56.2642 119.392 56.6072C120.321 56.9276 121.325 57 122.396 57V53ZM119.914 52.2531C119.626 51.943 119.363 51.4296 119.267 50.9961L115.362 51.8639C115.602 52.9424 116.179 54.109 116.983 54.9749L119.914 52.2531ZM119.299 51.1819C119.272 50.968 119.23 50.7282 119.23 48.952H115.23C115.23 50.7878 115.272 51.22 115.33 51.6781L119.299 51.1819ZM119.23 48.952V33.076H115.23V48.952H119.23ZM119.23 33.076V31.732H115.23V33.076H119.23ZM119.23 31.7623C119.256 30.0545 120.367 28.986 121.976 28.986V24.986C118.125 24.986 115.289 27.8655 115.231 31.7017L119.23 31.7623ZM121.976 28.986H125.924V24.986H121.976V28.986ZM125.924 28.986C128.891 28.986 129.71 29.0734 130.614 29.2744L131.482 25.3696C130.118 25.0666 128.922 24.986 125.924 24.986V28.986ZM130.583 29.2672C133.511 29.9673 135.516 32.4939 135.516 35.722H139.516C139.516 30.7181 136.313 26.5247 131.513 25.3768L130.583 29.2672ZM135.516 35.722C135.516 36.3852 135.456 36.8189 135.33 37.235C135.196 37.6747 134.959 38.192 134.488 38.9956L137.94 41.0164C138.478 40.098 138.891 39.2713 139.157 38.3985C139.429 37.5021 139.516 36.6548 139.516 35.722H135.516ZM124.428 35.68V37.822H128.428V35.68H124.428ZM126.428 39.822H127.52V35.822H126.428V39.822ZM127.52 39.822C128.203 39.822 129.145 39.7688 129.933 39.2746C130.987 38.613 131.242 37.5575 131.242 36.772H127.242C127.242 36.79 127.238 36.647 127.33 36.4402C127.437 36.1989 127.616 36.0056 127.807 35.8864C127.963 35.7879 128.06 35.7825 127.99 35.7949C127.925 35.8064 127.781 35.822 127.52 35.822V39.822ZM131.242 36.772C131.242 36.3714 131.18 35.8832 130.944 35.394C130.694 34.8784 130.31 34.4838 129.857 34.2118C129.066 33.7373 128.131 33.68 127.436 33.68V37.68C127.696 37.68 127.848 37.6954 127.925 37.7089C128.007 37.7231 127.934 37.7231 127.799 37.6417C127.634 37.543 127.457 37.3714 127.343 37.1354C127.241 36.9258 127.242 36.7736 127.242 36.772H131.242ZM127.436 33.68H126.428V37.68H127.436V33.68ZM124.428 44.122V46.39H128.428V44.122H124.428ZM126.428 48.39H127.982V44.39H126.428V48.39ZM127.982 48.39C128.737 48.39 129.742 48.3589 130.555 47.9102C131.058 47.6323 131.475 47.2096 131.729 46.6493C131.959 46.1436 131.998 45.6502 131.998 45.298H127.998C127.998 45.3658 127.986 45.2189 128.086 44.9967C128.141 44.8764 128.221 44.7524 128.327 44.6397C128.432 44.5284 128.538 44.4543 128.623 44.4078C128.771 44.3261 128.838 44.3366 128.695 44.3566C128.562 44.3751 128.341 44.39 127.982 44.39V48.39ZM131.998 45.298C131.998 44.8595 131.922 44.3427 131.656 43.8345C131.382 43.3077 130.972 42.9209 130.513 42.6585C129.7 42.194 128.73 42.122 127.94 42.122V46.122C128.24 46.122 128.432 46.1398 128.546 46.1592C128.665 46.1795 128.631 46.1904 128.528 46.1315C128.4 46.0581 128.229 45.9128 128.11 45.6853C128.001 45.4763 127.998 45.3165 127.998 45.298H131.998ZM127.94 42.122H126.428V46.122H127.94V42.122ZM158.147 28.54L159.684 29.8204L159.693 29.8086L159.703 29.7967L158.147 28.54ZM165.329 28.456L163.793 29.7364L163.798 29.7424L165.329 28.456ZM163.481 51.598L161.986 50.2693L161.98 50.2768L161.973 50.2844L163.481 51.598ZM145.085 50.842L143.471 52.0235L143.474 52.0276L145.085 50.842ZM143.783 28.582L142.227 27.3253L142.209 27.3483L142.191 27.3718L143.783 28.582ZM150.839 28.246L149.391 29.6253L149.394 29.6284L150.839 28.246ZM150.099 32.236V43.282H154.099V32.236H150.099ZM150.099 43.282C150.099 44.5632 150.389 45.8579 151.179 46.8787C152.02 47.9668 153.257 48.516 154.619 48.516V44.516C154.477 44.516 154.415 44.49 154.4 44.483C154.389 44.4776 154.372 44.4688 154.343 44.4313C154.271 44.3391 154.099 44.0168 154.099 43.282H150.099ZM154.619 48.516C155.954 48.516 157.185 47.9985 158.036 46.9396C158.841 45.9384 159.139 44.6643 159.139 43.408H155.139C155.139 44.0837 154.975 44.3636 154.919 44.4334C154.896 44.4622 154.881 44.4714 154.863 44.4792C154.842 44.4889 154.771 44.516 154.619 44.516V48.516ZM159.139 43.408V32.236H155.139V43.408H159.139ZM159.139 32.236C159.139 31.2111 159.188 30.7775 159.258 30.5189C159.303 30.3542 159.368 30.1989 159.684 29.8204L156.611 27.2596C156.086 27.8891 155.647 28.5528 155.398 29.4696C155.174 30.2925 155.139 31.2029 155.139 32.236H159.139ZM159.703 29.7967C160.239 29.1327 160.988 28.776 161.717 28.776V24.776C159.675 24.776 157.819 25.7633 156.591 27.2833L159.703 29.7967ZM161.717 28.776C162.472 28.776 163.335 29.1875 163.793 29.7364L166.866 27.1756C165.643 25.7085 163.651 24.776 161.717 24.776V28.776ZM163.798 29.7424C164.089 30.0886 164.191 30.2934 164.265 30.5912C164.364 30.9906 164.421 31.6169 164.421 32.866H168.421C168.421 31.5951 168.374 30.5414 168.147 29.6283C167.895 28.6136 167.452 27.8734 166.861 27.1696L163.798 29.7424ZM164.421 32.866V42.82H168.421V32.866H164.421ZM164.421 42.82C164.421 46.2283 163.606 48.447 161.986 50.2693L164.976 52.9267C167.388 50.213 168.421 46.9717 168.421 42.82H164.421ZM161.973 50.2844C160.071 52.468 157.338 53.714 154.619 53.714V57.714C158.536 57.714 162.355 55.936 164.989 52.9116L161.973 50.2844ZM154.619 53.714C151.534 53.714 148.555 52.1822 146.696 49.6564L143.474 52.0276C146.067 55.5498 150.228 57.714 154.619 57.714V53.714ZM146.699 49.6605C145.946 48.6323 145.504 47.7642 145.231 46.793C144.949 45.7938 144.817 44.5818 144.817 42.82H140.817C140.817 44.7542 140.958 46.3772 141.38 47.877C141.81 49.4048 142.502 50.6997 143.471 52.0235L146.699 49.6605ZM144.817 42.82V32.95H140.817V42.82H144.817ZM144.817 32.95C144.817 31.6172 144.865 30.9936 144.952 30.6065C145.012 30.3404 145.089 30.1692 145.375 29.7922L142.191 27.3718C141.679 28.0448 141.273 28.7346 141.05 29.7285C140.853 30.6014 140.817 31.6368 140.817 32.95H144.817ZM145.339 29.8387C145.869 29.1826 146.74 28.776 147.437 28.776V24.776C145.446 24.776 143.461 25.7974 142.227 27.3253L145.339 29.8387ZM147.437 28.776C148.128 28.776 148.913 29.1237 149.391 29.6253L152.287 26.8667C151.085 25.6043 149.266 24.776 147.437 24.776V28.776ZM149.394 29.6284C149.668 29.9149 149.811 30.1587 149.909 30.4668C150.02 30.8188 150.099 31.344 150.099 32.236H154.099C154.099 31.154 154.01 30.1671 153.722 29.2592C153.421 28.3073 152.934 27.543 152.284 26.8636L149.394 29.6284ZM185.504 43.408L183.861 42.2665L183.504 42.7812V43.408H185.504ZM184.706 53.026L183.018 51.9522L183.002 51.9783L182.986 52.0049L184.706 53.026ZM176.978 53.068L175.269 54.1079L175.283 54.1303L175.297 54.1523L176.978 53.068ZM176.18 43.282H178.18V42.6696L177.837 42.1621L176.18 43.282ZM169.964 34.084L171.621 32.9641L171.606 32.9426L171.591 32.9215L169.964 34.084ZM177.692 28.96L176.074 30.1363L176.082 30.147L176.09 30.1575L177.692 28.96ZM180.926 33.286L179.324 34.4835L180.908 36.6029L182.515 34.5003L180.926 33.286ZM184.328 28.834L182.771 27.5785L182.754 27.5989L182.738 27.6197L184.328 28.834ZM192.014 34.042L193.656 35.1835L193.674 35.158L193.69 35.132L192.014 34.042ZM183.504 43.408V49.498H187.504V43.408H183.504ZM183.504 49.498C183.504 51.0188 183.323 51.4727 183.018 51.9522L186.393 54.0998C187.264 52.7313 187.504 51.4212 187.504 49.498H183.504ZM182.986 52.0049C182.561 52.72 181.674 53.21 180.842 53.21V57.21C183.033 57.21 185.254 56.02 186.425 54.0471L182.986 52.0049ZM180.842 53.21C180.032 53.21 179.142 52.7342 178.658 51.9837L175.297 54.1523C176.493 56.0058 178.628 57.21 180.842 57.21V53.21ZM178.686 52.0281C178.476 51.6836 178.374 51.441 178.307 51.1483C178.23 50.8172 178.18 50.3395 178.18 49.498H174.18C174.18 50.4625 174.234 51.2868 174.409 52.0477C174.594 52.847 174.891 53.4864 175.269 54.1079L178.686 52.0281ZM178.18 49.498V43.282H174.18V49.498H178.18ZM177.837 42.1621L171.621 32.9641L168.307 35.2039L174.523 44.4019L177.837 42.1621ZM171.591 32.9215C171.201 32.3751 171.04 31.8147 171.04 31.27H167.04C167.04 32.6573 167.466 34.0289 168.336 35.2465L171.591 32.9215ZM171.04 31.27C171.04 29.9325 172.166 28.776 173.618 28.776V24.776C170.029 24.776 167.04 27.6515 167.04 31.27H171.04ZM173.618 28.776C174.508 28.776 175.402 29.2122 176.074 30.1363L179.309 27.7837C177.965 25.9358 175.919 24.776 173.618 24.776V28.776ZM176.09 30.1575L179.324 34.4835L182.527 32.0885L179.293 27.7625L176.09 30.1575ZM182.515 34.5003L185.917 30.0483L182.738 27.6197L179.336 32.0717L182.515 34.5003ZM185.884 30.0895C186.637 29.1558 187.489 28.776 188.234 28.776V24.776C186.038 24.776 184.118 25.9082 182.771 27.5785L185.884 30.0895ZM188.234 28.776C189.661 28.776 190.854 29.9924 190.854 31.354H194.854C194.854 27.7596 191.846 24.776 188.234 24.776V28.776ZM190.854 31.354C190.854 31.8477 190.697 32.3981 190.337 32.952L193.69 35.132C194.422 34.0059 194.854 32.7083 194.854 31.354H190.854ZM190.371 32.9005L183.861 42.2665L187.146 44.5495L193.656 35.1835L190.371 32.9005Z" fill="black" mask="url(#path-2-outside-1_2_84)"/>
</svg>
