<svg width="307" height="82" viewBox="0 0 307 82" fill="none" xmlns="http://www.w3.org/2000/svg">
<rect x="12.5713" y="1.5" width="280" height="79" rx="39.5" fill="#D1F763" stroke="black" stroke-width="3"/>
<mask id="path-2-outside-1_2_124" maskUnits="userSpaceOnUse" x="57" y="24" width="194" height="34" fill="black">
<rect fill="white" x="57" y="24" width="194" height="34"/>
<path d="M78.6235 40.006C80.8495 42.148 81.6895 43.996 81.6895 46.684C81.6895 49.12 80.7235 51.262 78.8755 52.942C77.0695 54.622 75.7675 55 72.1555 55H64.8055C62.7895 55 61.8655 54.706 60.8575 53.614C60.3115 53.026 59.8915 52.186 59.7235 51.43C59.6815 51.094 59.6395 50.758 59.6395 48.952V33.076V31.732C59.6815 28.96 61.6555 26.986 64.3855 26.986H68.3335C71.3155 26.986 72.3235 27.07 73.4575 27.322C77.3215 28.246 79.9255 31.606 79.9255 35.722C79.9255 37.318 79.6315 38.284 78.6235 40.006ZM68.8375 35.68V37.822H69.9295C71.2315 37.822 71.6515 37.528 71.6515 36.772C71.6515 35.974 71.1475 35.68 69.8455 35.68H68.8375ZM68.8375 44.122V46.39H70.3915C71.9875 46.39 72.4075 46.138 72.4075 45.298C72.4075 44.458 71.8195 44.122 70.3495 44.122H68.8375ZM94.5083 32.236V43.282C94.5083 45.298 95.4323 46.516 97.0283 46.516C98.6243 46.516 99.5483 45.34 99.5483 43.408V32.236C99.5483 30.178 99.7163 29.548 100.556 28.54C101.438 27.448 102.74 26.776 104.126 26.776C105.47 26.776 106.898 27.448 107.738 28.456C108.62 29.506 108.83 30.346 108.83 32.866V42.82C108.83 46.6 107.906 49.33 105.89 51.598C103.622 54.202 100.346 55.714 97.0283 55.714C93.2903 55.714 89.7203 53.866 87.4943 50.842C85.7723 48.49 85.2263 46.516 85.2263 42.82V32.95C85.2263 30.304 85.3943 29.632 86.1923 28.582C87.0743 27.49 88.5023 26.776 89.8463 26.776C91.1063 26.776 92.4083 27.364 93.2483 28.246C94.1723 29.212 94.5083 30.262 94.5083 32.236ZM127.913 43.408V49.498C127.913 51.22 127.703 52.102 127.115 53.026C126.317 54.37 124.763 55.21 123.251 55.21C121.739 55.21 120.227 54.37 119.387 53.068C118.799 52.102 118.589 51.304 118.589 49.498V43.282L112.373 34.084C111.743 33.202 111.449 32.236 111.449 31.27C111.449 28.792 113.507 26.776 116.027 26.776C117.623 26.776 119.093 27.574 120.101 28.96L123.335 33.286L126.737 28.834C127.787 27.532 129.173 26.776 130.643 26.776C133.163 26.776 135.263 28.876 135.263 31.354C135.263 32.278 134.969 33.202 134.423 34.042L127.913 43.408ZM166.236 37.654V32.446C166.236 30.598 166.404 29.758 167.076 28.792C167.874 27.574 169.344 26.776 170.856 26.776C172.242 26.776 173.502 27.406 174.384 28.456C175.182 29.464 175.476 30.43 175.476 32.152V49.288C175.476 51.514 175.266 52.438 174.468 53.488C173.628 54.58 172.284 55.21 170.856 55.21C169.386 55.21 168.168 54.58 167.202 53.32L159.894 43.954V49.834C159.894 51.682 159.642 52.522 158.844 53.53C157.962 54.58 156.66 55.21 155.274 55.21C153.846 55.21 152.46 54.538 151.578 53.404C150.822 52.354 150.612 51.514 150.612 49.456V31.732C150.612 28.75 152.544 26.776 155.442 26.776C156.786 26.776 157.836 27.322 158.886 28.624L166.236 37.654ZM179.058 40.846C179.058 32.782 185.61 26.314 193.8 26.314C201.99 26.314 208.584 32.866 208.584 40.972C208.584 49.078 201.948 55.714 193.842 55.714C185.61 55.714 179.058 49.12 179.058 40.846ZM188.34 40.972C188.34 44.038 190.818 46.558 193.842 46.558C196.866 46.558 199.344 44.038 199.344 41.014C199.344 38.032 196.866 35.596 193.842 35.596C190.818 35.596 188.34 37.99 188.34 40.972ZM222.193 37.612L224.671 30.262C225.469 27.91 226.939 26.776 229.165 26.776C231.391 26.776 232.903 27.952 233.743 30.388L236.347 37.822L239.413 29.968C240.169 28.036 241.933 26.776 243.949 26.776C246.553 26.776 248.569 28.792 248.569 31.354C248.569 31.9 248.443 32.446 248.023 33.538L241.387 51.598C240.505 54.034 239.035 55.21 236.935 55.21C234.793 55.21 233.239 53.992 232.441 51.682L229.333 42.484L226.267 51.64C225.511 53.95 223.957 55.21 221.857 55.21C219.799 55.21 218.245 54.076 217.489 52.018L210.349 33.328C210.013 32.53 209.803 31.648 209.803 31.186C209.803 28.75 211.903 26.776 214.465 26.776C216.607 26.776 218.203 28.036 219.211 30.514L222.193 37.612Z"/>
</mask>
<path d="M78.6235 40.006C80.8495 42.148 81.6895 43.996 81.6895 46.684C81.6895 49.12 80.7235 51.262 78.8755 52.942C77.0695 54.622 75.7675 55 72.1555 55H64.8055C62.7895 55 61.8655 54.706 60.8575 53.614C60.3115 53.026 59.8915 52.186 59.7235 51.43C59.6815 51.094 59.6395 50.758 59.6395 48.952V33.076V31.732C59.6815 28.96 61.6555 26.986 64.3855 26.986H68.3335C71.3155 26.986 72.3235 27.07 73.4575 27.322C77.3215 28.246 79.9255 31.606 79.9255 35.722C79.9255 37.318 79.6315 38.284 78.6235 40.006ZM68.8375 35.68V37.822H69.9295C71.2315 37.822 71.6515 37.528 71.6515 36.772C71.6515 35.974 71.1475 35.68 69.8455 35.68H68.8375ZM68.8375 44.122V46.39H70.3915C71.9875 46.39 72.4075 46.138 72.4075 45.298C72.4075 44.458 71.8195 44.122 70.3495 44.122H68.8375ZM94.5083 32.236V43.282C94.5083 45.298 95.4323 46.516 97.0283 46.516C98.6243 46.516 99.5483 45.34 99.5483 43.408V32.236C99.5483 30.178 99.7163 29.548 100.556 28.54C101.438 27.448 102.74 26.776 104.126 26.776C105.47 26.776 106.898 27.448 107.738 28.456C108.62 29.506 108.83 30.346 108.83 32.866V42.82C108.83 46.6 107.906 49.33 105.89 51.598C103.622 54.202 100.346 55.714 97.0283 55.714C93.2903 55.714 89.7203 53.866 87.4943 50.842C85.7723 48.49 85.2263 46.516 85.2263 42.82V32.95C85.2263 30.304 85.3943 29.632 86.1923 28.582C87.0743 27.49 88.5023 26.776 89.8463 26.776C91.1063 26.776 92.4083 27.364 93.2483 28.246C94.1723 29.212 94.5083 30.262 94.5083 32.236ZM127.913 43.408V49.498C127.913 51.22 127.703 52.102 127.115 53.026C126.317 54.37 124.763 55.21 123.251 55.21C121.739 55.21 120.227 54.37 119.387 53.068C118.799 52.102 118.589 51.304 118.589 49.498V43.282L112.373 34.084C111.743 33.202 111.449 32.236 111.449 31.27C111.449 28.792 113.507 26.776 116.027 26.776C117.623 26.776 119.093 27.574 120.101 28.96L123.335 33.286L126.737 28.834C127.787 27.532 129.173 26.776 130.643 26.776C133.163 26.776 135.263 28.876 135.263 31.354C135.263 32.278 134.969 33.202 134.423 34.042L127.913 43.408ZM166.236 37.654V32.446C166.236 30.598 166.404 29.758 167.076 28.792C167.874 27.574 169.344 26.776 170.856 26.776C172.242 26.776 173.502 27.406 174.384 28.456C175.182 29.464 175.476 30.43 175.476 32.152V49.288C175.476 51.514 175.266 52.438 174.468 53.488C173.628 54.58 172.284 55.21 170.856 55.21C169.386 55.21 168.168 54.58 167.202 53.32L159.894 43.954V49.834C159.894 51.682 159.642 52.522 158.844 53.53C157.962 54.58 156.66 55.21 155.274 55.21C153.846 55.21 152.46 54.538 151.578 53.404C150.822 52.354 150.612 51.514 150.612 49.456V31.732C150.612 28.75 152.544 26.776 155.442 26.776C156.786 26.776 157.836 27.322 158.886 28.624L166.236 37.654ZM179.058 40.846C179.058 32.782 185.61 26.314 193.8 26.314C201.99 26.314 208.584 32.866 208.584 40.972C208.584 49.078 201.948 55.714 193.842 55.714C185.61 55.714 179.058 49.12 179.058 40.846ZM188.34 40.972C188.34 44.038 190.818 46.558 193.842 46.558C196.866 46.558 199.344 44.038 199.344 41.014C199.344 38.032 196.866 35.596 193.842 35.596C190.818 35.596 188.34 37.99 188.34 40.972ZM222.193 37.612L224.671 30.262C225.469 27.91 226.939 26.776 229.165 26.776C231.391 26.776 232.903 27.952 233.743 30.388L236.347 37.822L239.413 29.968C240.169 28.036 241.933 26.776 243.949 26.776C246.553 26.776 248.569 28.792 248.569 31.354C248.569 31.9 248.443 32.446 248.023 33.538L241.387 51.598C240.505 54.034 239.035 55.21 236.935 55.21C234.793 55.21 233.239 53.992 232.441 51.682L229.333 42.484L226.267 51.64C225.511 53.95 223.957 55.21 221.857 55.21C219.799 55.21 218.245 54.076 217.489 52.018L210.349 33.328C210.013 32.53 209.803 31.648 209.803 31.186C209.803 28.75 211.903 26.776 214.465 26.776C216.607 26.776 218.203 28.036 219.211 30.514L222.193 37.612Z" fill="white"/>
<path d="M78.6235 40.006L76.8974 38.9956L76.1017 40.355L77.2367 41.4471L78.6235 40.006ZM78.8755 52.942L77.5301 51.4621L77.5217 51.4698L77.5133 51.4776L78.8755 52.942ZM60.8575 53.614L62.3271 52.2574L62.3231 52.2531L60.8575 53.614ZM59.7235 51.43L57.7389 51.6781L57.7506 51.7717L57.7711 51.8639L59.7235 51.43ZM59.6395 31.732L57.6397 31.7017L57.6395 31.7168V31.732H59.6395ZM73.4575 27.322L73.9226 25.3768L73.907 25.3731L73.8913 25.3696L73.4575 27.322ZM68.8375 35.68V33.68H66.8375V35.68H68.8375ZM68.8375 37.822H66.8375V39.822H68.8375V37.822ZM68.8375 44.122V42.122H66.8375V44.122H68.8375ZM68.8375 46.39H66.8375V48.39H68.8375V46.39ZM77.2367 41.4471C78.2366 42.4093 78.8221 43.2075 79.173 43.9732C79.5167 44.7235 79.6895 45.5614 79.6895 46.684H83.6895C83.6895 45.1186 83.4423 43.6885 82.8095 42.3072C82.1838 40.9415 81.2364 39.7447 80.0102 38.5649L77.2367 41.4471ZM79.6895 46.684C79.6895 48.5381 78.975 50.1486 77.5301 51.4621L80.2208 54.4219C82.4719 52.3754 83.6895 49.7019 83.6895 46.684H79.6895ZM77.5133 51.4776C76.7486 52.1889 76.23 52.4995 75.6116 52.6873C74.9111 52.9 73.9364 53 72.1555 53V57C73.9865 57 75.4688 56.911 76.7738 56.5147C78.161 56.0935 79.1963 55.3751 80.2377 54.4064L77.5133 51.4776ZM72.1555 53H64.8055V57H72.1555V53ZM64.8055 53C63.8609 53 63.3944 52.9254 63.1055 52.8258C62.8822 52.7488 62.6661 52.6247 62.3271 52.2574L59.3879 54.9706C60.0569 55.6953 60.8067 56.2642 61.8015 56.6072C62.7305 56.9276 63.734 57 64.8055 57V53ZM62.3231 52.2531C62.0351 51.943 61.7722 51.4296 61.6758 50.9961L57.7711 51.8639C58.0108 52.9424 58.5879 54.109 59.3919 54.9749L62.3231 52.2531ZM61.708 51.1819C61.6813 50.968 61.6395 50.7282 61.6395 48.952H57.6395C57.6395 50.7878 57.6817 51.22 57.7389 51.6781L61.708 51.1819ZM61.6395 48.952V33.076H57.6395V48.952H61.6395ZM61.6395 33.076V31.732H57.6395V33.076H61.6395ZM61.6392 31.7623C61.6651 30.0545 62.7765 28.986 64.3855 28.986V24.986C60.5345 24.986 57.6978 27.8655 57.6397 31.7017L61.6392 31.7623ZM64.3855 28.986H68.3335V24.986H64.3855V28.986ZM68.3335 28.986C71.2999 28.986 72.1193 29.0734 73.0236 29.2744L73.8913 25.3696C72.5277 25.0666 71.3311 24.986 68.3335 24.986V28.986ZM72.9923 29.2672C75.9203 29.9673 77.9255 32.4939 77.9255 35.722H81.9255C81.9255 30.7181 78.7226 26.5247 73.9226 25.3768L72.9923 29.2672ZM77.9255 35.722C77.9255 36.3852 77.8654 36.8189 77.7389 37.235C77.6053 37.6747 77.3679 38.192 76.8974 38.9956L80.3495 41.0164C80.8871 40.098 81.3007 39.2713 81.566 38.3985C81.8385 37.5021 81.9255 36.6548 81.9255 35.722H77.9255ZM66.8375 35.68V37.822H70.8375V35.68H66.8375ZM68.8375 39.822H69.9295V35.822H68.8375V39.822ZM69.9295 39.822C70.6126 39.822 71.5541 39.7688 72.3417 39.2746C73.3962 38.613 73.6515 37.5575 73.6515 36.772H69.6515C69.6515 36.79 69.6468 36.647 69.739 36.4402C69.8467 36.1989 70.0257 36.0056 70.2157 35.8864C70.3726 35.7879 70.4689 35.7825 70.3993 35.7949C70.334 35.8064 70.1905 35.822 69.9295 35.822V39.822ZM73.6515 36.772C73.6515 36.3714 73.5894 35.8832 73.3529 35.394C73.1036 34.8784 72.719 34.4838 72.2657 34.2118C71.4749 33.7373 70.5398 33.68 69.8455 33.68V37.68C70.1055 37.68 70.2572 37.6954 70.3345 37.7089C70.4163 37.7231 70.3433 37.7231 70.2077 37.6417C70.0432 37.543 69.866 37.3714 69.7519 37.1354C69.6505 36.9258 69.6515 36.7736 69.6515 36.772H73.6515ZM69.8455 33.68H68.8375V37.68H69.8455V33.68ZM66.8375 44.122V46.39H70.8375V44.122H66.8375ZM68.8375 48.39H70.3915V44.39H68.8375V48.39ZM70.3915 48.39C71.146 48.39 72.1507 48.3589 72.9641 47.9102C73.4677 47.6323 73.884 47.2096 74.1382 46.6493C74.3677 46.1436 74.4075 45.6502 74.4075 45.298H70.4075C70.4075 45.3658 70.3948 45.2189 70.4956 44.9967C70.5502 44.8764 70.6297 44.7524 70.7362 44.6397C70.8412 44.5284 70.9476 44.4543 71.0318 44.4078C71.18 44.3261 71.2474 44.3366 71.1038 44.3566C70.9716 44.3751 70.7502 44.39 70.3915 44.39V48.39ZM74.4075 45.298C74.4075 44.8595 74.3309 44.3427 74.0657 43.8345C73.7907 43.3077 73.3811 42.9209 72.922 42.6585C72.109 42.194 71.1397 42.122 70.3495 42.122V46.122C70.6495 46.122 70.8414 46.1398 70.9552 46.1592C71.0742 46.1795 71.0406 46.1904 70.9374 46.1315C70.8091 46.0581 70.6383 45.9128 70.5196 45.6853C70.4105 45.4763 70.4075 45.3165 70.4075 45.298H74.4075ZM70.3495 42.122H68.8375V46.122H70.3495V42.122ZM100.556 28.54L102.093 29.8204L102.103 29.8086L102.112 29.7967L100.556 28.54ZM107.738 28.456L106.202 29.7364L106.207 29.7424L107.738 28.456ZM105.89 51.598L104.396 50.2693L104.389 50.2768L104.382 50.2844L105.89 51.598ZM87.4943 50.842L85.8806 52.0235L85.8837 52.0276L87.4943 50.842ZM86.1923 28.582L84.6365 27.3253L84.6179 27.3483L84.6 27.3718L86.1923 28.582ZM93.2483 28.246L91.8001 29.6253L91.8031 29.6284L93.2483 28.246ZM92.5083 32.236V43.282H96.5083V32.236H92.5083ZM92.5083 43.282C92.5083 44.5632 92.7982 45.8579 93.5879 46.8787C94.4296 47.9668 95.6663 48.516 97.0283 48.516V44.516C96.8866 44.516 96.8244 44.49 96.8096 44.483C96.7981 44.4776 96.7808 44.4688 96.7517 44.4313C96.6805 44.3391 96.5083 44.0168 96.5083 43.282H92.5083ZM97.0283 48.516C98.3634 48.516 99.5943 47.9985 100.446 46.9396C101.25 45.9384 101.548 44.6643 101.548 43.408H97.5483C97.5483 44.0837 97.3842 44.3636 97.3281 44.4334C97.305 44.4622 97.2898 44.4714 97.2724 44.4792C97.2511 44.4889 97.1797 44.516 97.0283 44.516V48.516ZM101.548 43.408V32.236H97.5483V43.408H101.548ZM101.548 32.236C101.548 31.2111 101.597 30.7775 101.667 30.5189C101.712 30.3542 101.777 30.1989 102.093 29.8204L99.0199 27.2596C98.4953 27.8891 98.0566 28.5528 97.8074 29.4696C97.5837 30.2925 97.5483 31.2029 97.5483 32.236H101.548ZM102.112 29.7967C102.648 29.1327 103.397 28.776 104.126 28.776V24.776C102.084 24.776 100.228 25.7633 99.0005 27.2833L102.112 29.7967ZM104.126 28.776C104.881 28.776 105.745 29.1875 106.202 29.7364L109.275 27.1756C108.052 25.7085 106.06 24.776 104.126 24.776V28.776ZM106.207 29.7424C106.498 30.0886 106.6 30.2934 106.674 30.5912C106.773 30.9906 106.83 31.6169 106.83 32.866H110.83C110.83 31.5951 110.783 30.5414 110.556 29.6283C110.305 28.6136 109.861 27.8734 109.27 27.1696L106.207 29.7424ZM106.83 32.866V42.82H110.83V32.866H106.83ZM106.83 42.82C106.83 46.2283 106.015 48.447 104.396 50.2693L107.385 52.9267C109.797 50.213 110.83 46.9717 110.83 42.82H106.83ZM104.382 50.2844C102.48 52.468 99.7476 53.714 97.0283 53.714V57.714C100.945 57.714 104.764 55.936 107.398 52.9116L104.382 50.2844ZM97.0283 53.714C93.9432 53.714 90.9643 52.1822 89.105 49.6564L85.8837 52.0276C88.4764 55.5498 92.6375 57.714 97.0283 57.714V53.714ZM89.1081 49.6605C88.3552 48.6323 87.9131 47.7642 87.6398 46.793C87.3584 45.7938 87.2263 44.5818 87.2263 42.82H83.2263C83.2263 44.7542 83.3672 46.3772 83.7894 47.877C84.2195 49.4048 84.9114 50.6997 85.8806 52.0235L89.1081 49.6605ZM87.2263 42.82V32.95H83.2263V42.82H87.2263ZM87.2263 32.95C87.2263 31.6172 87.2742 30.9936 87.3613 30.6065C87.4212 30.3404 87.4981 30.1692 87.7847 29.7922L84.6 27.3718C84.0885 28.0448 83.6825 28.7346 83.4589 29.7285C83.2625 30.6014 83.2263 31.6368 83.2263 32.95H87.2263ZM87.7482 29.8387C88.2781 29.1826 89.1492 28.776 89.8463 28.776V24.776C87.8554 24.776 85.8705 25.7974 84.6365 27.3253L87.7482 29.8387ZM89.8463 28.776C90.5374 28.776 91.3224 29.1237 91.8001 29.6253L94.6966 26.8667C93.4943 25.6043 91.6753 24.776 89.8463 24.776V28.776ZM91.8031 29.6284C92.0771 29.9149 92.2206 30.1587 92.3182 30.4668C92.4296 30.8188 92.5083 31.344 92.5083 32.236H96.5083C96.5083 31.154 96.419 30.1671 96.1315 29.2592C95.8301 28.3073 95.3436 27.543 94.6936 26.8636L91.8031 29.6284ZM127.913 43.408L126.271 42.2665L125.913 42.7812V43.408H127.913ZM127.115 53.026L125.427 51.9522L125.411 51.9783L125.395 52.0049L127.115 53.026ZM119.387 53.068L117.678 54.1079L117.692 54.1303L117.706 54.1523L119.387 53.068ZM118.589 43.282H120.589V42.6696L120.246 42.1621L118.589 43.282ZM112.373 34.084L114.03 32.9641L114.015 32.9426L114 32.9215L112.373 34.084ZM120.101 28.96L118.483 30.1363L118.491 30.147L118.499 30.1575L120.101 28.96ZM123.335 33.286L121.733 34.4835L123.317 36.6029L124.924 34.5003L123.335 33.286ZM126.737 28.834L125.18 27.5785L125.164 27.5989L125.148 27.6197L126.737 28.834ZM134.423 34.042L136.065 35.1835L136.083 35.158L136.1 35.132L134.423 34.042ZM125.913 43.408V49.498H129.913V43.408H125.913ZM125.913 49.498C125.913 51.0188 125.733 51.4727 125.427 51.9522L128.802 54.0998C129.673 52.7313 129.913 51.4212 129.913 49.498H125.913ZM125.395 52.0049C124.971 52.72 124.083 53.21 123.251 53.21V57.21C125.443 57.21 127.663 56.02 128.834 54.0471L125.395 52.0049ZM123.251 53.21C122.441 53.21 121.552 52.7342 121.067 51.9837L117.706 54.1523C118.902 56.0058 121.037 57.21 123.251 57.21V53.21ZM121.095 52.0281C120.885 51.6836 120.784 51.441 120.716 51.1483C120.64 50.8172 120.589 50.3395 120.589 49.498H116.589C116.589 50.4625 116.643 51.2868 116.818 52.0477C117.003 52.847 117.3 53.4864 117.678 54.1079L121.095 52.0281ZM120.589 49.498V43.282H116.589V49.498H120.589ZM120.246 42.1621L114.03 32.9641L110.716 35.2039L116.932 44.4019L120.246 42.1621ZM114 32.9215C113.61 32.3751 113.449 31.8147 113.449 31.27H109.449C109.449 32.6573 109.876 34.0289 110.745 35.2465L114 32.9215ZM113.449 31.27C113.449 29.9325 114.575 28.776 116.027 28.776V24.776C112.439 24.776 109.449 27.6515 109.449 31.27H113.449ZM116.027 28.776C116.917 28.776 117.811 29.2122 118.483 30.1363L121.718 27.7837C120.374 25.9358 118.328 24.776 116.027 24.776V28.776ZM118.499 30.1575L121.733 34.4835L124.937 32.0885L121.703 27.7625L118.499 30.1575ZM124.924 34.5003L128.326 30.0483L125.148 27.6197L121.746 32.0717L124.924 34.5003ZM128.294 30.0895C129.047 29.1558 129.898 28.776 130.643 28.776V24.776C128.448 24.776 126.527 25.9082 125.18 27.5785L128.294 30.0895ZM130.643 28.776C132.07 28.776 133.263 29.9924 133.263 31.354H137.263C137.263 27.7596 134.256 24.776 130.643 24.776V28.776ZM133.263 31.354C133.263 31.8477 133.106 32.3981 132.746 32.952L136.1 35.132C136.832 34.0059 137.263 32.7083 137.263 31.354H133.263ZM132.781 32.9005L126.271 42.2665L129.555 44.5495L136.065 35.1835L132.781 32.9005ZM166.236 37.654L164.685 38.9165L168.236 43.2794V37.654H166.236ZM167.076 28.792L168.718 29.9341L168.734 29.9113L168.749 29.8881L167.076 28.792ZM174.384 28.456L175.952 27.2146L175.934 27.1918L175.916 27.1696L174.384 28.456ZM174.468 53.488L176.053 54.7074L176.06 54.6982L174.468 53.488ZM167.202 53.32L168.789 52.1031L168.784 52.0964L168.779 52.0897L167.202 53.32ZM159.894 43.954L161.471 42.7237L157.894 38.1396V43.954H159.894ZM158.844 53.53L160.376 54.8164L160.394 54.7942L160.412 54.7714L158.844 53.53ZM151.578 53.404L149.955 54.5726L149.977 54.6027L149.999 54.6319L151.578 53.404ZM158.886 28.624L157.329 29.8795L157.335 29.8865L158.886 28.624ZM168.236 37.654V32.446H164.236V37.654H168.236ZM168.236 32.446C168.236 30.7431 168.394 30.3995 168.718 29.9341L165.434 27.6499C164.414 29.1165 164.236 30.4529 164.236 32.446H168.236ZM168.749 29.8881C169.172 29.2426 170.008 28.776 170.856 28.776V24.776C168.68 24.776 166.576 25.9053 165.403 27.6959L168.749 29.8881ZM170.856 28.776C171.612 28.776 172.325 29.114 172.853 29.7424L175.916 27.1696C174.679 25.698 172.872 24.776 170.856 24.776V28.776ZM172.816 29.6974C173.084 30.0356 173.223 30.3055 173.312 30.6062C173.41 30.9342 173.476 31.3945 173.476 32.152H177.476C177.476 31.1875 177.395 30.3038 177.146 29.4663C176.889 28.6015 176.483 27.8844 175.952 27.2146L172.816 29.6974ZM173.476 32.152V49.288H177.476V32.152H173.476ZM173.476 49.288C173.476 50.3693 173.421 50.9634 173.326 51.3665C173.246 51.6995 173.13 51.9429 172.876 52.2778L176.06 54.6982C176.604 53.9831 176.992 53.2395 177.217 52.2915C177.426 51.4136 177.476 50.4327 177.476 49.288H173.476ZM172.883 52.2686C172.447 52.8349 171.707 53.21 170.856 53.21V57.21C172.861 57.21 174.809 56.3251 176.053 54.7074L172.883 52.2686ZM170.856 53.21C170.064 53.21 169.412 52.9151 168.789 52.1031L165.615 54.5369C166.924 56.2449 168.709 57.21 170.856 57.21V53.21ZM168.779 52.0897L161.471 42.7237L158.317 45.1843L165.625 54.5503L168.779 52.0897ZM157.894 43.954V49.834H161.894V43.954H157.894ZM157.894 49.834C157.894 50.6884 157.833 51.1432 157.746 51.4452C157.672 51.702 157.556 51.9344 157.276 52.2886L160.412 54.7714C160.93 54.1176 161.339 53.426 161.591 52.5488C161.83 51.7168 161.894 50.8276 161.894 49.834H157.894ZM157.313 52.2436C156.798 52.8564 156.05 53.21 155.274 53.21V57.21C157.27 57.21 159.126 56.3036 160.376 54.8164L157.313 52.2436ZM155.274 53.21C154.46 53.21 153.658 52.8201 153.157 52.1761L149.999 54.6319C151.263 56.2559 153.232 57.21 155.274 57.21V53.21ZM153.201 52.2354C152.938 51.8695 152.827 51.6282 152.754 51.3309C152.666 50.9733 152.612 50.4448 152.612 49.456H148.612C148.612 50.5252 148.663 51.4457 148.869 52.285C149.09 53.1848 149.462 53.8885 149.955 54.5726L153.201 52.2354ZM152.612 49.456V31.732H148.612V49.456H152.612ZM152.612 31.732C152.612 30.6791 152.946 29.9692 153.372 29.5325C153.794 29.1001 154.461 28.776 155.442 28.776V24.776C153.525 24.776 151.778 25.4389 150.509 26.739C149.245 28.0348 148.612 29.8029 148.612 31.732H152.612ZM155.442 28.776C155.824 28.776 156.094 28.8489 156.334 28.9769C156.593 29.1148 156.92 29.3718 157.329 29.8795L160.443 27.3685C159.802 26.5742 159.079 25.9072 158.215 25.4466C157.332 24.9761 156.404 24.776 155.442 24.776V28.776ZM157.335 29.8865L164.685 38.9165L167.787 36.3915L160.437 27.3615L157.335 29.8865ZM181.058 40.846C181.058 33.9127 186.689 28.314 193.8 28.314V24.314C184.532 24.314 177.058 31.6513 177.058 40.846H181.058ZM193.8 28.314C200.901 28.314 206.584 33.9854 206.584 40.972H210.584C210.584 31.7466 203.08 24.314 193.8 24.314V28.314ZM206.584 40.972C206.584 47.9734 200.844 53.714 193.842 53.714V57.714C203.053 57.714 210.584 50.1826 210.584 40.972H206.584ZM193.842 53.714C186.726 53.714 181.058 48.0266 181.058 40.846H177.058C177.058 50.2135 184.495 57.714 193.842 57.714V53.714ZM186.34 40.972C186.34 45.1129 189.684 48.558 193.842 48.558V44.558C191.952 44.558 190.34 42.9631 190.34 40.972H186.34ZM193.842 48.558C197.991 48.558 201.344 45.1228 201.344 41.014H197.344C197.344 42.9532 195.742 44.558 193.842 44.558V48.558ZM201.344 41.014C201.344 36.8975 197.941 33.596 193.842 33.596V37.596C195.792 37.596 197.344 39.1665 197.344 41.014H201.344ZM193.842 33.596C189.764 33.596 186.34 36.8355 186.34 40.972H190.34C190.34 39.1445 191.872 37.596 193.842 37.596V33.596ZM222.193 37.612L220.349 38.3866L222.398 43.2639L224.088 38.2509L222.193 37.612ZM224.671 30.262L222.777 29.6194L222.776 29.623L224.671 30.262ZM233.743 30.388L231.852 31.04L231.856 31.0492L233.743 30.388ZM236.347 37.822L234.46 38.4832L236.246 43.5819L238.21 38.5493L236.347 37.822ZM239.413 29.968L237.551 29.2392L237.55 29.2407L239.413 29.968ZM248.023 33.538L246.157 32.82L246.151 32.8341L246.146 32.8482L248.023 33.538ZM241.387 51.598L239.51 50.9082L239.507 50.9171L241.387 51.598ZM232.441 51.682L230.546 52.3223L230.551 52.335L232.441 51.682ZM229.333 42.484L231.228 41.8438L229.325 36.211L227.437 41.8489L229.333 42.484ZM226.267 51.64L224.371 51.0049L224.366 51.0179L226.267 51.64ZM217.489 52.018L219.367 51.3284L219.362 51.3163L219.358 51.3043L217.489 52.018ZM210.349 33.328L212.218 32.6143L212.206 32.5829L212.193 32.5519L210.349 33.328ZM219.211 30.514L217.359 31.2676L217.363 31.2781L217.367 31.2887L219.211 30.514ZM224.088 38.2509L226.566 30.9009L222.776 29.623L220.298 36.973L224.088 38.2509ZM226.565 30.9046C226.878 29.9823 227.258 29.4888 227.608 29.2181C227.939 28.9617 228.407 28.776 229.165 28.776V24.776C227.697 24.776 226.318 25.1573 225.158 26.0559C224.016 26.9402 223.262 28.1897 222.777 29.6194L226.565 30.9046ZM229.165 28.776C229.907 28.776 230.385 28.9633 230.738 29.2408C231.113 29.5356 231.518 30.0688 231.853 31.04L235.634 29.736C235.129 28.2712 234.358 26.9984 233.21 26.0962C232.041 25.1767 230.65 24.776 229.165 24.776V28.776ZM231.856 31.0492L234.46 38.4832L238.235 37.1608L235.631 29.7268L231.856 31.0492ZM238.21 38.5493L241.276 30.6953L237.55 29.2407L234.484 37.0947L238.21 38.5493ZM241.276 30.6968C241.751 29.482 242.808 28.776 243.949 28.776V24.776C241.058 24.776 238.587 26.59 237.551 29.2392L241.276 30.6968ZM243.949 28.776C245.461 28.776 246.569 29.9085 246.569 31.354H250.569C250.569 27.6755 247.646 24.776 243.949 24.776V28.776ZM246.569 31.354C246.569 31.5223 246.553 31.7883 246.157 32.82L249.89 34.256C250.333 33.1037 250.569 32.2777 250.569 31.354H246.569ZM246.146 32.8482L239.51 50.9082L243.265 52.2878L249.901 34.2278L246.146 32.8482ZM239.507 50.9171C239.147 51.9106 238.733 52.4609 238.361 52.7622C238.018 53.0392 237.584 53.21 236.935 53.21V57.21C238.386 57.21 239.738 56.7928 240.875 55.8728C241.983 54.9771 242.745 53.7214 243.268 52.2789L239.507 50.9171ZM236.935 53.21C236.264 53.21 235.787 53.0277 235.419 52.7389C235.034 52.4366 234.637 51.9124 234.332 51.029L230.551 52.335C231.044 53.7616 231.823 55.0014 232.95 55.8856C234.094 56.7833 235.464 57.21 236.935 57.21V53.21ZM234.336 51.0418L231.228 41.8438L227.439 43.1242L230.547 52.3222L234.336 51.0418ZM227.437 41.8489L224.371 51.0049L228.164 52.2751L231.23 43.1191L227.437 41.8489ZM224.366 51.0179C224.079 51.8953 223.689 52.4283 223.308 52.737C222.944 53.0312 222.484 53.21 221.857 53.21V57.21C223.331 57.21 224.697 56.7588 225.825 55.8455C226.935 54.9467 227.699 53.6947 228.168 52.2621L224.366 51.0179ZM221.857 53.21C221.209 53.21 220.729 53.0371 220.365 52.7708C219.993 52.4995 219.632 52.0499 219.367 51.3284L215.612 52.7076C216.103 54.0441 216.896 55.1905 218.005 56.0007C219.121 56.8159 220.447 57.21 221.857 57.21V53.21ZM219.358 51.3043L212.218 32.6143L208.481 34.0417L215.621 52.7317L219.358 51.3043ZM212.193 32.5519C212.066 32.252 211.961 31.9297 211.891 31.6459C211.812 31.3323 211.803 31.1787 211.803 31.186H207.803C207.803 32.0248 208.12 33.188 208.506 34.1041L212.193 32.5519ZM211.803 31.186C211.803 29.9614 212.898 28.776 214.465 28.776V24.776C210.909 24.776 207.803 27.5386 207.803 31.186H211.803ZM214.465 28.776C215.114 28.776 215.606 28.9561 216.026 29.2866C216.472 29.6385 216.945 30.2495 217.359 31.2676L221.064 29.7604C220.47 28.3005 219.64 27.0425 218.501 26.1449C217.335 25.2259 215.958 24.776 214.465 24.776V28.776ZM217.367 31.2887L220.349 38.3866L224.037 36.8373L221.055 29.7393L217.367 31.2887Z" fill="black" mask="url(#path-2-outside-1_2_124)"/>
</svg>
