<svg width="251" height="82" viewBox="0 0 251 82" fill="none" xmlns="http://www.w3.org/2000/svg">
<rect x="1.5" y="1.5" width="248" height="79" rx="39.5" fill="#F5CB24" stroke="black" stroke-width="3"/>
<mask id="path-2-outside-1_2_3" maskUnits="userSpaceOnUse" x="30" y="24" width="194" height="34" fill="black">
<rect fill="white" x="30" y="24" width="194" height="34"/>
<path d="M51.253 40.006C53.479 42.148 54.319 43.996 54.319 46.684C54.319 49.12 53.353 51.262 51.505 52.942C49.699 54.622 48.397 55 44.785 55H37.435C35.419 55 34.495 54.706 33.487 53.614C32.941 53.026 32.521 52.186 32.353 51.43C32.311 51.094 32.269 50.758 32.269 48.952V33.076V31.732C32.311 28.96 34.285 26.986 37.015 26.986H40.963C43.945 26.986 44.953 27.07 46.087 27.322C49.951 28.246 52.555 31.606 52.555 35.722C52.555 37.318 52.261 38.284 51.253 40.006ZM41.467 35.68V37.822H42.559C43.861 37.822 44.281 37.528 44.281 36.772C44.281 35.974 43.777 35.68 42.475 35.68H41.467ZM41.467 44.122V46.39H43.021C44.617 46.39 45.037 46.138 45.037 45.298C45.037 44.458 44.449 44.122 42.979 44.122H41.467ZM67.1378 32.236V43.282C67.1378 45.298 68.0618 46.516 69.6578 46.516C71.2538 46.516 72.1778 45.34 72.1778 43.408V32.236C72.1778 30.178 72.3458 29.548 73.1858 28.54C74.0678 27.448 75.3698 26.776 76.7558 26.776C78.0998 26.776 79.5278 27.448 80.3678 28.456C81.2498 29.506 81.4598 30.346 81.4598 32.866V42.82C81.4598 46.6 80.5358 49.33 78.5198 51.598C76.2518 54.202 72.9758 55.714 69.6578 55.714C65.9198 55.714 62.3498 53.866 60.1238 50.842C58.4018 48.49 57.8558 46.516 57.8558 42.82V32.95C57.8558 30.304 58.0238 29.632 58.8218 28.582C59.7038 27.49 61.1318 26.776 62.4758 26.776C63.7358 26.776 65.0378 27.364 65.8778 28.246C66.8018 29.212 67.1378 30.262 67.1378 32.236ZM100.542 43.408V49.498C100.542 51.22 100.332 52.102 99.7443 53.026C98.9463 54.37 97.3923 55.21 95.8803 55.21C94.3683 55.21 92.8563 54.37 92.0163 53.068C91.4283 52.102 91.2183 51.304 91.2183 49.498V43.282L85.0023 34.084C84.3723 33.202 84.0783 32.236 84.0783 31.27C84.0783 28.792 86.1363 26.776 88.6563 26.776C90.2523 26.776 91.7223 27.574 92.7303 28.96L95.9643 33.286L99.3663 28.834C100.416 27.532 101.802 26.776 103.272 26.776C105.792 26.776 107.892 28.876 107.892 31.354C107.892 32.278 107.598 33.202 107.052 34.042L100.542 43.408ZM138.866 37.654V32.446C138.866 30.598 139.034 29.758 139.706 28.792C140.504 27.574 141.974 26.776 143.486 26.776C144.872 26.776 146.132 27.406 147.014 28.456C147.812 29.464 148.106 30.43 148.106 32.152V49.288C148.106 51.514 147.896 52.438 147.098 53.488C146.258 54.58 144.914 55.21 143.486 55.21C142.016 55.21 140.798 54.58 139.832 53.32L132.524 43.954V49.834C132.524 51.682 132.272 52.522 131.474 53.53C130.592 54.58 129.29 55.21 127.904 55.21C126.476 55.21 125.09 54.538 124.208 53.404C123.452 52.354 123.242 51.514 123.242 49.456V31.732C123.242 28.75 125.174 26.776 128.072 26.776C129.416 26.776 130.466 27.322 131.516 28.624L138.866 37.654ZM151.688 40.846C151.688 32.782 158.24 26.314 166.43 26.314C174.62 26.314 181.214 32.866 181.214 40.972C181.214 49.078 174.578 55.714 166.472 55.714C158.24 55.714 151.688 49.12 151.688 40.846ZM160.97 40.972C160.97 44.038 163.448 46.558 166.472 46.558C169.496 46.558 171.974 44.038 171.974 41.014C171.974 38.032 169.496 35.596 166.472 35.596C163.448 35.596 160.97 37.99 160.97 40.972ZM194.823 37.612L197.301 30.262C198.099 27.91 199.569 26.776 201.795 26.776C204.021 26.776 205.533 27.952 206.373 30.388L208.977 37.822L212.043 29.968C212.799 28.036 214.563 26.776 216.579 26.776C219.183 26.776 221.199 28.792 221.199 31.354C221.199 31.9 221.073 32.446 220.653 33.538L214.017 51.598C213.135 54.034 211.665 55.21 209.565 55.21C207.423 55.21 205.869 53.992 205.071 51.682L201.963 42.484L198.897 51.64C198.141 53.95 196.587 55.21 194.487 55.21C192.429 55.21 190.875 54.076 190.119 52.018L182.979 33.328C182.643 32.53 182.433 31.648 182.433 31.186C182.433 28.75 184.533 26.776 187.095 26.776C189.237 26.776 190.833 28.036 191.841 30.514L194.823 37.612Z"/>
</mask>
<path d="M51.253 40.006C53.479 42.148 54.319 43.996 54.319 46.684C54.319 49.12 53.353 51.262 51.505 52.942C49.699 54.622 48.397 55 44.785 55H37.435C35.419 55 34.495 54.706 33.487 53.614C32.941 53.026 32.521 52.186 32.353 51.43C32.311 51.094 32.269 50.758 32.269 48.952V33.076V31.732C32.311 28.96 34.285 26.986 37.015 26.986H40.963C43.945 26.986 44.953 27.07 46.087 27.322C49.951 28.246 52.555 31.606 52.555 35.722C52.555 37.318 52.261 38.284 51.253 40.006ZM41.467 35.68V37.822H42.559C43.861 37.822 44.281 37.528 44.281 36.772C44.281 35.974 43.777 35.68 42.475 35.68H41.467ZM41.467 44.122V46.39H43.021C44.617 46.39 45.037 46.138 45.037 45.298C45.037 44.458 44.449 44.122 42.979 44.122H41.467ZM67.1378 32.236V43.282C67.1378 45.298 68.0618 46.516 69.6578 46.516C71.2538 46.516 72.1778 45.34 72.1778 43.408V32.236C72.1778 30.178 72.3458 29.548 73.1858 28.54C74.0678 27.448 75.3698 26.776 76.7558 26.776C78.0998 26.776 79.5278 27.448 80.3678 28.456C81.2498 29.506 81.4598 30.346 81.4598 32.866V42.82C81.4598 46.6 80.5358 49.33 78.5198 51.598C76.2518 54.202 72.9758 55.714 69.6578 55.714C65.9198 55.714 62.3498 53.866 60.1238 50.842C58.4018 48.49 57.8558 46.516 57.8558 42.82V32.95C57.8558 30.304 58.0238 29.632 58.8218 28.582C59.7038 27.49 61.1318 26.776 62.4758 26.776C63.7358 26.776 65.0378 27.364 65.8778 28.246C66.8018 29.212 67.1378 30.262 67.1378 32.236ZM100.542 43.408V49.498C100.542 51.22 100.332 52.102 99.7443 53.026C98.9463 54.37 97.3923 55.21 95.8803 55.21C94.3683 55.21 92.8563 54.37 92.0163 53.068C91.4283 52.102 91.2183 51.304 91.2183 49.498V43.282L85.0023 34.084C84.3723 33.202 84.0783 32.236 84.0783 31.27C84.0783 28.792 86.1363 26.776 88.6563 26.776C90.2523 26.776 91.7223 27.574 92.7303 28.96L95.9643 33.286L99.3663 28.834C100.416 27.532 101.802 26.776 103.272 26.776C105.792 26.776 107.892 28.876 107.892 31.354C107.892 32.278 107.598 33.202 107.052 34.042L100.542 43.408ZM138.866 37.654V32.446C138.866 30.598 139.034 29.758 139.706 28.792C140.504 27.574 141.974 26.776 143.486 26.776C144.872 26.776 146.132 27.406 147.014 28.456C147.812 29.464 148.106 30.43 148.106 32.152V49.288C148.106 51.514 147.896 52.438 147.098 53.488C146.258 54.58 144.914 55.21 143.486 55.21C142.016 55.21 140.798 54.58 139.832 53.32L132.524 43.954V49.834C132.524 51.682 132.272 52.522 131.474 53.53C130.592 54.58 129.29 55.21 127.904 55.21C126.476 55.21 125.09 54.538 124.208 53.404C123.452 52.354 123.242 51.514 123.242 49.456V31.732C123.242 28.75 125.174 26.776 128.072 26.776C129.416 26.776 130.466 27.322 131.516 28.624L138.866 37.654ZM151.688 40.846C151.688 32.782 158.24 26.314 166.43 26.314C174.62 26.314 181.214 32.866 181.214 40.972C181.214 49.078 174.578 55.714 166.472 55.714C158.24 55.714 151.688 49.12 151.688 40.846ZM160.97 40.972C160.97 44.038 163.448 46.558 166.472 46.558C169.496 46.558 171.974 44.038 171.974 41.014C171.974 38.032 169.496 35.596 166.472 35.596C163.448 35.596 160.97 37.99 160.97 40.972ZM194.823 37.612L197.301 30.262C198.099 27.91 199.569 26.776 201.795 26.776C204.021 26.776 205.533 27.952 206.373 30.388L208.977 37.822L212.043 29.968C212.799 28.036 214.563 26.776 216.579 26.776C219.183 26.776 221.199 28.792 221.199 31.354C221.199 31.9 221.073 32.446 220.653 33.538L214.017 51.598C213.135 54.034 211.665 55.21 209.565 55.21C207.423 55.21 205.869 53.992 205.071 51.682L201.963 42.484L198.897 51.64C198.141 53.95 196.587 55.21 194.487 55.21C192.429 55.21 190.875 54.076 190.119 52.018L182.979 33.328C182.643 32.53 182.433 31.648 182.433 31.186C182.433 28.75 184.533 26.776 187.095 26.776C189.237 26.776 190.833 28.036 191.841 30.514L194.823 37.612Z" fill="white"/>
<path d="M51.253 40.006L49.5269 38.9956L48.7312 40.355L49.8662 41.4471L51.253 40.006ZM51.505 52.942L50.1596 51.4621L50.1511 51.4698L50.1428 51.4776L51.505 52.942ZM33.487 53.614L34.9566 52.2574L34.9525 52.2531L33.487 53.614ZM32.353 51.43L30.3684 51.6781L30.3801 51.7717L30.4006 51.8639L32.353 51.43ZM32.269 31.732L30.2692 31.7017L30.269 31.7168V31.732H32.269ZM46.087 27.322L46.5521 25.3768L46.5365 25.3731L46.5208 25.3696L46.087 27.322ZM41.467 35.68V33.68H39.467V35.68H41.467ZM41.467 37.822H39.467V39.822H41.467V37.822ZM41.467 44.122V42.122H39.467V44.122H41.467ZM41.467 46.39H39.467V48.39H41.467V46.39ZM49.8662 41.4471C50.866 42.4093 51.4516 43.2075 51.8024 43.9732C52.1462 44.7235 52.319 45.5614 52.319 46.684H56.319C56.319 45.1186 56.0718 43.6885 55.439 42.3072C54.8133 40.9415 53.8659 39.7447 52.6397 38.5649L49.8662 41.4471ZM52.319 46.684C52.319 48.5381 51.6045 50.1486 50.1596 51.4621L52.8503 54.4219C55.1014 52.3754 56.319 49.7019 56.319 46.684H52.319ZM50.1428 51.4776C49.3781 52.1889 48.8595 52.4995 48.2411 52.6873C47.5406 52.9 46.5659 53 44.785 53V57C46.616 57 48.0983 56.911 49.4033 56.5147C50.7905 56.0935 51.8258 55.3751 52.8672 54.4064L50.1428 51.4776ZM44.785 53H37.435V57H44.785V53ZM37.435 53C36.4904 53 36.0239 52.9254 35.7349 52.8258C35.5117 52.7488 35.2956 52.6247 34.9566 52.2574L32.0174 54.9706C32.6863 55.6953 33.4362 56.2642 34.431 56.6072C35.36 56.9276 36.3635 57 37.435 57V53ZM34.9525 52.2531C34.6646 51.943 34.4017 51.4296 34.3053 50.9961L30.4006 51.8639C30.6403 52.9424 31.2173 54.109 32.0214 54.9749L34.9525 52.2531ZM34.3375 51.1819C34.3108 50.968 34.269 50.7282 34.269 48.952H30.269C30.269 50.7878 30.3112 51.22 30.3684 51.6781L34.3375 51.1819ZM34.269 48.952V33.076H30.269V48.952H34.269ZM34.269 33.076V31.732H30.269V33.076H34.269ZM34.2687 31.7623C34.2946 30.0545 35.406 28.986 37.015 28.986V24.986C33.164 24.986 30.3273 27.8655 30.2692 31.7017L34.2687 31.7623ZM37.015 28.986H40.963V24.986H37.015V28.986ZM40.963 28.986C43.9293 28.986 44.7488 29.0734 45.6531 29.2744L46.5208 25.3696C45.1572 25.0666 43.9606 24.986 40.963 24.986V28.986ZM45.6218 29.2672C48.5498 29.9673 50.555 32.4939 50.555 35.722H54.555C54.555 30.7181 51.3521 26.5247 46.5521 25.3768L45.6218 29.2672ZM50.555 35.722C50.555 36.3852 50.4949 36.8189 50.3684 37.235C50.2348 37.6747 49.9974 38.192 49.5269 38.9956L52.979 41.0164C53.5165 40.098 53.9302 39.2713 54.1955 38.3985C54.468 37.5021 54.555 36.6548 54.555 35.722H50.555ZM39.467 35.68V37.822H43.467V35.68H39.467ZM41.467 39.822H42.559V35.822H41.467V39.822ZM42.559 39.822C43.2421 39.822 44.1836 39.7688 44.9712 39.2746C46.0257 38.613 46.281 37.5575 46.281 36.772H42.281C42.281 36.79 42.2763 36.647 42.3685 36.4402C42.4762 36.1989 42.6552 36.0056 42.8452 35.8864C43.0021 35.7879 43.0984 35.7825 43.0287 35.7949C42.9635 35.8064 42.82 35.822 42.559 35.822V39.822ZM46.281 36.772C46.281 36.3714 46.2189 35.8832 45.9824 35.394C45.7331 34.8784 45.3485 34.4838 44.8952 34.2118C44.1044 33.7373 43.1693 33.68 42.475 33.68V37.68C42.735 37.68 42.8867 37.6954 42.964 37.7089C43.0457 37.7231 42.9728 37.7231 42.8372 37.6417C42.6726 37.543 42.4955 37.3714 42.3813 37.1354C42.28 36.9258 42.281 36.7736 42.281 36.772H46.281ZM42.475 33.68H41.467V37.68H42.475V33.68ZM39.467 44.122V46.39H43.467V44.122H39.467ZM41.467 48.39H43.021V44.39H41.467V48.39ZM43.021 48.39C43.7755 48.39 44.7802 48.3589 45.5936 47.9102C46.0971 47.6323 46.5135 47.2096 46.7677 46.6493C46.9972 46.1436 47.037 45.6502 47.037 45.298H43.037C43.037 45.3658 43.0242 45.2189 43.1251 44.9967C43.1797 44.8764 43.2592 44.7524 43.3656 44.6397C43.4706 44.5284 43.5771 44.4543 43.6613 44.4078C43.8095 44.3261 43.8769 44.3366 43.7333 44.3566C43.601 44.3751 43.3797 44.39 43.021 44.39V48.39ZM47.037 45.298C47.037 44.8595 46.9604 44.3427 46.6951 43.8345C46.4202 43.3077 46.0106 42.9209 45.5515 42.6585C44.7385 42.194 43.7691 42.122 42.979 42.122V46.122C43.2789 46.122 43.4708 46.1398 43.5847 46.1592C43.7037 46.1795 43.6701 46.1904 43.5669 46.1315C43.4386 46.0581 43.2678 45.9128 43.1491 45.6853C43.04 45.4763 43.037 45.3165 43.037 45.298H47.037ZM42.979 42.122H41.467V46.122H42.979V42.122ZM73.1858 28.54L74.7223 29.8204L74.7321 29.8086L74.7417 29.7967L73.1858 28.54ZM80.3678 28.456L78.8314 29.7364L78.8364 29.7424L80.3678 28.456ZM78.5198 51.598L77.025 50.2693L77.0183 50.2768L77.0117 50.2844L78.5198 51.598ZM60.1238 50.842L58.5101 52.0235L58.5131 52.0276L60.1238 50.842ZM58.8218 28.582L57.2659 27.3253L57.2474 27.3483L57.2295 27.3718L58.8218 28.582ZM65.8778 28.246L64.4295 29.6253L64.4325 29.6284L65.8778 28.246ZM65.1378 32.236V43.282H69.1378V32.236H65.1378ZM65.1378 43.282C65.1378 44.5632 65.4277 45.8579 66.2174 46.8787C67.0591 47.9668 68.2958 48.516 69.6578 48.516V44.516C69.5161 44.516 69.4539 44.49 69.439 44.483C69.4276 44.4776 69.4103 44.4688 69.3812 44.4313C69.31 44.3391 69.1378 44.0168 69.1378 43.282H65.1378ZM69.6578 48.516C70.9928 48.516 72.2238 47.9985 73.0751 46.9396C73.88 45.9384 74.1778 44.6643 74.1778 43.408H70.1778C70.1778 44.0837 70.0137 44.3636 69.9576 44.4334C69.9344 44.4622 69.9192 44.4714 69.9019 44.4792C69.8805 44.4889 69.8092 44.516 69.6578 44.516V48.516ZM74.1778 43.408V32.236H70.1778V43.408H74.1778ZM74.1778 32.236C74.1778 31.2111 74.2265 30.7775 74.2968 30.5189C74.3415 30.3542 74.4068 30.1989 74.7223 29.8204L71.6494 27.2596C71.1248 27.8891 70.6861 28.5528 70.4369 29.4696C70.2132 30.2925 70.1778 31.2029 70.1778 32.236H74.1778ZM74.7417 29.7967C75.278 29.1327 76.0262 28.776 76.7558 28.776V24.776C74.7135 24.776 72.8577 25.7633 71.6299 27.2833L74.7417 29.7967ZM76.7558 28.776C77.5104 28.776 78.374 29.1875 78.8314 29.7364L81.9043 27.1756C80.6816 25.7085 78.6892 24.776 76.7558 24.776V28.776ZM78.8364 29.7424C79.1273 30.0886 79.2295 30.2934 79.3034 30.5912C79.4024 30.9906 79.4598 31.6169 79.4598 32.866H83.4598C83.4598 31.5951 83.4122 30.5414 83.1858 29.6283C82.9341 28.6136 82.4904 27.8734 81.8992 27.1696L78.8364 29.7424ZM79.4598 32.866V42.82H83.4598V32.866H79.4598ZM79.4598 42.82C79.4598 46.2283 78.6448 48.447 77.025 50.2693L80.0146 52.9267C82.4268 50.213 83.4598 46.9717 83.4598 42.82H79.4598ZM77.0117 50.2844C75.1098 52.468 72.377 53.714 69.6578 53.714V57.714C73.5746 57.714 77.3938 55.936 80.028 52.9116L77.0117 50.2844ZM69.6578 53.714C66.5727 53.714 63.5938 52.1822 61.7345 49.6564L58.5131 52.0276C61.1059 55.5498 65.267 57.714 69.6578 57.714V53.714ZM61.7375 49.6605C60.9847 48.6323 60.5426 47.7642 60.2692 46.793C59.9879 45.7938 59.8558 44.5818 59.8558 42.82H55.8558C55.8558 44.7542 55.9967 46.3772 56.4189 47.877C56.849 49.4048 57.5409 50.6997 58.5101 52.0235L61.7375 49.6605ZM59.8558 42.82V32.95H55.8558V42.82H59.8558ZM59.8558 32.95C59.8558 31.6172 59.9037 30.9936 59.9908 30.6065C60.0507 30.3404 60.1276 30.1692 60.4141 29.7922L57.2295 27.3718C56.718 28.0448 56.312 28.7346 56.0884 29.7285C55.8919 30.6014 55.8558 31.6368 55.8558 32.95H59.8558ZM60.3777 29.8387C60.9076 29.1826 61.7787 28.776 62.4758 28.776V24.776C60.4849 24.776 58.5 25.7974 57.2659 27.3253L60.3777 29.8387ZM62.4758 28.776C63.1668 28.776 63.9519 29.1237 64.4295 29.6253L67.3261 26.8667C66.1238 25.6043 64.3048 24.776 62.4758 24.776V28.776ZM64.4325 29.6284C64.7066 29.9149 64.8501 30.1587 64.9476 30.4668C65.0591 30.8188 65.1378 31.344 65.1378 32.236H69.1378C69.1378 31.154 69.0485 30.1671 68.761 29.2592C68.4596 28.3073 67.9731 27.543 67.3231 26.8636L64.4325 29.6284ZM100.542 43.408L98.9 42.2665L98.5423 42.7812V43.408H100.542ZM99.7443 53.026L98.0569 51.9522L98.0403 51.9783L98.0246 52.0049L99.7443 53.026ZM92.0163 53.068L90.3079 54.1079L90.3215 54.1303L90.3357 54.1523L92.0163 53.068ZM91.2183 43.282H93.2183V42.6696L92.8753 42.1621L91.2183 43.282ZM85.0023 34.084L86.6593 32.9641L86.6448 32.9426L86.6297 32.9215L85.0023 34.084ZM92.7303 28.96L91.1128 30.1363L91.1205 30.147L91.1284 30.1575L92.7303 28.96ZM95.9643 33.286L94.3624 34.4835L95.9468 36.6029L97.5534 34.5003L95.9643 33.286ZM99.3663 28.834L97.8094 27.5785L97.793 27.5989L97.7771 27.6197L99.3663 28.834ZM107.052 34.042L108.695 35.1835L108.712 35.158L108.729 35.132L107.052 34.042ZM98.5423 43.408V49.498H102.542V43.408H98.5423ZM98.5423 49.498C98.5423 51.0188 98.3621 51.4727 98.0569 51.9522L101.432 54.0998C102.302 52.7313 102.542 51.4212 102.542 49.498H98.5423ZM98.0246 52.0049C97.6 52.72 96.7125 53.21 95.8803 53.21V57.21C98.072 57.21 100.293 56.02 101.464 54.0471L98.0246 52.0049ZM95.8803 53.21C95.0703 53.21 94.181 52.7342 93.6969 51.9837L90.3357 54.1523C91.5315 56.0058 93.6662 57.21 95.8803 57.21V53.21ZM93.7247 52.0281C93.515 51.6836 93.4131 51.441 93.3455 51.1483C93.2691 50.8172 93.2183 50.3395 93.2183 49.498H89.2183C89.2183 50.4625 89.2724 51.2868 89.448 52.0477C89.6324 52.847 89.9295 53.4864 90.3079 54.1079L93.7247 52.0281ZM93.2183 49.498V43.282H89.2183V49.498H93.2183ZM92.8753 42.1621L86.6593 32.9641L83.3452 35.2039L89.5612 44.4019L92.8753 42.1621ZM86.6297 32.9215C86.2394 32.3751 86.0783 31.8147 86.0783 31.27H82.0783C82.0783 32.6573 82.5051 34.0289 83.3748 35.2465L86.6297 32.9215ZM86.0783 31.27C86.0783 29.9325 87.2045 28.776 88.6563 28.776V24.776C85.068 24.776 82.0783 27.6515 82.0783 31.27H86.0783ZM88.6563 28.776C89.5466 28.776 90.4407 29.2122 91.1128 30.1363L94.3477 27.7837C93.0038 25.9358 90.9579 24.776 88.6563 24.776V28.776ZM91.1284 30.1575L94.3624 34.4835L97.5661 32.0885L94.3321 27.7625L91.1284 30.1575ZM97.5534 34.5003L100.955 30.0483L97.7771 27.6197L94.3751 32.0717L97.5534 34.5003ZM100.923 30.0895C101.676 29.1558 102.527 28.776 103.272 28.776V24.776C101.077 24.776 99.1565 25.9082 97.8094 27.5785L100.923 30.0895ZM103.272 28.776C104.7 28.776 105.892 29.9924 105.892 31.354H109.892C109.892 27.7596 106.885 24.776 103.272 24.776V28.776ZM105.892 31.354C105.892 31.8477 105.735 32.3981 105.375 32.952L108.729 35.132C109.461 34.0059 109.892 32.7083 109.892 31.354H105.892ZM105.41 32.9005L98.9 42.2665L102.185 44.5495L108.695 35.1835L105.41 32.9005ZM138.866 37.654L137.314 38.9165L140.866 43.2794V37.654H138.866ZM139.706 28.792L141.347 29.9341L141.363 29.9113L141.379 29.8881L139.706 28.792ZM147.014 28.456L148.582 27.2146L148.564 27.1918L148.545 27.1696L147.014 28.456ZM147.098 53.488L148.683 54.7074L148.69 54.6982L147.098 53.488ZM139.832 53.32L141.419 52.1031L141.414 52.0964L141.408 52.0897L139.832 53.32ZM132.524 43.954L134.1 42.7237L130.524 38.1396V43.954H132.524ZM131.474 53.53L133.005 54.8164L133.024 54.7942L133.042 54.7714L131.474 53.53ZM124.208 53.404L122.585 54.5726L122.606 54.6027L122.629 54.6319L124.208 53.404ZM131.516 28.624L129.959 29.8795L129.964 29.8865L131.516 28.624ZM140.866 37.654V32.446H136.866V37.654H140.866ZM140.866 32.446C140.866 30.7431 141.024 30.3995 141.347 29.9341L138.064 27.6499C137.044 29.1165 136.866 30.4529 136.866 32.446H140.866ZM141.379 29.8881C141.801 29.2426 142.638 28.776 143.486 28.776V24.776C141.309 24.776 139.206 25.9053 138.033 27.6959L141.379 29.8881ZM143.486 28.776C144.242 28.776 144.954 29.114 145.482 29.7424L148.545 27.1696C147.309 25.698 145.501 24.776 143.486 24.776V28.776ZM145.446 29.6974C145.713 30.0356 145.852 30.3055 145.942 30.6062C146.039 30.9342 146.106 31.3945 146.106 32.152H150.106C150.106 31.1875 150.025 30.3038 149.776 29.4663C149.519 28.6015 149.112 27.8844 148.582 27.2146L145.446 29.6974ZM146.106 32.152V49.288H150.106V32.152H146.106ZM146.106 49.288C146.106 50.3693 146.051 50.9634 145.955 51.3665C145.876 51.6995 145.76 51.9429 145.505 52.2778L148.69 54.6982C149.233 53.9831 149.621 53.2395 149.847 52.2915C150.055 51.4136 150.106 50.4327 150.106 49.288H146.106ZM145.512 52.2686C145.077 52.8349 144.336 53.21 143.486 53.21V57.21C145.491 57.21 147.438 56.3251 148.683 54.7074L145.512 52.2686ZM143.486 53.21C142.693 53.21 142.041 52.9151 141.419 52.1031L138.244 54.5369C139.554 56.2449 141.338 57.21 143.486 57.21V53.21ZM141.408 52.0897L134.1 42.7237L130.947 45.1843L138.255 54.5503L141.408 52.0897ZM130.524 43.954V49.834H134.524V43.954H130.524ZM130.524 49.834C130.524 50.6884 130.462 51.1432 130.375 51.4452C130.302 51.702 130.186 51.9344 129.906 52.2886L133.042 54.7714C133.559 54.1176 133.968 53.426 134.22 52.5488C134.459 51.7168 134.524 50.8276 134.524 49.834H130.524ZM129.942 52.2436C129.427 52.8564 128.679 53.21 127.904 53.21V57.21C129.9 57.21 131.756 56.3036 133.005 54.8164L129.942 52.2436ZM127.904 53.21C127.089 53.21 126.287 52.8201 125.786 52.1761L122.629 54.6319C123.892 56.2559 125.862 57.21 127.904 57.21V53.21ZM125.831 52.2354C125.567 51.8695 125.456 51.6282 125.383 51.3309C125.296 50.9733 125.242 50.4448 125.242 49.456H121.242C121.242 50.5252 121.293 51.4457 121.499 52.285C121.72 53.1848 122.092 53.8885 122.585 54.5726L125.831 52.2354ZM125.242 49.456V31.732H121.242V49.456H125.242ZM125.242 31.732C125.242 30.6791 125.575 29.9692 126.001 29.5325C126.423 29.1001 127.09 28.776 128.072 28.776V24.776C126.155 24.776 124.407 25.4389 123.138 26.739C121.874 28.0348 121.242 29.8029 121.242 31.732H125.242ZM128.072 28.776C128.454 28.776 128.723 28.8489 128.964 28.9769C129.222 29.1148 129.549 29.3718 129.959 29.8795L133.072 27.3685C132.432 26.5742 131.709 25.9072 130.844 25.4466C129.961 24.9761 129.033 24.776 128.072 24.776V28.776ZM129.964 29.8865L137.314 38.9165L140.417 36.3915L133.067 27.3615L129.964 29.8865ZM153.688 40.846C153.688 33.9127 159.318 28.314 166.43 28.314V24.314C157.161 24.314 149.688 31.6513 149.688 40.846H153.688ZM166.43 28.314C173.53 28.314 179.214 33.9854 179.214 40.972H183.214C183.214 31.7466 175.709 24.314 166.43 24.314V28.314ZM179.214 40.972C179.214 47.9734 173.473 53.714 166.472 53.714V57.714C175.682 57.714 183.214 50.1826 183.214 40.972H179.214ZM166.472 53.714C159.355 53.714 153.688 48.0266 153.688 40.846H149.688C149.688 50.2135 157.124 57.714 166.472 57.714V53.714ZM158.97 40.972C158.97 45.1129 162.314 48.558 166.472 48.558V44.558C164.582 44.558 162.97 42.9631 162.97 40.972H158.97ZM166.472 48.558C170.62 48.558 173.974 45.1228 173.974 41.014H169.974C169.974 42.9532 168.371 44.558 166.472 44.558V48.558ZM173.974 41.014C173.974 36.8975 170.57 33.596 166.472 33.596V37.596C168.421 37.596 169.974 39.1665 169.974 41.014H173.974ZM166.472 33.596C162.394 33.596 158.97 36.8355 158.97 40.972H162.97C162.97 39.1445 164.502 37.596 166.472 37.596V33.596ZM194.823 37.612L192.979 38.3866L195.028 43.2639L196.718 38.2509L194.823 37.612ZM197.301 30.262L195.407 29.6194L195.406 29.623L197.301 30.262ZM206.373 30.388L204.482 31.04L204.485 31.0492L206.373 30.388ZM208.977 37.822L207.089 38.4832L208.875 43.5819L210.84 38.5493L208.977 37.822ZM212.043 29.968L210.18 29.2392L210.18 29.2407L212.043 29.968ZM220.653 33.538L218.786 32.82L218.781 32.8341L218.775 32.8482L220.653 33.538ZM214.017 51.598L212.139 50.9082L212.136 50.9171L214.017 51.598ZM205.071 51.682L203.176 52.3223L203.18 52.335L205.071 51.682ZM201.963 42.484L203.857 41.8438L201.954 36.211L200.066 41.8489L201.963 42.484ZM198.897 51.64L197 51.0049L196.996 51.0179L198.897 51.64ZM190.119 52.018L191.996 51.3284L191.992 51.3163L191.987 51.3043L190.119 52.018ZM182.979 33.328L184.847 32.6143L184.835 32.5829L184.822 32.5519L182.979 33.328ZM191.841 30.514L189.988 31.2676L189.992 31.2781L189.997 31.2887L191.841 30.514ZM196.718 38.2509L199.196 30.9009L195.406 29.623L192.928 36.973L196.718 38.2509ZM199.195 30.9046C199.508 29.9823 199.888 29.4888 200.237 29.2181C200.568 28.9617 201.037 28.776 201.795 28.776V24.776C200.327 24.776 198.947 25.1573 197.787 26.0559C196.646 26.9402 195.892 28.1897 195.407 29.6194L199.195 30.9046ZM201.795 28.776C202.536 28.776 203.014 28.9633 203.367 29.2408C203.742 29.5356 204.147 30.0688 204.482 31.04L208.263 29.736C207.758 28.2712 206.987 26.9984 205.84 26.0962C204.67 25.1767 203.279 24.776 201.795 24.776V28.776ZM204.485 31.0492L207.089 38.4832L210.864 37.1608L208.26 29.7268L204.485 31.0492ZM210.84 38.5493L213.906 30.6953L210.18 29.2407L207.114 37.0947L210.84 38.5493ZM213.905 30.6968C214.381 29.482 215.438 28.776 216.579 28.776V24.776C213.688 24.776 211.217 26.59 210.18 29.2392L213.905 30.6968ZM216.579 28.776C218.09 28.776 219.199 29.9085 219.199 31.354H223.199C223.199 27.6755 220.275 24.776 216.579 24.776V28.776ZM219.199 31.354C219.199 31.5223 219.183 31.7883 218.786 32.82L222.519 34.256C222.963 33.1037 223.199 32.2777 223.199 31.354H219.199ZM218.775 32.8482L212.139 50.9082L215.894 52.2878L222.53 34.2278L218.775 32.8482ZM212.136 50.9171C211.777 51.9106 211.363 52.4609 210.99 52.7622C210.647 53.0392 210.214 53.21 209.565 53.21V57.21C211.016 57.21 212.367 56.7928 213.505 55.8728C214.613 54.9771 215.375 53.7214 215.897 52.2789L212.136 50.9171ZM209.565 53.21C208.894 53.21 208.416 53.0277 208.048 52.7389C207.663 52.4366 207.266 51.9124 206.961 51.029L203.18 52.335C203.673 53.7616 204.452 55.0014 205.579 55.8856C206.723 56.7833 208.094 57.21 209.565 57.21V53.21ZM206.965 51.0418L203.857 41.8438L200.068 43.1242L203.176 52.3222L206.965 51.0418ZM200.066 41.8489L197 51.0049L200.793 52.2751L203.859 43.1191L200.066 41.8489ZM196.996 51.0179C196.709 51.8953 196.318 52.4283 195.937 52.737C195.574 53.0312 195.113 53.21 194.487 53.21V57.21C195.96 57.21 197.327 56.7588 198.454 55.8455C199.564 54.9467 200.329 53.6947 200.798 52.2621L196.996 51.0179ZM194.487 53.21C193.839 53.21 193.359 53.0371 192.994 52.7708C192.623 52.4995 192.261 52.0499 191.996 51.3284L188.241 52.7076C188.732 54.0441 189.526 55.1905 190.635 56.0007C191.751 56.8159 193.077 57.21 194.487 57.21V53.21ZM191.987 51.3043L184.847 32.6143L181.11 34.0417L188.25 52.7317L191.987 51.3043ZM184.822 32.5519C184.696 32.252 184.591 31.9297 184.52 31.6459C184.442 31.3323 184.433 31.1787 184.433 31.186H180.433C180.433 32.0248 180.75 33.188 181.135 34.1041L184.822 32.5519ZM184.433 31.186C184.433 29.9614 185.527 28.776 187.095 28.776V24.776C183.538 24.776 180.433 27.5386 180.433 31.186H184.433ZM187.095 28.776C187.744 28.776 188.236 28.9561 188.655 29.2866C189.102 29.6385 189.574 30.2495 189.988 31.2676L193.693 29.7604C193.099 28.3005 192.27 27.0425 191.131 26.1449C189.965 25.2259 188.588 24.776 187.095 24.776V28.776ZM189.997 31.2887L192.979 38.3866L196.667 36.8373L193.685 29.7393L189.997 31.2887Z" fill="black" mask="url(#path-2-outside-1_2_3)"/>
</svg>
