<svg width="251" height="82" viewBox="0 0 251 82" fill="none" xmlns="http://www.w3.org/2000/svg">
<rect x="1.5" y="1.5" width="248" height="79" rx="39.5" fill="#FFE8D3" stroke="black" stroke-width="3"/>
<path d="M51.253 40.006C53.479 42.148 54.319 43.996 54.319 46.684C54.319 49.12 53.353 51.262 51.505 52.942C49.699 54.622 48.397 55 44.785 55H37.435C35.419 55 34.495 54.706 33.487 53.614C32.941 53.026 32.521 52.186 32.353 51.43C32.311 51.094 32.269 50.758 32.269 48.952V33.076V31.732C32.311 28.96 34.285 26.986 37.015 26.986H40.963C43.945 26.986 44.953 27.07 46.087 27.322C49.951 28.246 52.555 31.606 52.555 35.722C52.555 37.318 52.261 38.284 51.253 40.006ZM41.467 35.68V37.822H42.559C43.861 37.822 44.281 37.528 44.281 36.772C44.281 35.974 43.777 35.68 42.475 35.68H41.467ZM41.467 44.122V46.39H43.021C44.617 46.39 45.037 46.138 45.037 45.298C45.037 44.458 44.449 44.122 42.979 44.122H41.467ZM67.1378 32.236V43.282C67.1378 45.298 68.0618 46.516 69.6578 46.516C71.2538 46.516 72.1778 45.34 72.1778 43.408V32.236C72.1778 30.178 72.3458 29.548 73.1858 28.54C74.0678 27.448 75.3698 26.776 76.7558 26.776C78.0998 26.776 79.5278 27.448 80.3678 28.456C81.2498 29.506 81.4598 30.346 81.4598 32.866V42.82C81.4598 46.6 80.5358 49.33 78.5198 51.598C76.2518 54.202 72.9758 55.714 69.6578 55.714C65.9198 55.714 62.3498 53.866 60.1238 50.842C58.4018 48.49 57.8558 46.516 57.8558 42.82V32.95C57.8558 30.304 58.0238 29.632 58.8218 28.582C59.7038 27.49 61.1318 26.776 62.4758 26.776C63.7358 26.776 65.0378 27.364 65.8778 28.246C66.8018 29.212 67.1378 30.262 67.1378 32.236ZM100.542 43.408V49.498C100.542 51.22 100.332 52.102 99.7443 53.026C98.9463 54.37 97.3923 55.21 95.8803 55.21C94.3683 55.21 92.8563 54.37 92.0163 53.068C91.4283 52.102 91.2183 51.304 91.2183 49.498V43.282L85.0023 34.084C84.3723 33.202 84.0783 32.236 84.0783 31.27C84.0783 28.792 86.1363 26.776 88.6563 26.776C90.2523 26.776 91.7223 27.574 92.7303 28.96L95.9643 33.286L99.3663 28.834C100.416 27.532 101.802 26.776 103.272 26.776C105.792 26.776 107.892 28.876 107.892 31.354C107.892 32.278 107.598 33.202 107.052 34.042L100.542 43.408ZM138.866 37.654V32.446C138.866 30.598 139.034 29.758 139.706 28.792C140.504 27.574 141.974 26.776 143.486 26.776C144.872 26.776 146.132 27.406 147.014 28.456C147.812 29.464 148.106 30.43 148.106 32.152V49.288C148.106 51.514 147.896 52.438 147.098 53.488C146.258 54.58 144.914 55.21 143.486 55.21C142.016 55.21 140.798 54.58 139.832 53.32L132.524 43.954V49.834C132.524 51.682 132.272 52.522 131.474 53.53C130.592 54.58 129.29 55.21 127.904 55.21C126.476 55.21 125.09 54.538 124.208 53.404C123.452 52.354 123.242 51.514 123.242 49.456V31.732C123.242 28.75 125.174 26.776 128.072 26.776C129.416 26.776 130.466 27.322 131.516 28.624L138.866 37.654ZM151.688 40.846C151.688 32.782 158.24 26.314 166.43 26.314C174.62 26.314 181.214 32.866 181.214 40.972C181.214 49.078 174.578 55.714 166.472 55.714C158.24 55.714 151.688 49.12 151.688 40.846ZM160.97 40.972C160.97 44.038 163.448 46.558 166.472 46.558C169.496 46.558 171.974 44.038 171.974 41.014C171.974 38.032 169.496 35.596 166.472 35.596C163.448 35.596 160.97 37.99 160.97 40.972ZM194.823 37.612L197.301 30.262C198.099 27.91 199.569 26.776 201.795 26.776C204.021 26.776 205.533 27.952 206.373 30.388L208.977 37.822L212.043 29.968C212.799 28.036 214.563 26.776 216.579 26.776C219.183 26.776 221.199 28.792 221.199 31.354C221.199 31.9 221.073 32.446 220.653 33.538L214.017 51.598C213.135 54.034 211.665 55.21 209.565 55.21C207.423 55.21 205.869 53.992 205.071 51.682L201.963 42.484L198.897 51.64C198.141 53.95 196.587 55.21 194.487 55.21C192.429 55.21 190.875 54.076 190.119 52.018L182.979 33.328C182.643 32.53 182.433 31.648 182.433 31.186C182.433 28.75 184.533 26.776 187.095 26.776C189.237 26.776 190.833 28.036 191.841 30.514L194.823 37.612Z" fill="black"/>
</svg>
