<svg width="307" height="82" viewBox="0 0 307 82" fill="none" xmlns="http://www.w3.org/2000/svg">
<rect x="12.5713" y="1.5" width="280" height="79" rx="39.5" fill="black" stroke="black" stroke-width="3"/>
<mask id="path-2-outside-1_2_127" maskUnits="userSpaceOnUse" x="72" y="24" width="163" height="34" fill="black">
<rect fill="white" x="72" y="24" width="163" height="34"/>
<path d="M74.8991 40.846C74.8991 32.782 81.4511 26.314 89.6411 26.314C97.8311 26.314 104.425 32.866 104.425 40.972C104.425 49.078 97.7891 55.714 89.6831 55.714C81.4511 55.714 74.8991 49.12 74.8991 40.846ZM84.1811 40.972C84.1811 44.038 86.6591 46.558 89.6831 46.558C92.7071 46.558 95.1851 44.038 95.1851 41.014C95.1851 38.032 92.7071 35.596 89.6831 35.596C86.6591 35.596 84.1811 37.99 84.1811 40.972ZM126.414 44.206L128.598 47.692C129.186 48.616 129.48 49.708 129.48 50.674C129.48 53.236 127.464 55.21 124.86 55.21C123.222 55.21 121.878 54.454 121.038 53.068L117.216 46.726V50.548C117.216 53.194 115.242 55.21 112.68 55.21C111.294 55.21 109.908 54.58 109.068 53.53C108.312 52.564 107.976 51.346 107.976 49.582V32.32C107.976 30.304 108.396 29.17 109.488 28.204C110.538 27.28 111.462 26.986 113.688 26.986H117.552C119.82 26.986 120.828 27.112 122.046 27.406C126.372 28.624 129.396 32.53 129.396 37.066C129.396 39.754 128.556 41.812 126.414 44.206ZM117.216 35.554V38.578H117.594C117.846 38.578 118.056 38.578 118.224 38.578C119.61 38.62 120.324 38.116 120.324 37.108C120.324 36.1 119.568 35.554 118.182 35.596C117.972 35.596 117.636 35.596 117.216 35.554ZM154.909 46.348H159.151C161.167 46.348 162.049 46.6 163.015 47.398C163.981 48.238 164.527 49.414 164.527 50.674C164.527 51.976 163.939 53.236 163.015 54.034C162.091 54.79 161.293 55 159.193 55H152.011C149.869 55 149.281 54.916 148.483 54.622C147.055 54.034 146.131 52.9 145.837 51.262C145.711 50.674 145.669 50.422 145.669 48.49V33.286C145.669 30.934 145.711 30.64 146.089 29.758C146.467 28.708 147.349 27.868 148.315 27.448C149.365 27.028 149.575 26.986 152.305 26.986H157.849C160.495 26.986 160.747 27.028 161.377 27.196C163.309 27.7 164.569 29.296 164.569 31.228C164.569 32.572 164.023 33.832 163.057 34.63C162.217 35.344 161.251 35.638 159.529 35.638H154.909V37.57H158.563C160.831 37.57 162.301 38.914 162.301 40.888C162.301 41.938 161.839 42.904 161.083 43.534C160.369 44.08 159.697 44.248 158.227 44.248H154.909V46.348ZM177.058 46.348H181.594C183.148 46.348 184.03 46.6 184.87 47.188C185.962 47.986 186.634 49.288 186.634 50.632C186.634 51.85 186.088 53.152 185.206 53.95C184.366 54.706 183.4 55 181.804 55H172.984C171.136 55 169.918 54.538 169.078 53.53C167.944 52.27 167.818 51.64 167.818 47.776V31.984C167.818 28.834 169.624 26.776 172.396 26.776C173.824 26.776 175.21 27.448 176.008 28.456C176.848 29.59 177.058 30.43 177.058 33.076V46.348ZM199.341 55.714C193.377 55.714 188.799 52.606 188.799 48.616C188.799 46.264 190.647 44.416 192.999 44.416C194.133 44.416 195.099 44.794 196.275 45.76C198.291 47.314 198.543 47.482 199.215 47.482C199.929 47.482 200.391 46.978 200.391 46.264C200.391 45.76 200.181 45.424 199.677 45.088C199.425 44.92 199.299 44.836 197.829 44.29C197.073 44.038 196.317 43.786 195.561 43.492C191.487 42.064 189.471 39.418 189.471 35.512C189.471 30.052 193.671 26.314 199.761 26.314C204.801 26.314 208.749 29.002 208.749 32.446C208.749 34.672 207.237 36.268 205.137 36.268C203.877 36.268 202.869 35.848 201.315 34.672C200.349 33.874 199.887 33.664 199.383 33.664C198.795 33.664 198.291 34.168 198.291 34.756C198.291 35.596 198.879 35.974 201.063 36.688C203.457 37.402 205.725 38.536 207.027 39.628C208.749 41.056 209.841 43.576 209.841 46.222C209.841 48.742 208.875 51.178 207.195 52.9C205.305 54.79 202.785 55.714 199.341 55.714ZM222.503 46.348H226.745C228.761 46.348 229.643 46.6 230.609 47.398C231.575 48.238 232.121 49.414 232.121 50.674C232.121 51.976 231.533 53.236 230.609 54.034C229.685 54.79 228.887 55 226.787 55H219.605C217.463 55 216.875 54.916 216.077 54.622C214.649 54.034 213.725 52.9 213.431 51.262C213.305 50.674 213.263 50.422 213.263 48.49V33.286C213.263 30.934 213.305 30.64 213.683 29.758C214.061 28.708 214.943 27.868 215.909 27.448C216.959 27.028 217.169 26.986 219.899 26.986H225.443C228.089 26.986 228.341 27.028 228.971 27.196C230.903 27.7 232.163 29.296 232.163 31.228C232.163 32.572 231.617 33.832 230.651 34.63C229.811 35.344 228.845 35.638 227.123 35.638H222.503V37.57H226.157C228.425 37.57 229.895 38.914 229.895 40.888C229.895 41.938 229.433 42.904 228.677 43.534C227.963 44.08 227.291 44.248 225.821 44.248H222.503V46.348Z"/>
</mask>
<path d="M74.8991 40.846C74.8991 32.782 81.4511 26.314 89.6411 26.314C97.8311 26.314 104.425 32.866 104.425 40.972C104.425 49.078 97.7891 55.714 89.6831 55.714C81.4511 55.714 74.8991 49.12 74.8991 40.846ZM84.1811 40.972C84.1811 44.038 86.6591 46.558 89.6831 46.558C92.7071 46.558 95.1851 44.038 95.1851 41.014C95.1851 38.032 92.7071 35.596 89.6831 35.596C86.6591 35.596 84.1811 37.99 84.1811 40.972ZM126.414 44.206L128.598 47.692C129.186 48.616 129.48 49.708 129.48 50.674C129.48 53.236 127.464 55.21 124.86 55.21C123.222 55.21 121.878 54.454 121.038 53.068L117.216 46.726V50.548C117.216 53.194 115.242 55.21 112.68 55.21C111.294 55.21 109.908 54.58 109.068 53.53C108.312 52.564 107.976 51.346 107.976 49.582V32.32C107.976 30.304 108.396 29.17 109.488 28.204C110.538 27.28 111.462 26.986 113.688 26.986H117.552C119.82 26.986 120.828 27.112 122.046 27.406C126.372 28.624 129.396 32.53 129.396 37.066C129.396 39.754 128.556 41.812 126.414 44.206ZM117.216 35.554V38.578H117.594C117.846 38.578 118.056 38.578 118.224 38.578C119.61 38.62 120.324 38.116 120.324 37.108C120.324 36.1 119.568 35.554 118.182 35.596C117.972 35.596 117.636 35.596 117.216 35.554ZM154.909 46.348H159.151C161.167 46.348 162.049 46.6 163.015 47.398C163.981 48.238 164.527 49.414 164.527 50.674C164.527 51.976 163.939 53.236 163.015 54.034C162.091 54.79 161.293 55 159.193 55H152.011C149.869 55 149.281 54.916 148.483 54.622C147.055 54.034 146.131 52.9 145.837 51.262C145.711 50.674 145.669 50.422 145.669 48.49V33.286C145.669 30.934 145.711 30.64 146.089 29.758C146.467 28.708 147.349 27.868 148.315 27.448C149.365 27.028 149.575 26.986 152.305 26.986H157.849C160.495 26.986 160.747 27.028 161.377 27.196C163.309 27.7 164.569 29.296 164.569 31.228C164.569 32.572 164.023 33.832 163.057 34.63C162.217 35.344 161.251 35.638 159.529 35.638H154.909V37.57H158.563C160.831 37.57 162.301 38.914 162.301 40.888C162.301 41.938 161.839 42.904 161.083 43.534C160.369 44.08 159.697 44.248 158.227 44.248H154.909V46.348ZM177.058 46.348H181.594C183.148 46.348 184.03 46.6 184.87 47.188C185.962 47.986 186.634 49.288 186.634 50.632C186.634 51.85 186.088 53.152 185.206 53.95C184.366 54.706 183.4 55 181.804 55H172.984C171.136 55 169.918 54.538 169.078 53.53C167.944 52.27 167.818 51.64 167.818 47.776V31.984C167.818 28.834 169.624 26.776 172.396 26.776C173.824 26.776 175.21 27.448 176.008 28.456C176.848 29.59 177.058 30.43 177.058 33.076V46.348ZM199.341 55.714C193.377 55.714 188.799 52.606 188.799 48.616C188.799 46.264 190.647 44.416 192.999 44.416C194.133 44.416 195.099 44.794 196.275 45.76C198.291 47.314 198.543 47.482 199.215 47.482C199.929 47.482 200.391 46.978 200.391 46.264C200.391 45.76 200.181 45.424 199.677 45.088C199.425 44.92 199.299 44.836 197.829 44.29C197.073 44.038 196.317 43.786 195.561 43.492C191.487 42.064 189.471 39.418 189.471 35.512C189.471 30.052 193.671 26.314 199.761 26.314C204.801 26.314 208.749 29.002 208.749 32.446C208.749 34.672 207.237 36.268 205.137 36.268C203.877 36.268 202.869 35.848 201.315 34.672C200.349 33.874 199.887 33.664 199.383 33.664C198.795 33.664 198.291 34.168 198.291 34.756C198.291 35.596 198.879 35.974 201.063 36.688C203.457 37.402 205.725 38.536 207.027 39.628C208.749 41.056 209.841 43.576 209.841 46.222C209.841 48.742 208.875 51.178 207.195 52.9C205.305 54.79 202.785 55.714 199.341 55.714ZM222.503 46.348H226.745C228.761 46.348 229.643 46.6 230.609 47.398C231.575 48.238 232.121 49.414 232.121 50.674C232.121 51.976 231.533 53.236 230.609 54.034C229.685 54.79 228.887 55 226.787 55H219.605C217.463 55 216.875 54.916 216.077 54.622C214.649 54.034 213.725 52.9 213.431 51.262C213.305 50.674 213.263 50.422 213.263 48.49V33.286C213.263 30.934 213.305 30.64 213.683 29.758C214.061 28.708 214.943 27.868 215.909 27.448C216.959 27.028 217.169 26.986 219.899 26.986H225.443C228.089 26.986 228.341 27.028 228.971 27.196C230.903 27.7 232.163 29.296 232.163 31.228C232.163 32.572 231.617 33.832 230.651 34.63C229.811 35.344 228.845 35.638 227.123 35.638H222.503V37.57H226.157C228.425 37.57 229.895 38.914 229.895 40.888C229.895 41.938 229.433 42.904 228.677 43.534C227.963 44.08 227.291 44.248 225.821 44.248H222.503V46.348Z" fill="white"/>
<path d="M76.8991 40.846C76.8991 33.9127 82.5294 28.314 89.6411 28.314V24.314C80.3728 24.314 72.8991 31.6513 72.8991 40.846H76.8991ZM89.6411 28.314C96.7414 28.314 102.425 33.9854 102.425 40.972H106.425C106.425 31.7466 98.9208 24.314 89.6411 24.314V28.314ZM102.425 40.972C102.425 47.9734 96.6845 53.714 89.6831 53.714V57.714C98.8937 57.714 106.425 50.1826 106.425 40.972H102.425ZM89.6831 53.714C82.5667 53.714 76.8991 48.0266 76.8991 40.846H72.8991C72.8991 50.2135 80.3354 57.714 89.6831 57.714V53.714ZM82.1811 40.972C82.1811 45.1129 85.5251 48.558 89.6831 48.558V44.558C87.7931 44.558 86.1811 42.9631 86.1811 40.972H82.1811ZM89.6831 48.558C93.8314 48.558 97.1851 45.1228 97.1851 41.014H93.1851C93.1851 42.9532 91.5828 44.558 89.6831 44.558V48.558ZM97.1851 41.014C97.1851 36.8975 93.7815 33.596 89.6831 33.596V37.596C91.6327 37.596 93.1851 39.1665 93.1851 41.014H97.1851ZM89.6831 33.596C85.6051 33.596 82.1811 36.8355 82.1811 40.972H86.1811C86.1811 39.1445 87.7131 37.596 89.6831 37.596V33.596ZM126.414 44.206L124.924 42.8724L123.921 43.9933L124.72 45.2678L126.414 44.206ZM128.598 47.692L126.904 48.7539L126.911 48.7658L128.598 47.692ZM121.038 53.068L119.325 54.1003L119.328 54.1046L121.038 53.068ZM117.216 46.726L118.929 45.6937L115.216 39.5326V46.726H117.216ZM109.068 53.53L107.493 54.7626L107.5 54.771L107.507 54.7794L109.068 53.53ZM109.488 28.204L108.167 26.7026L108.163 26.706L109.488 28.204ZM122.046 27.406L122.588 25.4809L122.552 25.4707L122.516 25.4618L122.046 27.406ZM117.216 35.554L117.415 33.5639L115.216 33.344V35.554H117.216ZM117.216 38.578H115.216V40.578H117.216V38.578ZM118.224 38.578L118.285 36.5789L118.255 36.578H118.224V38.578ZM118.182 35.596V37.596H118.213L118.243 37.5951L118.182 35.596ZM124.72 45.2678L126.904 48.7538L130.293 46.6302L128.109 43.1442L124.72 45.2678ZM126.911 48.7658C127.291 49.3634 127.48 50.0818 127.48 50.674H131.48C131.48 49.3342 131.081 47.8686 130.286 46.6182L126.911 48.7658ZM127.48 50.674C127.48 52.0955 126.396 53.21 124.86 53.21V57.21C128.533 57.21 131.48 54.3765 131.48 50.674H127.48ZM124.86 53.21C123.916 53.21 123.224 52.8148 122.749 52.0314L119.328 54.1046C120.533 56.0932 122.528 57.21 124.86 57.21V53.21ZM122.751 52.0357L118.929 45.6937L115.503 47.7583L119.325 54.1003L122.751 52.0357ZM115.216 46.726V50.548H119.216V46.726H115.216ZM115.216 50.548C115.216 52.1378 114.09 53.21 112.68 53.21V57.21C116.395 57.21 119.216 54.2502 119.216 50.548H115.216ZM112.68 53.21C111.857 53.21 111.063 52.8219 110.63 52.2806L107.507 54.7794C108.754 56.3381 110.732 57.21 112.68 57.21V53.21ZM110.643 52.2974C110.261 51.8091 109.976 51.0908 109.976 49.582H105.976C105.976 51.6012 106.364 53.3189 107.493 54.7626L110.643 52.2974ZM109.976 49.582V32.32H105.976V49.582H109.976ZM109.976 32.32C109.976 31.4344 110.071 30.9081 110.2 30.559C110.314 30.2497 110.485 29.9929 110.814 29.702L108.163 26.706C107.4 27.3811 106.815 28.1743 106.446 29.1775C106.091 30.1409 105.976 31.1896 105.976 32.32H109.976ZM110.81 29.7054C111.171 29.3874 111.414 29.255 111.713 29.1667C112.076 29.0598 112.634 28.986 113.688 28.986V24.986C112.516 24.986 111.5 25.0592 110.581 25.3303C109.599 25.62 108.856 26.0966 108.167 26.7026L110.81 29.7054ZM113.688 28.986H117.552V24.986H113.688V28.986ZM117.552 28.986C119.719 28.986 120.56 29.1045 121.577 29.3502L122.516 25.4618C121.097 25.1195 119.922 24.986 117.552 24.986V28.986ZM121.504 29.3311C124.983 30.3106 127.396 33.4414 127.396 37.066H131.396C131.396 31.6186 127.762 26.9374 122.588 25.4809L121.504 29.3311ZM127.396 37.066C127.396 39.1826 126.795 40.7814 124.924 42.8724L127.905 45.5396C130.318 42.8426 131.396 40.3254 131.396 37.066H127.396ZM115.216 35.554V38.578H119.216V35.554H115.216ZM117.216 40.578H117.594V36.578H117.216V40.578ZM117.594 40.578C117.595 40.578 117.595 40.578 117.596 40.578C117.596 40.578 117.597 40.578 117.597 40.578C117.598 40.578 117.598 40.578 117.599 40.578C117.599 40.578 117.6 40.578 117.6 40.578C117.601 40.578 117.601 40.578 117.602 40.578C117.602 40.578 117.603 40.578 117.603 40.578C117.604 40.578 117.604 40.578 117.605 40.578C117.605 40.578 117.606 40.578 117.606 40.578C117.607 40.578 117.607 40.578 117.608 40.578C117.608 40.578 117.609 40.578 117.609 40.578C117.61 40.578 117.61 40.578 117.611 40.578C117.611 40.578 117.612 40.578 117.612 40.578C117.613 40.578 117.613 40.578 117.614 40.578C117.614 40.578 117.614 40.578 117.615 40.578C117.615 40.578 117.616 40.578 117.616 40.578C117.617 40.578 117.617 40.578 117.618 40.578C117.618 40.578 117.619 40.578 117.619 40.578C117.62 40.578 117.62 40.578 117.621 40.578C117.621 40.578 117.622 40.578 117.622 40.578C117.623 40.578 117.623 40.578 117.624 40.578C117.624 40.578 117.625 40.578 117.625 40.578C117.626 40.578 117.626 40.578 117.627 40.578C117.627 40.578 117.628 40.578 117.628 40.578C117.629 40.578 117.629 40.578 117.63 40.578C117.63 40.578 117.631 40.578 117.631 40.578C117.631 40.578 117.632 40.578 117.632 40.578C117.633 40.578 117.633 40.578 117.634 40.578C117.634 40.578 117.635 40.578 117.635 40.578C117.636 40.578 117.636 40.578 117.637 40.578C117.637 40.578 117.638 40.578 117.638 40.578C117.639 40.578 117.639 40.578 117.64 40.578C117.64 40.578 117.641 40.578 117.641 40.578C117.642 40.578 117.642 40.578 117.643 40.578C117.643 40.578 117.644 40.578 117.644 40.578C117.645 40.578 117.645 40.578 117.645 40.578C117.646 40.578 117.646 40.578 117.647 40.578C117.647 40.578 117.648 40.578 117.648 40.578C117.649 40.578 117.649 40.578 117.65 40.578C117.65 40.578 117.651 40.578 117.651 40.578C117.652 40.578 117.652 40.578 117.653 40.578C117.653 40.578 117.654 40.578 117.654 40.578C117.655 40.578 117.655 40.578 117.656 40.578C117.656 40.578 117.657 40.578 117.657 40.578C117.657 40.578 117.658 40.578 117.658 40.578C117.659 40.578 117.659 40.578 117.66 40.578C117.66 40.578 117.661 40.578 117.661 40.578C117.662 40.578 117.662 40.578 117.663 40.578C117.663 40.578 117.664 40.578 117.664 40.578C117.665 40.578 117.665 40.578 117.666 40.578C117.666 40.578 117.667 40.578 117.667 40.578C117.667 40.578 117.668 40.578 117.668 40.578C117.669 40.578 117.669 40.578 117.67 40.578C117.67 40.578 117.671 40.578 117.671 40.578C117.672 40.578 117.672 40.578 117.673 40.578C117.673 40.578 117.674 40.578 117.674 40.578C117.675 40.578 117.675 40.578 117.676 40.578C117.676 40.578 117.677 40.578 117.677 40.578C117.677 40.578 117.678 40.578 117.678 40.578C117.679 40.578 117.679 40.578 117.68 40.578C117.68 40.578 117.681 40.578 117.681 40.578C117.682 40.578 117.682 40.578 117.683 40.578C117.683 40.578 117.684 40.578 117.684 40.578C117.685 40.578 117.685 40.578 117.686 40.578C117.686 40.578 117.686 40.578 117.687 40.578C117.687 40.578 117.688 40.578 117.688 40.578C117.689 40.578 117.689 40.578 117.69 40.578C117.69 40.578 117.691 40.578 117.691 40.578C117.692 40.578 117.692 40.578 117.693 40.578C117.693 40.578 117.694 40.578 117.694 40.578C117.694 40.578 117.695 40.578 117.695 40.578C117.696 40.578 117.696 40.578 117.697 40.578C117.697 40.578 117.698 40.578 117.698 40.578C117.699 40.578 117.699 40.578 117.7 40.578C117.7 40.578 117.701 40.578 117.701 40.578C117.701 40.578 117.702 40.578 117.702 40.578C117.703 40.578 117.703 40.578 117.704 40.578C117.704 40.578 117.705 40.578 117.705 40.578C117.706 40.578 117.706 40.578 117.707 40.578C117.707 40.578 117.708 40.578 117.708 40.578C117.709 40.578 117.709 40.578 117.709 40.578C117.71 40.578 117.71 40.578 117.711 40.578C117.711 40.578 117.712 40.578 117.712 40.578C117.713 40.578 117.713 40.578 117.714 40.578C117.714 40.578 117.715 40.578 117.715 40.578C117.715 40.578 117.716 40.578 117.716 40.578C117.717 40.578 117.717 40.578 117.718 40.578C117.718 40.578 117.719 40.578 117.719 40.578C117.72 40.578 117.72 40.578 117.721 40.578C117.721 40.578 117.722 40.578 117.722 40.578C117.722 40.578 117.723 40.578 117.723 40.578C117.724 40.578 117.724 40.578 117.725 40.578C117.725 40.578 117.726 40.578 117.726 40.578C117.727 40.578 117.727 40.578 117.728 40.578C117.728 40.578 117.728 40.578 117.729 40.578C117.729 40.578 117.73 40.578 117.73 40.578C117.731 40.578 117.731 40.578 117.732 40.578C117.732 40.578 117.733 40.578 117.733 40.578C117.734 40.578 117.734 40.578 117.734 40.578C117.735 40.578 117.735 40.578 117.736 40.578C117.736 40.578 117.737 40.578 117.737 40.578C117.738 40.578 117.738 40.578 117.739 40.578C117.739 40.578 117.74 40.578 117.74 40.578C117.74 40.578 117.741 40.578 117.741 40.578C117.742 40.578 117.742 40.578 117.743 40.578C117.743 40.578 117.744 40.578 117.744 40.578C117.745 40.578 117.745 40.578 117.746 40.578C117.746 40.578 117.746 40.578 117.747 40.578C117.747 40.578 117.748 40.578 117.748 40.578C117.749 40.578 117.749 40.578 117.75 40.578C117.75 40.578 117.751 40.578 117.751 40.578C117.751 40.578 117.752 40.578 117.752 40.578C117.753 40.578 117.753 40.578 117.754 40.578C117.754 40.578 117.755 40.578 117.755 40.578C117.756 40.578 117.756 40.578 117.756 40.578C117.757 40.578 117.757 40.578 117.758 40.578C117.758 40.578 117.759 40.578 117.759 40.578C117.76 40.578 117.76 40.578 117.761 40.578C117.761 40.578 117.761 40.578 117.762 40.578C117.762 40.578 117.763 40.578 117.763 40.578C117.764 40.578 117.764 40.578 117.765 40.578C117.765 40.578 117.766 40.578 117.766 40.578C117.766 40.578 117.767 40.578 117.767 40.578C117.768 40.578 117.768 40.578 117.769 40.578C117.769 40.578 117.77 40.578 117.77 40.578C117.771 40.578 117.771 40.578 117.771 40.578C117.772 40.578 117.772 40.578 117.773 40.578C117.773 40.578 117.774 40.578 117.774 40.578C117.775 40.578 117.775 40.578 117.776 40.578C117.776 40.578 117.776 40.578 117.777 40.578C117.777 40.578 117.778 40.578 117.778 40.578C117.779 40.578 117.779 40.578 117.78 40.578C117.78 40.578 117.78 40.578 117.781 40.578C117.781 40.578 117.782 40.578 117.782 40.578C117.783 40.578 117.783 40.578 117.784 40.578C117.784 40.578 117.785 40.578 117.785 40.578C117.785 40.578 117.786 40.578 117.786 40.578C117.787 40.578 117.787 40.578 117.788 40.578C117.788 40.578 117.789 40.578 117.789 40.578C117.789 40.578 117.79 40.578 117.79 40.578C117.791 40.578 117.791 40.578 117.792 40.578C117.792 40.578 117.793 40.578 117.793 40.578C117.793 40.578 117.794 40.578 117.794 40.578C117.795 40.578 117.795 40.578 117.796 40.578C117.796 40.578 117.797 40.578 117.797 40.578C117.797 40.578 117.798 40.578 117.798 40.578C117.799 40.578 117.799 40.578 117.8 40.578C117.8 40.578 117.801 40.578 117.801 40.578C117.802 40.578 117.802 40.578 117.802 40.578C117.803 40.578 117.803 40.578 117.804 40.578C117.804 40.578 117.805 40.578 117.805 40.578C117.806 40.578 117.806 40.578 117.806 40.578C117.807 40.578 117.807 40.578 117.808 40.578C117.808 40.578 117.809 40.578 117.809 40.578C117.809 40.578 117.81 40.578 117.81 40.578C117.811 40.578 117.811 40.578 117.812 40.578C117.812 40.578 117.813 40.578 117.813 40.578C117.813 40.578 117.814 40.578 117.814 40.578C117.815 40.578 117.815 40.578 117.816 40.578C117.816 40.578 117.817 40.578 117.817 40.578C117.817 40.578 117.818 40.578 117.818 40.578C117.819 40.578 117.819 40.578 117.82 40.578C117.82 40.578 117.821 40.578 117.821 40.578C117.821 40.578 117.822 40.578 117.822 40.578C117.823 40.578 117.823 40.578 117.824 40.578C117.824 40.578 117.824 40.578 117.825 40.578C117.825 40.578 117.826 40.578 117.826 40.578C117.827 40.578 117.827 40.578 117.828 40.578C117.828 40.578 117.828 40.578 117.829 40.578C117.829 40.578 117.83 40.578 117.83 40.578C117.831 40.578 117.831 40.578 117.832 40.578C117.832 40.578 117.832 40.578 117.833 40.578C117.833 40.578 117.834 40.578 117.834 40.578C117.835 40.578 117.835 40.578 117.835 40.578C117.836 40.578 117.836 40.578 117.837 40.578C117.837 40.578 117.838 40.578 117.838 40.578C117.839 40.578 117.839 40.578 117.839 40.578C117.84 40.578 117.84 40.578 117.841 40.578C117.841 40.578 117.842 40.578 117.842 40.578C117.842 40.578 117.843 40.578 117.843 40.578C117.844 40.578 117.844 40.578 117.845 40.578C117.845 40.578 117.845 40.578 117.846 40.578C117.846 40.578 117.847 40.578 117.847 40.578C117.848 40.578 117.848 40.578 117.849 40.578C117.849 40.578 117.849 40.578 117.85 40.578C117.85 40.578 117.851 40.578 117.851 40.578C117.852 40.578 117.852 40.578 117.852 40.578C117.853 40.578 117.853 40.578 117.854 40.578C117.854 40.578 117.855 40.578 117.855 40.578C117.855 40.578 117.856 40.578 117.856 40.578C117.857 40.578 117.857 40.578 117.858 40.578C117.858 40.578 117.858 40.578 117.859 40.578C117.859 40.578 117.86 40.578 117.86 40.578C117.861 40.578 117.861 40.578 117.861 40.578C117.862 40.578 117.862 40.578 117.863 40.578C117.863 40.578 117.864 40.578 117.864 40.578C117.864 40.578 117.865 40.578 117.865 40.578C117.866 40.578 117.866 40.578 117.867 40.578C117.867 40.578 117.867 40.578 117.868 40.578C117.868 40.578 117.869 40.578 117.869 40.578C117.87 40.578 117.87 40.578 117.87 40.578C117.871 40.578 117.871 40.578 117.872 40.578C117.872 40.578 117.873 40.578 117.873 40.578C117.873 40.578 117.874 40.578 117.874 40.578C117.875 40.578 117.875 40.578 117.876 40.578C117.876 40.578 117.876 40.578 117.877 40.578C117.877 40.578 117.878 40.578 117.878 40.578C117.879 40.578 117.879 40.578 117.879 40.578C117.88 40.578 117.88 40.578 117.881 40.578C117.881 40.578 117.882 40.578 117.882 40.578C117.882 40.578 117.883 40.578 117.883 40.578C117.884 40.578 117.884 40.578 117.885 40.578C117.885 40.578 117.885 40.578 117.886 40.578C117.886 40.578 117.887 40.578 117.887 40.578C117.888 40.578 117.888 40.578 117.888 40.578C117.889 40.578 117.889 40.578 117.89 40.578C117.89 40.578 117.89 40.578 117.891 40.578C117.891 40.578 117.892 40.578 117.892 40.578C117.893 40.578 117.893 40.578 117.893 40.578C117.894 40.578 117.894 40.578 117.895 40.578C117.895 40.578 117.896 40.578 117.896 40.578C117.896 40.578 117.897 40.578 117.897 40.578C117.898 40.578 117.898 40.578 117.898 40.578C117.899 40.578 117.899 40.578 117.9 40.578C117.9 40.578 117.901 40.578 117.901 40.578C117.901 40.578 117.902 40.578 117.902 40.578C117.903 40.578 117.903 40.578 117.904 40.578C117.904 40.578 117.904 40.578 117.905 40.578C117.905 40.578 117.906 40.578 117.906 40.578C117.906 40.578 117.907 40.578 117.907 40.578C117.908 40.578 117.908 40.578 117.909 40.578C117.909 40.578 117.909 40.578 117.91 40.578C117.91 40.578 117.911 40.578 117.911 40.578C117.911 40.578 117.912 40.578 117.912 40.578C117.913 40.578 117.913 40.578 117.914 40.578C117.914 40.578 117.914 40.578 117.915 40.578C117.915 40.578 117.916 40.578 117.916 40.578C117.917 40.578 117.917 40.578 117.917 40.578C117.918 40.578 117.918 40.578 117.919 40.578C117.919 40.578 117.919 40.578 117.92 40.578C117.92 40.578 117.921 40.578 117.921 40.578C117.921 40.578 117.922 40.578 117.922 40.578C117.923 40.578 117.923 40.578 117.924 40.578C117.924 40.578 117.924 40.578 117.925 40.578C117.925 40.578 117.926 40.578 117.926 40.578C117.926 40.578 117.927 40.578 117.927 40.578C117.928 40.578 117.928 40.578 117.929 40.578C117.929 40.578 117.929 40.578 117.93 40.578C117.93 40.578 117.931 40.578 117.931 40.578C117.931 40.578 117.932 40.578 117.932 40.578C117.933 40.578 117.933 40.578 117.933 40.578C117.934 40.578 117.934 40.578 117.935 40.578C117.935 40.578 117.936 40.578 117.936 40.578C117.936 40.578 117.937 40.578 117.937 40.578C117.938 40.578 117.938 40.578 117.938 40.578C117.939 40.578 117.939 40.578 117.94 40.578C117.94 40.578 117.94 40.578 117.941 40.578C117.941 40.578 117.942 40.578 117.942 40.578C117.943 40.578 117.943 40.578 117.943 40.578C117.944 40.578 117.944 40.578 117.945 40.578C117.945 40.578 117.945 40.578 117.946 40.578C117.946 40.578 117.947 40.578 117.947 40.578C117.947 40.578 117.948 40.578 117.948 40.578C117.949 40.578 117.949 40.578 117.949 40.578C117.95 40.578 117.95 40.578 117.951 40.578C117.951 40.578 117.952 40.578 117.952 40.578C117.952 40.578 117.953 40.578 117.953 40.578C117.954 40.578 117.954 40.578 117.954 40.578C117.955 40.578 117.955 40.578 117.956 40.578C117.956 40.578 117.956 40.578 117.957 40.578C117.957 40.578 117.958 40.578 117.958 40.578C117.958 40.578 117.959 40.578 117.959 40.578C117.96 40.578 117.96 40.578 117.96 40.578C117.961 40.578 117.961 40.578 117.962 40.578C117.962 40.578 117.962 40.578 117.963 40.578C117.963 40.578 117.964 40.578 117.964 40.578C117.965 40.578 117.965 40.578 117.965 40.578C117.966 40.578 117.966 40.578 117.967 40.578C117.967 40.578 117.967 40.578 117.968 40.578C117.968 40.578 117.969 40.578 117.969 40.578C117.969 40.578 117.97 40.578 117.97 40.578C117.971 40.578 117.971 40.578 117.971 40.578C117.972 40.578 117.972 40.578 117.973 40.578C117.973 40.578 117.973 40.578 117.974 40.578C117.974 40.578 117.975 40.578 117.975 40.578C117.975 40.578 117.976 40.578 117.976 40.578C117.977 40.578 117.977 40.578 117.977 40.578C117.978 40.578 117.978 40.578 117.979 40.578C117.979 40.578 117.979 40.578 117.98 40.578C117.98 40.578 117.981 40.578 117.981 40.578C117.981 40.578 117.982 40.578 117.982 40.578C117.983 40.578 117.983 40.578 117.983 40.578C117.984 40.578 117.984 40.578 117.985 40.578C117.985 40.578 117.985 40.578 117.986 40.578C117.986 40.578 117.987 40.578 117.987 40.578C117.987 40.578 117.988 40.578 117.988 40.578C117.989 40.578 117.989 40.578 117.989 40.578C117.99 40.578 117.99 40.578 117.991 40.578C117.991 40.578 117.991 40.578 117.992 40.578C117.992 40.578 117.993 40.578 117.993 40.578C117.993 40.578 117.994 40.578 117.994 40.578C117.994 40.578 117.995 40.578 117.995 40.578C117.996 40.578 117.996 40.578 117.996 40.578C117.997 40.578 117.997 40.578 117.998 40.578C117.998 40.578 117.998 40.578 117.999 40.578C117.999 40.578 118 40.578 118 40.578C118 40.578 118.001 40.578 118.001 40.578C118.002 40.578 118.002 40.578 118.002 40.578C118.003 40.578 118.003 40.578 118.004 40.578C118.004 40.578 118.004 40.578 118.005 40.578C118.005 40.578 118.006 40.578 118.006 40.578C118.006 40.578 118.007 40.578 118.007 40.578C118.008 40.578 118.008 40.578 118.008 40.578C118.009 40.578 118.009 40.578 118.009 40.578C118.01 40.578 118.01 40.578 118.011 40.578C118.011 40.578 118.011 40.578 118.012 40.578C118.012 40.578 118.013 40.578 118.013 40.578C118.013 40.578 118.014 40.578 118.014 40.578C118.015 40.578 118.015 40.578 118.015 40.578C118.016 40.578 118.016 40.578 118.017 40.578C118.017 40.578 118.017 40.578 118.018 40.578C118.018 40.578 118.018 40.578 118.019 40.578C118.019 40.578 118.02 40.578 118.02 40.578C118.02 40.578 118.021 40.578 118.021 40.578C118.022 40.578 118.022 40.578 118.022 40.578C118.023 40.578 118.023 40.578 118.024 40.578C118.024 40.578 118.024 40.578 118.025 40.578C118.025 40.578 118.025 40.578 118.026 40.578C118.026 40.578 118.027 40.578 118.027 40.578C118.027 40.578 118.028 40.578 118.028 40.578C118.029 40.578 118.029 40.578 118.029 40.578C118.03 40.578 118.03 40.578 118.03 40.578C118.031 40.578 118.031 40.578 118.032 40.578C118.032 40.578 118.032 40.578 118.033 40.578C118.033 40.578 118.034 40.578 118.034 40.578C118.034 40.578 118.035 40.578 118.035 40.578C118.035 40.578 118.036 40.578 118.036 40.578C118.037 40.578 118.037 40.578 118.037 40.578C118.038 40.578 118.038 40.578 118.039 40.578C118.039 40.578 118.039 40.578 118.04 40.578C118.04 40.578 118.04 40.578 118.041 40.578C118.041 40.578 118.042 40.578 118.042 40.578C118.042 40.578 118.043 40.578 118.043 40.578C118.044 40.578 118.044 40.578 118.044 40.578C118.045 40.578 118.045 40.578 118.045 40.578C118.046 40.578 118.046 40.578 118.047 40.578C118.047 40.578 118.047 40.578 118.048 40.578C118.048 40.578 118.049 40.578 118.049 40.578C118.049 40.578 118.05 40.578 118.05 40.578C118.05 40.578 118.051 40.578 118.051 40.578C118.052 40.578 118.052 40.578 118.052 40.578C118.053 40.578 118.053 40.578 118.053 40.578C118.054 40.578 118.054 40.578 118.055 40.578C118.055 40.578 118.055 40.578 118.056 40.578C118.056 40.578 118.056 40.578 118.057 40.578C118.057 40.578 118.058 40.578 118.058 40.578C118.058 40.578 118.059 40.578 118.059 40.578C118.06 40.578 118.06 40.578 118.06 40.578C118.061 40.578 118.061 40.578 118.061 40.578C118.062 40.578 118.062 40.578 118.063 40.578C118.063 40.578 118.063 40.578 118.064 40.578C118.064 40.578 118.064 40.578 118.065 40.578C118.065 40.578 118.066 40.578 118.066 40.578C118.066 40.578 118.067 40.578 118.067 40.578C118.067 40.578 118.068 40.578 118.068 40.578C118.069 40.578 118.069 40.578 118.069 40.578C118.07 40.578 118.07 40.578 118.07 40.578C118.071 40.578 118.071 40.578 118.072 40.578C118.072 40.578 118.072 40.578 118.073 40.578C118.073 40.578 118.073 40.578 118.074 40.578C118.074 40.578 118.075 40.578 118.075 40.578C118.075 40.578 118.076 40.578 118.076 40.578C118.076 40.578 118.077 40.578 118.077 40.578C118.078 40.578 118.078 40.578 118.078 40.578C118.079 40.578 118.079 40.578 118.079 40.578C118.08 40.578 118.08 40.578 118.081 40.578C118.081 40.578 118.081 40.578 118.082 40.578C118.082 40.578 118.082 40.578 118.083 40.578C118.083 40.578 118.083 40.578 118.084 40.578C118.084 40.578 118.085 40.578 118.085 40.578C118.085 40.578 118.086 40.578 118.086 40.578C118.086 40.578 118.087 40.578 118.087 40.578C118.088 40.578 118.088 40.578 118.088 40.578C118.089 40.578 118.089 40.578 118.089 40.578C118.09 40.578 118.09 40.578 118.091 40.578C118.091 40.578 118.091 40.578 118.092 40.578C118.092 40.578 118.092 40.578 118.093 40.578C118.093 40.578 118.093 40.578 118.094 40.578C118.094 40.578 118.095 40.578 118.095 40.578C118.095 40.578 118.096 40.578 118.096 40.578C118.096 40.578 118.097 40.578 118.097 40.578C118.098 40.578 118.098 40.578 118.098 40.578C118.099 40.578 118.099 40.578 118.099 40.578C118.1 40.578 118.1 40.578 118.1 40.578C118.101 40.578 118.101 40.578 118.102 40.578C118.102 40.578 118.102 40.578 118.103 40.578C118.103 40.578 118.103 40.578 118.104 40.578C118.104 40.578 118.104 40.578 118.105 40.578C118.105 40.578 118.106 40.578 118.106 40.578C118.106 40.578 118.107 40.578 118.107 40.578C118.107 40.578 118.108 40.578 118.108 40.578C118.108 40.578 118.109 40.578 118.109 40.578C118.11 40.578 118.11 40.578 118.11 40.578C118.111 40.578 118.111 40.578 118.111 40.578C118.112 40.578 118.112 40.578 118.112 40.578C118.113 40.578 118.113 40.578 118.114 40.578C118.114 40.578 118.114 40.578 118.115 40.578C118.115 40.578 118.115 40.578 118.116 40.578C118.116 40.578 118.116 40.578 118.117 40.578C118.117 40.578 118.118 40.578 118.118 40.578C118.118 40.578 118.119 40.578 118.119 40.578C118.119 40.578 118.12 40.578 118.12 40.578C118.12 40.578 118.121 40.578 118.121 40.578C118.122 40.578 118.122 40.578 118.122 40.578C118.123 40.578 118.123 40.578 118.123 40.578C118.124 40.578 118.124 40.578 118.124 40.578C118.125 40.578 118.125 40.578 118.125 40.578C118.126 40.578 118.126 40.578 118.127 40.578C118.127 40.578 118.127 40.578 118.128 40.578C118.128 40.578 118.128 40.578 118.129 40.578C118.129 40.578 118.129 40.578 118.13 40.578C118.13 40.578 118.13 40.578 118.131 40.578C118.131 40.578 118.132 40.578 118.132 40.578C118.132 40.578 118.133 40.578 118.133 40.578C118.133 40.578 118.134 40.578 118.134 40.578C118.134 40.578 118.135 40.578 118.135 40.578C118.135 40.578 118.136 40.578 118.136 40.578C118.137 40.578 118.137 40.578 118.137 40.578C118.138 40.578 118.138 40.578 118.138 40.578C118.139 40.578 118.139 40.578 118.139 40.578C118.14 40.578 118.14 40.578 118.14 40.578C118.141 40.578 118.141 40.578 118.142 40.578C118.142 40.578 118.142 40.578 118.143 40.578C118.143 40.578 118.143 40.578 118.144 40.578C118.144 40.578 118.144 40.578 118.145 40.578C118.145 40.578 118.145 40.578 118.146 40.578C118.146 40.578 118.146 40.578 118.147 40.578C118.147 40.578 118.148 40.578 118.148 40.578C118.148 40.578 118.149 40.578 118.149 40.578C118.149 40.578 118.15 40.578 118.15 40.578C118.15 40.578 118.151 40.578 118.151 40.578C118.151 40.578 118.152 40.578 118.152 40.578C118.152 40.578 118.153 40.578 118.153 40.578C118.153 40.578 118.154 40.578 118.154 40.578C118.155 40.578 118.155 40.578 118.155 40.578C118.156 40.578 118.156 40.578 118.156 40.578C118.157 40.578 118.157 40.578 118.157 40.578C118.158 40.578 118.158 40.578 118.158 40.578C118.159 40.578 118.159 40.578 118.159 40.578C118.16 40.578 118.16 40.578 118.16 40.578C118.161 40.578 118.161 40.578 118.162 40.578C118.162 40.578 118.162 40.578 118.163 40.578C118.163 40.578 118.163 40.578 118.164 40.578C118.164 40.578 118.164 40.578 118.165 40.578C118.165 40.578 118.165 40.578 118.166 40.578C118.166 40.578 118.166 40.578 118.167 40.578C118.167 40.578 118.167 40.578 118.168 40.578C118.168 40.578 118.168 40.578 118.169 40.578C118.169 40.578 118.169 40.578 118.17 40.578C118.17 40.578 118.171 40.578 118.171 40.578C118.171 40.578 118.172 40.578 118.172 40.578C118.172 40.578 118.173 40.578 118.173 40.578C118.173 40.578 118.174 40.578 118.174 40.578C118.174 40.578 118.175 40.578 118.175 40.578C118.175 40.578 118.176 40.578 118.176 40.578C118.176 40.578 118.177 40.578 118.177 40.578C118.177 40.578 118.178 40.578 118.178 40.578C118.178 40.578 118.179 40.578 118.179 40.578C118.179 40.578 118.18 40.578 118.18 40.578C118.18 40.578 118.181 40.578 118.181 40.578C118.182 40.578 118.182 40.578 118.182 40.578C118.183 40.578 118.183 40.578 118.183 40.578C118.184 40.578 118.184 40.578 118.184 40.578C118.185 40.578 118.185 40.578 118.185 40.578C118.186 40.578 118.186 40.578 118.186 40.578C118.187 40.578 118.187 40.578 118.187 40.578C118.188 40.578 118.188 40.578 118.188 40.578C118.189 40.578 118.189 40.578 118.189 40.578C118.19 40.578 118.19 40.578 118.19 40.578C118.191 40.578 118.191 40.578 118.191 40.578C118.192 40.578 118.192 40.578 118.192 40.578C118.193 40.578 118.193 40.578 118.193 40.578C118.194 40.578 118.194 40.578 118.194 40.578C118.195 40.578 118.195 40.578 118.195 40.578C118.196 40.578 118.196 40.578 118.196 40.578C118.197 40.578 118.197 40.578 118.197 40.578C118.198 40.578 118.198 40.578 118.198 40.578C118.199 40.578 118.199 40.578 118.199 40.578C118.2 40.578 118.2 40.578 118.2 40.578C118.201 40.578 118.201 40.578 118.201 40.578C118.202 40.578 118.202 40.578 118.202 40.578C118.203 40.578 118.203 40.578 118.204 40.578C118.204 40.578 118.204 40.578 118.205 40.578C118.205 40.578 118.205 40.578 118.206 40.578C118.206 40.578 118.206 40.578 118.207 40.578C118.207 40.578 118.207 40.578 118.208 40.578C118.208 40.578 118.208 40.578 118.209 40.578C118.209 40.578 118.209 40.578 118.21 40.578C118.21 40.578 118.21 40.578 118.211 40.578C118.211 40.578 118.211 40.578 118.212 40.578C118.212 40.578 118.212 40.578 118.213 40.578C118.213 40.578 118.213 40.578 118.214 40.578C118.214 40.578 118.214 40.578 118.215 40.578C118.215 40.578 118.215 40.578 118.215 40.578C118.216 40.578 118.216 40.578 118.216 40.578C118.217 40.578 118.217 40.578 118.217 40.578C118.218 40.578 118.218 40.578 118.218 40.578C118.219 40.578 118.219 40.578 118.219 40.578C118.22 40.578 118.22 40.578 118.22 40.578C118.221 40.578 118.221 40.578 118.221 40.578C118.222 40.578 118.222 40.578 118.222 40.578C118.223 40.578 118.223 40.578 118.223 40.578C118.224 40.578 118.224 40.578 118.224 40.578V36.578C118.224 36.578 118.224 36.578 118.223 36.578C118.223 36.578 118.223 36.578 118.222 36.578C118.222 36.578 118.222 36.578 118.221 36.578C118.221 36.578 118.221 36.578 118.22 36.578C118.22 36.578 118.22 36.578 118.219 36.578C118.219 36.578 118.219 36.578 118.218 36.578C118.218 36.578 118.218 36.578 118.217 36.578C118.217 36.578 118.217 36.578 118.216 36.578C118.216 36.578 118.216 36.578 118.215 36.578C118.215 36.578 118.215 36.578 118.215 36.578C118.214 36.578 118.214 36.578 118.214 36.578C118.213 36.578 118.213 36.578 118.213 36.578C118.212 36.578 118.212 36.578 118.212 36.578C118.211 36.578 118.211 36.578 118.211 36.578C118.21 36.578 118.21 36.578 118.21 36.578C118.209 36.578 118.209 36.578 118.209 36.578C118.208 36.578 118.208 36.578 118.208 36.578C118.207 36.578 118.207 36.578 118.207 36.578C118.206 36.578 118.206 36.578 118.206 36.578C118.205 36.578 118.205 36.578 118.205 36.578C118.204 36.578 118.204 36.578 118.204 36.578C118.203 36.578 118.203 36.578 118.202 36.578C118.202 36.578 118.202 36.578 118.201 36.578C118.201 36.578 118.201 36.578 118.2 36.578C118.2 36.578 118.2 36.578 118.199 36.578C118.199 36.578 118.199 36.578 118.198 36.578C118.198 36.578 118.198 36.578 118.197 36.578C118.197 36.578 118.197 36.578 118.196 36.578C118.196 36.578 118.196 36.578 118.195 36.578C118.195 36.578 118.195 36.578 118.194 36.578C118.194 36.578 118.194 36.578 118.193 36.578C118.193 36.578 118.193 36.578 118.192 36.578C118.192 36.578 118.192 36.578 118.191 36.578C118.191 36.578 118.191 36.578 118.19 36.578C118.19 36.578 118.19 36.578 118.189 36.578C118.189 36.578 118.189 36.578 118.188 36.578C118.188 36.578 118.188 36.578 118.187 36.578C118.187 36.578 118.187 36.578 118.186 36.578C118.186 36.578 118.186 36.578 118.185 36.578C118.185 36.578 118.185 36.578 118.184 36.578C118.184 36.578 118.184 36.578 118.183 36.578C118.183 36.578 118.183 36.578 118.182 36.578C118.182 36.578 118.182 36.578 118.181 36.578C118.181 36.578 118.18 36.578 118.18 36.578C118.18 36.578 118.179 36.578 118.179 36.578C118.179 36.578 118.178 36.578 118.178 36.578C118.178 36.578 118.177 36.578 118.177 36.578C118.177 36.578 118.176 36.578 118.176 36.578C118.176 36.578 118.175 36.578 118.175 36.578C118.175 36.578 118.174 36.578 118.174 36.578C118.174 36.578 118.173 36.578 118.173 36.578C118.173 36.578 118.172 36.578 118.172 36.578C118.172 36.578 118.171 36.578 118.171 36.578C118.171 36.578 118.17 36.578 118.17 36.578C118.169 36.578 118.169 36.578 118.169 36.578C118.168 36.578 118.168 36.578 118.168 36.578C118.167 36.578 118.167 36.578 118.167 36.578C118.166 36.578 118.166 36.578 118.166 36.578C118.165 36.578 118.165 36.578 118.165 36.578C118.164 36.578 118.164 36.578 118.164 36.578C118.163 36.578 118.163 36.578 118.163 36.578C118.162 36.578 118.162 36.578 118.162 36.578C118.161 36.578 118.161 36.578 118.16 36.578C118.16 36.578 118.16 36.578 118.159 36.578C118.159 36.578 118.159 36.578 118.158 36.578C118.158 36.578 118.158 36.578 118.157 36.578C118.157 36.578 118.157 36.578 118.156 36.578C118.156 36.578 118.156 36.578 118.155 36.578C118.155 36.578 118.155 36.578 118.154 36.578C118.154 36.578 118.153 36.578 118.153 36.578C118.153 36.578 118.152 36.578 118.152 36.578C118.152 36.578 118.151 36.578 118.151 36.578C118.151 36.578 118.15 36.578 118.15 36.578C118.15 36.578 118.149 36.578 118.149 36.578C118.149 36.578 118.148 36.578 118.148 36.578C118.148 36.578 118.147 36.578 118.147 36.578C118.146 36.578 118.146 36.578 118.146 36.578C118.145 36.578 118.145 36.578 118.145 36.578C118.144 36.578 118.144 36.578 118.144 36.578C118.143 36.578 118.143 36.578 118.143 36.578C118.142 36.578 118.142 36.578 118.142 36.578C118.141 36.578 118.141 36.578 118.14 36.578C118.14 36.578 118.14 36.578 118.139 36.578C118.139 36.578 118.139 36.578 118.138 36.578C118.138 36.578 118.138 36.578 118.137 36.578C118.137 36.578 118.137 36.578 118.136 36.578C118.136 36.578 118.135 36.578 118.135 36.578C118.135 36.578 118.134 36.578 118.134 36.578C118.134 36.578 118.133 36.578 118.133 36.578C118.133 36.578 118.132 36.578 118.132 36.578C118.132 36.578 118.131 36.578 118.131 36.578C118.13 36.578 118.13 36.578 118.13 36.578C118.129 36.578 118.129 36.578 118.129 36.578C118.128 36.578 118.128 36.578 118.128 36.578C118.127 36.578 118.127 36.578 118.127 36.578C118.126 36.578 118.126 36.578 118.125 36.578C118.125 36.578 118.125 36.578 118.124 36.578C118.124 36.578 118.124 36.578 118.123 36.578C118.123 36.578 118.123 36.578 118.122 36.578C118.122 36.578 118.122 36.578 118.121 36.578C118.121 36.578 118.12 36.578 118.12 36.578C118.12 36.578 118.119 36.578 118.119 36.578C118.119 36.578 118.118 36.578 118.118 36.578C118.118 36.578 118.117 36.578 118.117 36.578C118.116 36.578 118.116 36.578 118.116 36.578C118.115 36.578 118.115 36.578 118.115 36.578C118.114 36.578 118.114 36.578 118.114 36.578C118.113 36.578 118.113 36.578 118.112 36.578C118.112 36.578 118.112 36.578 118.111 36.578C118.111 36.578 118.111 36.578 118.11 36.578C118.11 36.578 118.11 36.578 118.109 36.578C118.109 36.578 118.108 36.578 118.108 36.578C118.108 36.578 118.107 36.578 118.107 36.578C118.107 36.578 118.106 36.578 118.106 36.578C118.106 36.578 118.105 36.578 118.105 36.578C118.104 36.578 118.104 36.578 118.104 36.578C118.103 36.578 118.103 36.578 118.103 36.578C118.102 36.578 118.102 36.578 118.102 36.578C118.101 36.578 118.101 36.578 118.1 36.578C118.1 36.578 118.1 36.578 118.099 36.578C118.099 36.578 118.099 36.578 118.098 36.578C118.098 36.578 118.098 36.578 118.097 36.578C118.097 36.578 118.096 36.578 118.096 36.578C118.096 36.578 118.095 36.578 118.095 36.578C118.095 36.578 118.094 36.578 118.094 36.578C118.093 36.578 118.093 36.578 118.093 36.578C118.092 36.578 118.092 36.578 118.092 36.578C118.091 36.578 118.091 36.578 118.091 36.578C118.09 36.578 118.09 36.578 118.089 36.578C118.089 36.578 118.089 36.578 118.088 36.578C118.088 36.578 118.088 36.578 118.087 36.578C118.087 36.578 118.086 36.578 118.086 36.578C118.086 36.578 118.085 36.578 118.085 36.578C118.085 36.578 118.084 36.578 118.084 36.578C118.083 36.578 118.083 36.578 118.083 36.578C118.082 36.578 118.082 36.578 118.082 36.578C118.081 36.578 118.081 36.578 118.081 36.578C118.08 36.578 118.08 36.578 118.079 36.578C118.079 36.578 118.079 36.578 118.078 36.578C118.078 36.578 118.078 36.578 118.077 36.578C118.077 36.578 118.076 36.578 118.076 36.578C118.076 36.578 118.075 36.578 118.075 36.578C118.075 36.578 118.074 36.578 118.074 36.578C118.073 36.578 118.073 36.578 118.073 36.578C118.072 36.578 118.072 36.578 118.072 36.578C118.071 36.578 118.071 36.578 118.07 36.578C118.07 36.578 118.07 36.578 118.069 36.578C118.069 36.578 118.069 36.578 118.068 36.578C118.068 36.578 118.067 36.578 118.067 36.578C118.067 36.578 118.066 36.578 118.066 36.578C118.066 36.578 118.065 36.578 118.065 36.578C118.064 36.578 118.064 36.578 118.064 36.578C118.063 36.578 118.063 36.578 118.063 36.578C118.062 36.578 118.062 36.578 118.061 36.578C118.061 36.578 118.061 36.578 118.06 36.578C118.06 36.578 118.06 36.578 118.059 36.578C118.059 36.578 118.058 36.578 118.058 36.578C118.058 36.578 118.057 36.578 118.057 36.578C118.056 36.578 118.056 36.578 118.056 36.578C118.055 36.578 118.055 36.578 118.055 36.578C118.054 36.578 118.054 36.578 118.053 36.578C118.053 36.578 118.053 36.578 118.052 36.578C118.052 36.578 118.052 36.578 118.051 36.578C118.051 36.578 118.05 36.578 118.05 36.578C118.05 36.578 118.049 36.578 118.049 36.578C118.049 36.578 118.048 36.578 118.048 36.578C118.047 36.578 118.047 36.578 118.047 36.578C118.046 36.578 118.046 36.578 118.045 36.578C118.045 36.578 118.045 36.578 118.044 36.578C118.044 36.578 118.044 36.578 118.043 36.578C118.043 36.578 118.042 36.578 118.042 36.578C118.042 36.578 118.041 36.578 118.041 36.578C118.04 36.578 118.04 36.578 118.04 36.578C118.039 36.578 118.039 36.578 118.039 36.578C118.038 36.578 118.038 36.578 118.037 36.578C118.037 36.578 118.037 36.578 118.036 36.578C118.036 36.578 118.035 36.578 118.035 36.578C118.035 36.578 118.034 36.578 118.034 36.578C118.034 36.578 118.033 36.578 118.033 36.578C118.032 36.578 118.032 36.578 118.032 36.578C118.031 36.578 118.031 36.578 118.03 36.578C118.03 36.578 118.03 36.578 118.029 36.578C118.029 36.578 118.029 36.578 118.028 36.578C118.028 36.578 118.027 36.578 118.027 36.578C118.027 36.578 118.026 36.578 118.026 36.578C118.025 36.578 118.025 36.578 118.025 36.578C118.024 36.578 118.024 36.578 118.024 36.578C118.023 36.578 118.023 36.578 118.022 36.578C118.022 36.578 118.022 36.578 118.021 36.578C118.021 36.578 118.02 36.578 118.02 36.578C118.02 36.578 118.019 36.578 118.019 36.578C118.018 36.578 118.018 36.578 118.018 36.578C118.017 36.578 118.017 36.578 118.017 36.578C118.016 36.578 118.016 36.578 118.015 36.578C118.015 36.578 118.015 36.578 118.014 36.578C118.014 36.578 118.013 36.578 118.013 36.578C118.013 36.578 118.012 36.578 118.012 36.578C118.011 36.578 118.011 36.578 118.011 36.578C118.01 36.578 118.01 36.578 118.009 36.578C118.009 36.578 118.009 36.578 118.008 36.578C118.008 36.578 118.008 36.578 118.007 36.578C118.007 36.578 118.006 36.578 118.006 36.578C118.006 36.578 118.005 36.578 118.005 36.578C118.004 36.578 118.004 36.578 118.004 36.578C118.003 36.578 118.003 36.578 118.002 36.578C118.002 36.578 118.002 36.578 118.001 36.578C118.001 36.578 118 36.578 118 36.578C118 36.578 117.999 36.578 117.999 36.578C117.998 36.578 117.998 36.578 117.998 36.578C117.997 36.578 117.997 36.578 117.996 36.578C117.996 36.578 117.996 36.578 117.995 36.578C117.995 36.578 117.994 36.578 117.994 36.578C117.994 36.578 117.993 36.578 117.993 36.578C117.993 36.578 117.992 36.578 117.992 36.578C117.991 36.578 117.991 36.578 117.991 36.578C117.99 36.578 117.99 36.578 117.989 36.578C117.989 36.578 117.989 36.578 117.988 36.578C117.988 36.578 117.987 36.578 117.987 36.578C117.987 36.578 117.986 36.578 117.986 36.578C117.985 36.578 117.985 36.578 117.985 36.578C117.984 36.578 117.984 36.578 117.983 36.578C117.983 36.578 117.983 36.578 117.982 36.578C117.982 36.578 117.981 36.578 117.981 36.578C117.981 36.578 117.98 36.578 117.98 36.578C117.979 36.578 117.979 36.578 117.979 36.578C117.978 36.578 117.978 36.578 117.977 36.578C117.977 36.578 117.977 36.578 117.976 36.578C117.976 36.578 117.975 36.578 117.975 36.578C117.975 36.578 117.974 36.578 117.974 36.578C117.973 36.578 117.973 36.578 117.973 36.578C117.972 36.578 117.972 36.578 117.971 36.578C117.971 36.578 117.971 36.578 117.97 36.578C117.97 36.578 117.969 36.578 117.969 36.578C117.969 36.578 117.968 36.578 117.968 36.578C117.967 36.578 117.967 36.578 117.967 36.578C117.966 36.578 117.966 36.578 117.965 36.578C117.965 36.578 117.965 36.578 117.964 36.578C117.964 36.578 117.963 36.578 117.963 36.578C117.962 36.578 117.962 36.578 117.962 36.578C117.961 36.578 117.961 36.578 117.96 36.578C117.96 36.578 117.96 36.578 117.959 36.578C117.959 36.578 117.958 36.578 117.958 36.578C117.958 36.578 117.957 36.578 117.957 36.578C117.956 36.578 117.956 36.578 117.956 36.578C117.955 36.578 117.955 36.578 117.954 36.578C117.954 36.578 117.954 36.578 117.953 36.578C117.953 36.578 117.952 36.578 117.952 36.578C117.952 36.578 117.951 36.578 117.951 36.578C117.95 36.578 117.95 36.578 117.949 36.578C117.949 36.578 117.949 36.578 117.948 36.578C117.948 36.578 117.947 36.578 117.947 36.578C117.947 36.578 117.946 36.578 117.946 36.578C117.945 36.578 117.945 36.578 117.945 36.578C117.944 36.578 117.944 36.578 117.943 36.578C117.943 36.578 117.943 36.578 117.942 36.578C117.942 36.578 117.941 36.578 117.941 36.578C117.94 36.578 117.94 36.578 117.94 36.578C117.939 36.578 117.939 36.578 117.938 36.578C117.938 36.578 117.938 36.578 117.937 36.578C117.937 36.578 117.936 36.578 117.936 36.578C117.936 36.578 117.935 36.578 117.935 36.578C117.934 36.578 117.934 36.578 117.933 36.578C117.933 36.578 117.933 36.578 117.932 36.578C117.932 36.578 117.931 36.578 117.931 36.578C117.931 36.578 117.93 36.578 117.93 36.578C117.929 36.578 117.929 36.578 117.929 36.578C117.928 36.578 117.928 36.578 117.927 36.578C117.927 36.578 117.926 36.578 117.926 36.578C117.926 36.578 117.925 36.578 117.925 36.578C117.924 36.578 117.924 36.578 117.924 36.578C117.923 36.578 117.923 36.578 117.922 36.578C117.922 36.578 117.921 36.578 117.921 36.578C117.921 36.578 117.92 36.578 117.92 36.578C117.919 36.578 117.919 36.578 117.919 36.578C117.918 36.578 117.918 36.578 117.917 36.578C117.917 36.578 117.917 36.578 117.916 36.578C117.916 36.578 117.915 36.578 117.915 36.578C117.914 36.578 117.914 36.578 117.914 36.578C117.913 36.578 117.913 36.578 117.912 36.578C117.912 36.578 117.911 36.578 117.911 36.578C117.911 36.578 117.91 36.578 117.91 36.578C117.909 36.578 117.909 36.578 117.909 36.578C117.908 36.578 117.908 36.578 117.907 36.578C117.907 36.578 117.906 36.578 117.906 36.578C117.906 36.578 117.905 36.578 117.905 36.578C117.904 36.578 117.904 36.578 117.904 36.578C117.903 36.578 117.903 36.578 117.902 36.578C117.902 36.578 117.901 36.578 117.901 36.578C117.901 36.578 117.9 36.578 117.9 36.578C117.899 36.578 117.899 36.578 117.898 36.578C117.898 36.578 117.898 36.578 117.897 36.578C117.897 36.578 117.896 36.578 117.896 36.578C117.896 36.578 117.895 36.578 117.895 36.578C117.894 36.578 117.894 36.578 117.893 36.578C117.893 36.578 117.893 36.578 117.892 36.578C117.892 36.578 117.891 36.578 117.891 36.578C117.89 36.578 117.89 36.578 117.89 36.578C117.889 36.578 117.889 36.578 117.888 36.578C117.888 36.578 117.888 36.578 117.887 36.578C117.887 36.578 117.886 36.578 117.886 36.578C117.885 36.578 117.885 36.578 117.885 36.578C117.884 36.578 117.884 36.578 117.883 36.578C117.883 36.578 117.882 36.578 117.882 36.578C117.882 36.578 117.881 36.578 117.881 36.578C117.88 36.578 117.88 36.578 117.879 36.578C117.879 36.578 117.879 36.578 117.878 36.578C117.878 36.578 117.877 36.578 117.877 36.578C117.876 36.578 117.876 36.578 117.876 36.578C117.875 36.578 117.875 36.578 117.874 36.578C117.874 36.578 117.873 36.578 117.873 36.578C117.873 36.578 117.872 36.578 117.872 36.578C117.871 36.578 117.871 36.578 117.87 36.578C117.87 36.578 117.87 36.578 117.869 36.578C117.869 36.578 117.868 36.578 117.868 36.578C117.867 36.578 117.867 36.578 117.867 36.578C117.866 36.578 117.866 36.578 117.865 36.578C117.865 36.578 117.864 36.578 117.864 36.578C117.864 36.578 117.863 36.578 117.863 36.578C117.862 36.578 117.862 36.578 117.861 36.578C117.861 36.578 117.861 36.578 117.86 36.578C117.86 36.578 117.859 36.578 117.859 36.578C117.858 36.578 117.858 36.578 117.858 36.578C117.857 36.578 117.857 36.578 117.856 36.578C117.856 36.578 117.855 36.578 117.855 36.578C117.855 36.578 117.854 36.578 117.854 36.578C117.853 36.578 117.853 36.578 117.852 36.578C117.852 36.578 117.852 36.578 117.851 36.578C117.851 36.578 117.85 36.578 117.85 36.578C117.849 36.578 117.849 36.578 117.849 36.578C117.848 36.578 117.848 36.578 117.847 36.578C117.847 36.578 117.846 36.578 117.846 36.578C117.845 36.578 117.845 36.578 117.845 36.578C117.844 36.578 117.844 36.578 117.843 36.578C117.843 36.578 117.842 36.578 117.842 36.578C117.842 36.578 117.841 36.578 117.841 36.578C117.84 36.578 117.84 36.578 117.839 36.578C117.839 36.578 117.839 36.578 117.838 36.578C117.838 36.578 117.837 36.578 117.837 36.578C117.836 36.578 117.836 36.578 117.835 36.578C117.835 36.578 117.835 36.578 117.834 36.578C117.834 36.578 117.833 36.578 117.833 36.578C117.832 36.578 117.832 36.578 117.832 36.578C117.831 36.578 117.831 36.578 117.83 36.578C117.83 36.578 117.829 36.578 117.829 36.578C117.828 36.578 117.828 36.578 117.828 36.578C117.827 36.578 117.827 36.578 117.826 36.578C117.826 36.578 117.825 36.578 117.825 36.578C117.824 36.578 117.824 36.578 117.824 36.578C117.823 36.578 117.823 36.578 117.822 36.578C117.822 36.578 117.821 36.578 117.821 36.578C117.821 36.578 117.82 36.578 117.82 36.578C117.819 36.578 117.819 36.578 117.818 36.578C117.818 36.578 117.817 36.578 117.817 36.578C117.817 36.578 117.816 36.578 117.816 36.578C117.815 36.578 117.815 36.578 117.814 36.578C117.814 36.578 117.813 36.578 117.813 36.578C117.813 36.578 117.812 36.578 117.812 36.578C117.811 36.578 117.811 36.578 117.81 36.578C117.81 36.578 117.809 36.578 117.809 36.578C117.809 36.578 117.808 36.578 117.808 36.578C117.807 36.578 117.807 36.578 117.806 36.578C117.806 36.578 117.806 36.578 117.805 36.578C117.805 36.578 117.804 36.578 117.804 36.578C117.803 36.578 117.803 36.578 117.802 36.578C117.802 36.578 117.802 36.578 117.801 36.578C117.801 36.578 117.8 36.578 117.8 36.578C117.799 36.578 117.799 36.578 117.798 36.578C117.798 36.578 117.797 36.578 117.797 36.578C117.797 36.578 117.796 36.578 117.796 36.578C117.795 36.578 117.795 36.578 117.794 36.578C117.794 36.578 117.793 36.578 117.793 36.578C117.793 36.578 117.792 36.578 117.792 36.578C117.791 36.578 117.791 36.578 117.79 36.578C117.79 36.578 117.789 36.578 117.789 36.578C117.789 36.578 117.788 36.578 117.788 36.578C117.787 36.578 117.787 36.578 117.786 36.578C117.786 36.578 117.785 36.578 117.785 36.578C117.785 36.578 117.784 36.578 117.784 36.578C117.783 36.578 117.783 36.578 117.782 36.578C117.782 36.578 117.781 36.578 117.781 36.578C117.78 36.578 117.78 36.578 117.78 36.578C117.779 36.578 117.779 36.578 117.778 36.578C117.778 36.578 117.777 36.578 117.777 36.578C117.776 36.578 117.776 36.578 117.776 36.578C117.775 36.578 117.775 36.578 117.774 36.578C117.774 36.578 117.773 36.578 117.773 36.578C117.772 36.578 117.772 36.578 117.771 36.578C117.771 36.578 117.771 36.578 117.77 36.578C117.77 36.578 117.769 36.578 117.769 36.578C117.768 36.578 117.768 36.578 117.767 36.578C117.767 36.578 117.766 36.578 117.766 36.578C117.766 36.578 117.765 36.578 117.765 36.578C117.764 36.578 117.764 36.578 117.763 36.578C117.763 36.578 117.762 36.578 117.762 36.578C117.761 36.578 117.761 36.578 117.761 36.578C117.76 36.578 117.76 36.578 117.759 36.578C117.759 36.578 117.758 36.578 117.758 36.578C117.757 36.578 117.757 36.578 117.756 36.578C117.756 36.578 117.756 36.578 117.755 36.578C117.755 36.578 117.754 36.578 117.754 36.578C117.753 36.578 117.753 36.578 117.752 36.578C117.752 36.578 117.751 36.578 117.751 36.578C117.751 36.578 117.75 36.578 117.75 36.578C117.749 36.578 117.749 36.578 117.748 36.578C117.748 36.578 117.747 36.578 117.747 36.578C117.746 36.578 117.746 36.578 117.746 36.578C117.745 36.578 117.745 36.578 117.744 36.578C117.744 36.578 117.743 36.578 117.743 36.578C117.742 36.578 117.742 36.578 117.741 36.578C117.741 36.578 117.74 36.578 117.74 36.578C117.74 36.578 117.739 36.578 117.739 36.578C117.738 36.578 117.738 36.578 117.737 36.578C117.737 36.578 117.736 36.578 117.736 36.578C117.735 36.578 117.735 36.578 117.734 36.578C117.734 36.578 117.734 36.578 117.733 36.578C117.733 36.578 117.732 36.578 117.732 36.578C117.731 36.578 117.731 36.578 117.73 36.578C117.73 36.578 117.729 36.578 117.729 36.578C117.728 36.578 117.728 36.578 117.728 36.578C117.727 36.578 117.727 36.578 117.726 36.578C117.726 36.578 117.725 36.578 117.725 36.578C117.724 36.578 117.724 36.578 117.723 36.578C117.723 36.578 117.722 36.578 117.722 36.578C117.722 36.578 117.721 36.578 117.721 36.578C117.72 36.578 117.72 36.578 117.719 36.578C117.719 36.578 117.718 36.578 117.718 36.578C117.717 36.578 117.717 36.578 117.716 36.578C117.716 36.578 117.715 36.578 117.715 36.578C117.715 36.578 117.714 36.578 117.714 36.578C117.713 36.578 117.713 36.578 117.712 36.578C117.712 36.578 117.711 36.578 117.711 36.578C117.71 36.578 117.71 36.578 117.709 36.578C117.709 36.578 117.709 36.578 117.708 36.578C117.708 36.578 117.707 36.578 117.707 36.578C117.706 36.578 117.706 36.578 117.705 36.578C117.705 36.578 117.704 36.578 117.704 36.578C117.703 36.578 117.703 36.578 117.702 36.578C117.702 36.578 117.701 36.578 117.701 36.578C117.701 36.578 117.7 36.578 117.7 36.578C117.699 36.578 117.699 36.578 117.698 36.578C117.698 36.578 117.697 36.578 117.697 36.578C117.696 36.578 117.696 36.578 117.695 36.578C117.695 36.578 117.694 36.578 117.694 36.578C117.694 36.578 117.693 36.578 117.693 36.578C117.692 36.578 117.692 36.578 117.691 36.578C117.691 36.578 117.69 36.578 117.69 36.578C117.689 36.578 117.689 36.578 117.688 36.578C117.688 36.578 117.687 36.578 117.687 36.578C117.686 36.578 117.686 36.578 117.686 36.578C117.685 36.578 117.685 36.578 117.684 36.578C117.684 36.578 117.683 36.578 117.683 36.578C117.682 36.578 117.682 36.578 117.681 36.578C117.681 36.578 117.68 36.578 117.68 36.578C117.679 36.578 117.679 36.578 117.678 36.578C117.678 36.578 117.677 36.578 117.677 36.578C117.677 36.578 117.676 36.578 117.676 36.578C117.675 36.578 117.675 36.578 117.674 36.578C117.674 36.578 117.673 36.578 117.673 36.578C117.672 36.578 117.672 36.578 117.671 36.578C117.671 36.578 117.67 36.578 117.67 36.578C117.669 36.578 117.669 36.578 117.668 36.578C117.668 36.578 117.667 36.578 117.667 36.578C117.667 36.578 117.666 36.578 117.666 36.578C117.665 36.578 117.665 36.578 117.664 36.578C117.664 36.578 117.663 36.578 117.663 36.578C117.662 36.578 117.662 36.578 117.661 36.578C117.661 36.578 117.66 36.578 117.66 36.578C117.659 36.578 117.659 36.578 117.658 36.578C117.658 36.578 117.657 36.578 117.657 36.578C117.657 36.578 117.656 36.578 117.656 36.578C117.655 36.578 117.655 36.578 117.654 36.578C117.654 36.578 117.653 36.578 117.653 36.578C117.652 36.578 117.652 36.578 117.651 36.578C117.651 36.578 117.65 36.578 117.65 36.578C117.649 36.578 117.649 36.578 117.648 36.578C117.648 36.578 117.647 36.578 117.647 36.578C117.646 36.578 117.646 36.578 117.645 36.578C117.645 36.578 117.645 36.578 117.644 36.578C117.644 36.578 117.643 36.578 117.643 36.578C117.642 36.578 117.642 36.578 117.641 36.578C117.641 36.578 117.64 36.578 117.64 36.578C117.639 36.578 117.639 36.578 117.638 36.578C117.638 36.578 117.637 36.578 117.637 36.578C117.636 36.578 117.636 36.578 117.635 36.578C117.635 36.578 117.634 36.578 117.634 36.578C117.633 36.578 117.633 36.578 117.632 36.578C117.632 36.578 117.631 36.578 117.631 36.578C117.631 36.578 117.63 36.578 117.63 36.578C117.629 36.578 117.629 36.578 117.628 36.578C117.628 36.578 117.627 36.578 117.627 36.578C117.626 36.578 117.626 36.578 117.625 36.578C117.625 36.578 117.624 36.578 117.624 36.578C117.623 36.578 117.623 36.578 117.622 36.578C117.622 36.578 117.621 36.578 117.621 36.578C117.62 36.578 117.62 36.578 117.619 36.578C117.619 36.578 117.618 36.578 117.618 36.578C117.617 36.578 117.617 36.578 117.616 36.578C117.616 36.578 117.615 36.578 117.615 36.578C117.614 36.578 117.614 36.578 117.614 36.578C117.613 36.578 117.613 36.578 117.612 36.578C117.612 36.578 117.611 36.578 117.611 36.578C117.61 36.578 117.61 36.578 117.609 36.578C117.609 36.578 117.608 36.578 117.608 36.578C117.607 36.578 117.607 36.578 117.606 36.578C117.606 36.578 117.605 36.578 117.605 36.578C117.604 36.578 117.604 36.578 117.603 36.578C117.603 36.578 117.602 36.578 117.602 36.578C117.601 36.578 117.601 36.578 117.6 36.578C117.6 36.578 117.599 36.578 117.599 36.578C117.598 36.578 117.598 36.578 117.597 36.578C117.597 36.578 117.596 36.578 117.596 36.578C117.595 36.578 117.595 36.578 117.594 36.578V40.578ZM118.164 40.5771C119.051 40.604 120.083 40.4773 120.943 39.8741C121.922 39.1868 122.324 38.1396 122.324 37.108H118.324C118.324 37.1249 118.322 37.0444 118.381 36.9176C118.446 36.7802 118.546 36.6692 118.646 36.5994C118.733 36.5381 118.775 36.5399 118.711 36.5537C118.647 36.5678 118.512 36.5858 118.285 36.5789L118.164 40.5771ZM122.324 37.108C122.324 36.0429 121.889 35.0075 120.931 34.3276C120.074 33.7188 119.04 33.5691 118.122 33.5969L118.243 37.5951C118.458 37.5886 118.589 37.6072 118.654 37.622C118.718 37.6367 118.688 37.6407 118.615 37.5889C118.533 37.5304 118.443 37.4338 118.382 37.3079C118.325 37.1887 118.324 37.1073 118.324 37.108H122.324ZM118.182 33.596C117.984 33.596 117.731 33.5955 117.415 33.5639L117.017 37.5441C117.542 37.5965 117.961 37.596 118.182 37.596V33.596ZM154.909 46.348H152.909V48.348H154.909V46.348ZM163.015 47.398L164.327 45.8888L164.308 45.8722L164.289 45.8561L163.015 47.398ZM163.015 54.034L164.281 55.5819L164.302 55.5651L164.322 55.5476L163.015 54.034ZM148.483 54.622L147.721 56.4714L147.756 56.4857L147.791 56.4987L148.483 54.622ZM145.837 51.262L147.805 50.9087L147.799 50.8757L147.792 50.8429L145.837 51.262ZM146.089 29.758L147.927 30.5458L147.95 30.4913L147.971 30.4354L146.089 29.758ZM148.315 27.448L147.572 25.591L147.544 25.602L147.517 25.6139L148.315 27.448ZM161.377 27.196L160.861 29.1285L160.872 29.1312L161.377 27.196ZM163.057 34.63L161.783 33.0881L161.772 33.097L161.761 33.1061L163.057 34.63ZM154.909 35.638V33.638H152.909V35.638H154.909ZM154.909 37.57H152.909V39.57H154.909V37.57ZM161.083 43.534L162.298 45.1227L162.331 45.0973L162.363 45.0704L161.083 43.534ZM154.909 44.248V42.248H152.909V44.248H154.909ZM154.909 48.348H159.151V44.348H154.909V48.348ZM159.151 48.348C160.102 48.348 160.614 48.411 160.947 48.5025C161.221 48.5776 161.435 48.6874 161.741 48.9399L164.289 45.8561C163.628 45.3106 162.918 44.8954 162.006 44.645C161.153 44.411 160.216 44.348 159.151 44.348V48.348ZM161.702 48.9072C162.244 49.378 162.527 50.0088 162.527 50.674H166.527C166.527 48.8192 165.718 47.098 164.327 45.8888L161.702 48.9072ZM162.527 50.674C162.527 51.4024 162.186 52.1072 161.708 52.5204L164.322 55.5476C165.692 54.3648 166.527 52.5496 166.527 50.674H162.527ZM161.748 52.4861C161.468 52.7156 161.295 52.8003 161.051 52.8623C160.728 52.9447 160.211 53 159.193 53V57C160.274 57 161.207 56.9503 162.038 56.7387C162.95 56.5067 163.638 56.1084 164.281 55.5819L161.748 52.4861ZM159.193 53H152.011V57H159.193V53ZM152.011 53C149.898 53 149.616 52.9082 149.174 52.7453L147.791 56.4987C148.945 56.9238 149.84 57 152.011 57V53ZM149.244 52.7726C148.469 52.4533 147.983 51.8975 147.805 50.9087L143.868 51.6153C144.279 53.9025 145.641 55.6147 147.721 56.4714L149.244 52.7726ZM147.792 50.8429C147.738 50.5912 147.718 50.485 147.701 50.2414C147.68 49.9413 147.669 49.4595 147.669 48.49H143.669C143.669 50.4492 143.709 50.8766 143.881 51.6811L147.792 50.8429ZM147.669 48.49V33.286H143.669V48.49H147.669ZM147.669 33.286C147.669 32.075 147.682 31.5445 147.723 31.2108C147.748 30.9972 147.776 30.8994 147.927 30.5458L144.25 28.9702C144.024 29.4986 143.841 29.9888 143.751 30.7307C143.676 31.3525 143.669 32.145 143.669 33.286H147.669ZM147.971 30.4354C148.137 29.9717 148.581 29.5129 149.112 29.2821L147.517 25.6139C146.116 26.2231 144.796 27.4443 144.207 29.0806L147.971 30.4354ZM149.058 29.305C149.541 29.1117 149.659 29.0763 149.918 29.0453C150.299 28.9996 150.9 28.986 152.305 28.986V24.986C150.98 24.986 150.111 24.9934 149.441 25.0737C148.65 25.1687 148.139 25.3643 147.572 25.591L149.058 29.305ZM152.305 28.986H157.849V24.986H152.305V28.986ZM157.849 28.986C159.185 28.986 159.841 28.9973 160.236 29.0236C160.544 29.0441 160.633 29.0675 160.861 29.1285L161.892 25.2635C160.969 25.0173 160.456 24.986 157.849 24.986V28.986ZM160.872 29.1312C161.961 29.4153 162.569 30.2444 162.569 31.228H166.569C166.569 28.3476 164.657 25.9847 161.882 25.2608L160.872 29.1312ZM162.569 31.228C162.569 32.0494 162.235 32.7147 161.783 33.0881L164.331 36.1719C165.811 34.9493 166.569 33.0946 166.569 31.228H162.569ZM161.761 33.1061C161.42 33.396 160.995 33.638 159.529 33.638V37.638C161.507 37.638 163.013 37.292 164.352 36.1539L161.761 33.1061ZM159.529 33.638H154.909V37.638H159.529V33.638ZM152.909 35.638V37.57H156.909V35.638H152.909ZM154.909 39.57H158.563V35.57H154.909V39.57ZM158.563 39.57C159.307 39.57 159.734 39.7868 159.948 39.9789C160.144 40.1538 160.301 40.4257 160.301 40.888H164.301C164.301 39.3763 163.723 37.9892 162.616 36.9986C161.529 36.0252 160.087 35.57 158.563 35.57V39.57ZM160.301 40.888C160.301 41.3523 160.096 41.7526 159.802 41.9976L162.363 45.0704C163.581 44.0554 164.301 42.5237 164.301 40.888H160.301ZM159.868 41.9453C159.701 42.0728 159.599 42.119 159.453 42.1555C159.251 42.2059 158.91 42.248 158.227 42.248V46.248C159.014 46.248 159.743 46.2061 160.423 46.036C161.16 45.852 161.75 45.5412 162.298 45.1227L159.868 41.9453ZM158.227 42.248H154.909V46.248H158.227V42.248ZM152.909 44.248V46.348H156.909V44.248H152.909ZM177.058 46.348H175.058V48.348H177.058V46.348ZM184.87 47.188L186.05 45.5732L186.034 45.5612L186.017 45.5495L184.87 47.188ZM185.206 53.95L186.544 55.4366L186.548 55.4331L185.206 53.95ZM169.078 53.53L170.615 52.2496L170.59 52.2204L170.565 52.1921L169.078 53.53ZM176.008 28.456L177.615 27.2655L177.596 27.2398L177.576 27.2146L176.008 28.456ZM177.058 48.348H181.594V44.348H177.058V48.348ZM181.594 48.348C182.884 48.348 183.322 48.5456 183.723 48.8265L186.017 45.5495C184.738 44.6544 183.412 44.348 181.594 44.348V48.348ZM183.69 48.8028C184.277 49.2319 184.634 49.9392 184.634 50.632H188.634C188.634 48.6368 187.647 46.7401 186.05 45.5732L183.69 48.8028ZM184.634 50.632C184.634 51.326 184.298 52.0748 183.864 52.4669L186.548 55.4331C187.879 54.2292 188.634 52.374 188.634 50.632H184.634ZM183.868 52.4634C183.527 52.7707 183.117 53 181.804 53V57C183.683 57 185.206 56.6413 186.544 55.4366L183.868 52.4634ZM181.804 53H172.984V57H181.804V53ZM172.984 53C171.483 53 170.941 52.6411 170.615 52.2496L167.542 54.8104C168.896 56.4349 170.789 57 172.984 57V53ZM170.565 52.1921C170.129 51.7077 170.05 51.5403 169.977 51.2052C169.859 50.6592 169.818 49.7689 169.818 47.776H165.818C165.818 49.6471 165.84 51.0038 166.068 52.0538C166.342 53.3147 166.894 54.0923 167.592 54.8679L170.565 52.1921ZM169.818 47.776V31.984H165.818V47.776H169.818ZM169.818 31.984C169.818 30.7819 170.16 29.9853 170.57 29.5188C170.958 29.0779 171.537 28.776 172.396 28.776V24.776C170.483 24.776 168.774 25.5031 167.565 26.8787C166.379 28.2287 165.818 30.0361 165.818 31.984H169.818ZM172.396 28.776C173.245 28.776 174.041 29.1932 174.44 29.6974L177.576 27.2146C176.379 25.7028 174.403 24.776 172.396 24.776V28.776ZM174.401 29.6465C174.702 30.0527 174.819 30.2983 174.899 30.6487C175.002 31.0918 175.058 31.7654 175.058 33.076H179.058C179.058 31.7406 179.01 30.6712 178.797 29.7493C178.563 28.7347 178.154 27.9933 177.615 27.2655L174.401 29.6465ZM175.058 33.076V46.348H179.058V33.076H175.058ZM196.275 45.76L195.006 47.3055L195.03 47.3251L195.054 47.344L196.275 45.76ZM199.677 45.088L200.787 43.4239V43.4239L199.677 45.088ZM197.829 44.29L198.526 42.4151L198.494 42.4033L198.462 42.3926L197.829 44.29ZM195.561 43.492L196.286 41.628L196.255 41.6158L196.223 41.6046L195.561 43.492ZM201.315 34.672L200.042 36.2139L200.075 36.2411L200.109 36.2668L201.315 34.672ZM201.063 36.688L200.442 38.589L200.467 38.5971L200.492 38.6046L201.063 36.688ZM207.027 39.628L205.742 41.1604L205.751 41.1675L207.027 39.628ZM207.195 52.9L208.61 54.3142L208.618 54.3055L208.627 54.2966L207.195 52.9ZM199.341 53.714C196.686 53.714 194.457 53.0191 192.953 52.0036C191.452 50.9903 190.799 49.7722 190.799 48.616H186.799C186.799 51.4498 188.436 53.7807 190.715 55.3189C192.991 56.8549 196.033 57.714 199.341 57.714V53.714ZM190.799 48.616C190.799 47.3686 191.752 46.416 192.999 46.416V42.416C189.543 42.416 186.799 45.1594 186.799 48.616H190.799ZM192.999 46.416C193.559 46.416 194.091 46.5539 195.006 47.3055L197.545 44.2145C196.108 43.0341 194.708 42.416 192.999 42.416V46.416ZM195.054 47.344C196.015 48.0845 196.7 48.6104 197.23 48.9247C197.53 49.1018 197.859 49.2618 198.239 49.3635C198.626 49.4669 198.961 49.482 199.215 49.482V45.482C199.134 45.482 199.186 45.4761 199.273 45.4994C199.354 45.5211 199.368 45.542 199.268 45.4828C199.001 45.3246 198.552 44.9895 197.497 44.176L195.054 47.344ZM199.215 49.482C200.063 49.482 200.901 49.1708 201.52 48.5192C202.13 47.8782 202.391 47.0546 202.391 46.264H198.391C198.391 46.1874 198.422 45.9728 198.622 45.7623C198.832 45.5412 199.082 45.482 199.215 45.482V49.482ZM202.391 46.264C202.391 45.712 202.27 45.1265 201.93 44.5701C201.609 44.0447 201.176 43.6836 200.787 43.4239L198.568 46.7521C198.683 46.8284 198.607 46.8033 198.517 46.6559C198.47 46.5791 198.435 46.4944 198.413 46.4111C198.393 46.3314 198.391 46.2773 198.391 46.264H202.391ZM200.787 43.4239C200.316 43.11 199.983 42.9562 198.526 42.4151L197.133 46.1649C197.87 46.4387 198.214 46.576 198.394 46.6568C198.435 46.6749 198.461 46.6873 198.476 46.6951C198.491 46.7025 198.498 46.7061 198.499 46.7067C198.501 46.7078 198.502 46.7081 198.568 46.7521L200.787 43.4239ZM198.462 42.3926C197.699 42.1382 196.989 41.9013 196.286 41.628L194.837 45.356C195.646 45.6707 196.448 45.9378 197.197 46.1874L198.462 42.3926ZM196.223 41.6046C194.448 40.9823 193.295 40.1564 192.579 39.2182C191.875 38.2961 191.471 37.1052 191.471 35.512H187.471C187.471 37.8248 188.076 39.9099 189.399 41.6443C190.709 43.3626 192.601 44.5737 194.9 45.3794L196.223 41.6046ZM191.471 35.512C191.471 33.3257 192.298 31.578 193.665 30.3575C195.05 29.1207 197.122 28.314 199.761 28.314V24.314C196.311 24.314 193.238 25.3763 191.001 27.3735C188.745 29.387 187.471 32.2383 187.471 35.512H191.471ZM199.761 28.314C201.946 28.314 203.785 28.8997 205.019 29.741C206.251 30.581 206.749 31.5593 206.749 32.446H210.749C210.749 29.8887 209.274 27.801 207.272 26.436C205.272 25.0723 202.617 24.314 199.761 24.314V28.314ZM206.749 32.446C206.749 33.674 206.029 34.268 205.137 34.268V38.268C208.446 38.268 210.749 35.67 210.749 32.446H206.749ZM205.137 34.268C204.493 34.268 203.906 34.1245 202.522 33.0772L200.109 36.2668C201.833 37.5715 203.262 38.268 205.137 38.268V34.268ZM202.589 33.1301C201.586 32.3012 200.645 31.664 199.383 31.664V35.664C199.363 35.664 199.323 35.6611 199.279 35.6501C199.239 35.6402 199.232 35.6324 199.269 35.6513C199.37 35.7023 199.591 35.842 200.042 36.2139L202.589 33.1301ZM199.383 31.664C197.691 31.664 196.291 33.0634 196.291 34.756H200.291C200.291 35.0407 200.171 35.2637 200.031 35.4037C199.891 35.5438 199.668 35.664 199.383 35.664V31.664ZM196.291 34.756C196.291 35.2085 196.373 35.7371 196.659 36.2646C196.94 36.7825 197.336 37.1496 197.725 37.4173C198.419 37.8944 199.387 38.2441 200.442 38.589L201.685 34.787C201.156 34.6141 200.764 34.4744 200.47 34.3533C200.167 34.2289 200.035 34.1511 199.992 34.1212C199.961 34.1001 200.074 34.1706 200.176 34.3591C200.283 34.5571 200.291 34.7235 200.291 34.756H196.291ZM200.492 38.6046C202.721 39.2695 204.715 40.2989 205.742 41.1604L208.313 38.0956C206.736 36.7731 204.194 35.5345 201.635 34.7714L200.492 38.6046ZM205.751 41.1675C206.94 42.1533 207.841 44.0664 207.841 46.222H211.841C211.841 43.0856 210.559 39.9587 208.304 38.0885L205.751 41.1675ZM207.841 46.222C207.841 48.2469 207.061 50.1737 205.764 51.5034L208.627 54.2966C210.69 52.1823 211.841 49.2371 211.841 46.222H207.841ZM205.781 51.4858C204.357 52.9105 202.398 53.714 199.341 53.714V57.714C203.173 57.714 206.254 56.6695 208.61 54.3142L205.781 51.4858ZM222.503 46.348H220.503V48.348H222.503V46.348ZM230.609 47.398L231.921 45.8888L231.902 45.8722L231.882 45.8561L230.609 47.398ZM230.609 54.034L231.875 55.5819L231.896 55.5651L231.916 55.5476L230.609 54.034ZM216.077 54.622L215.315 56.4714L215.35 56.4857L215.385 56.4987L216.077 54.622ZM213.431 51.262L215.399 50.9087L215.393 50.8757L215.386 50.8429L213.431 51.262ZM213.683 29.758L215.521 30.5458L215.544 30.4913L215.564 30.4354L213.683 29.758ZM215.909 27.448L215.166 25.591L215.138 25.602L215.111 25.6139L215.909 27.448ZM228.971 27.196L228.455 29.1285L228.466 29.1312L228.971 27.196ZM230.651 34.63L229.377 33.0881L229.366 33.097L229.355 33.1061L230.651 34.63ZM222.503 35.638V33.638H220.503V35.638H222.503ZM222.503 37.57H220.503V39.57H222.503V37.57ZM228.677 43.534L229.891 45.1227L229.925 45.0973L229.957 45.0704L228.677 43.534ZM222.503 44.248V42.248H220.503V44.248H222.503ZM222.503 48.348H226.745V44.348H222.503V48.348ZM226.745 48.348C227.696 48.348 228.208 48.411 228.541 48.5025C228.815 48.5776 229.029 48.6874 229.335 48.9399L231.882 45.8561C231.222 45.3106 230.512 44.8954 229.599 44.645C228.746 44.411 227.809 44.348 226.745 44.348V48.348ZM229.296 48.9072C229.838 49.378 230.121 50.0088 230.121 50.674H234.121C234.121 48.8192 233.312 47.098 231.921 45.8888L229.296 48.9072ZM230.121 50.674C230.121 51.4024 229.78 52.1072 229.301 52.5204L231.916 55.5476C233.285 54.3648 234.121 52.5496 234.121 50.674H230.121ZM229.342 52.4861C229.062 52.7156 228.889 52.8003 228.645 52.8623C228.321 52.9447 227.805 53 226.787 53V57C227.868 57 228.801 56.9503 229.632 56.7387C230.543 56.5067 231.231 56.1084 231.875 55.5819L229.342 52.4861ZM226.787 53H219.605V57H226.787V53ZM219.605 53C217.491 53 217.21 52.9082 216.768 52.7453L215.385 56.4987C216.539 56.9238 217.434 57 219.605 57V53ZM216.838 52.7726C216.062 52.4533 215.577 51.8975 215.399 50.9087L211.462 51.6153C211.872 53.9025 213.235 55.6147 215.315 56.4714L216.838 52.7726ZM215.386 50.8429C215.332 50.5912 215.311 50.485 215.294 50.2414C215.274 49.9413 215.263 49.4595 215.263 48.49H211.263C211.263 50.4492 211.303 50.8766 211.475 51.6811L215.386 50.8429ZM215.263 48.49V33.286H211.263V48.49H215.263ZM215.263 33.286C215.263 32.075 215.276 31.5445 215.316 31.2108C215.342 30.9972 215.369 30.8994 215.521 30.5458L211.844 28.9702C211.618 29.4986 211.435 29.9888 211.345 30.7307C211.27 31.3525 211.263 32.145 211.263 33.286H215.263ZM215.564 30.4354C215.731 29.9717 216.175 29.5129 216.706 29.2821L215.111 25.6139C213.71 26.2231 212.39 27.4443 211.801 29.0806L215.564 30.4354ZM216.651 29.305C217.134 29.1117 217.253 29.0763 217.512 29.0453C217.892 28.9996 218.493 28.986 219.899 28.986V24.986C218.574 24.986 217.705 24.9934 217.035 25.0737C216.244 25.1687 215.733 25.3643 215.166 25.591L216.651 29.305ZM219.899 28.986H225.443V24.986H219.899V28.986ZM225.443 28.986C226.778 28.986 227.435 28.9973 227.829 29.0236C228.138 29.0441 228.226 29.0675 228.455 29.1285L229.486 25.2635C228.562 25.0173 228.05 24.986 225.443 24.986V28.986ZM228.466 29.1312C229.555 29.4153 230.163 30.2444 230.163 31.228H234.163C234.163 28.3476 232.25 25.9847 229.475 25.2608L228.466 29.1312ZM230.163 31.228C230.163 32.0494 229.829 32.7147 229.377 33.0881L231.924 36.1719C233.404 34.9493 234.163 33.0946 234.163 31.228H230.163ZM229.355 33.1061C229.014 33.396 228.588 33.638 227.123 33.638V37.638C229.101 37.638 230.607 37.292 231.946 36.1539L229.355 33.1061ZM227.123 33.638H222.503V37.638H227.123V33.638ZM220.503 35.638V37.57H224.503V35.638H220.503ZM222.503 39.57H226.157V35.57H222.503V39.57ZM226.157 39.57C226.901 39.57 227.327 39.7868 227.542 39.9789C227.737 40.1538 227.895 40.4257 227.895 40.888H231.895C231.895 39.3763 231.317 37.9892 230.21 36.9986C229.123 36.0252 227.68 35.57 226.157 35.57V39.57ZM227.895 40.888C227.895 41.3523 227.69 41.7526 227.396 41.9976L229.957 45.0704C231.175 44.0554 231.895 42.5237 231.895 40.888H227.895ZM227.462 41.9453C227.295 42.0728 227.193 42.119 227.047 42.1555C226.845 42.2059 226.504 42.248 225.821 42.248V46.248C226.607 46.248 227.337 46.2061 228.017 46.036C228.753 45.852 229.344 45.5412 229.891 45.1227L227.462 41.9453ZM225.821 42.248H222.503V46.248H225.821V42.248ZM220.503 44.248V46.348H224.503V44.248H220.503Z" fill="black" mask="url(#path-2-outside-1_2_127)"/>
</svg>
