<svg width="1149" height="429" viewBox="0 0 1149 429" fill="none" xmlns="http://www.w3.org/2000/svg">
<mask id="path-1-outside-1_59_7" maskUnits="userSpaceOnUse" x="807.412" y="344.48" width="152.512" height="86.8348" fill="black">
<rect fill="white" x="807.412" y="344.48" width="152.512" height="86.8348"/>
<path d="M817.043 362.101C819.818 354.94 827.862 351.45 835.135 354.269C842.408 357.087 846.009 365.175 843.219 372.373C840.43 379.572 832.253 383.181 825.055 380.391C817.745 377.559 814.195 369.448 817.043 362.101ZM825.242 365.407C824.187 368.129 825.52 371.22 828.206 372.261C830.891 373.301 833.959 371.916 835 369.231C836.026 366.583 834.663 363.567 831.978 362.526C829.293 361.485 826.268 362.759 825.242 365.407ZM861.39 376.025L863.182 371.4C863.818 369.759 864.256 369.071 865.185 368.445C866.313 367.638 867.893 367.435 869.236 367.955C870.467 368.432 871.369 369.425 871.791 370.661C872.152 371.831 872.081 372.79 871.488 374.319L865.592 389.536C864.826 391.513 864.321 392.261 863.251 392.919C862.129 393.6 860.719 393.697 859.451 393.206C858.146 392.7 857.281 391.721 856.856 390.27L853.59 379.437L851.566 384.659C850.93 386.3 850.418 386.959 849.362 387.58C848.217 388.209 846.844 388.32 845.614 387.843C844.345 387.352 843.346 386.278 842.953 384.968C842.643 383.775 842.745 382.957 843.454 381.129L849.553 365.39C850.579 362.742 852.974 361.653 855.548 362.651C856.741 363.113 857.486 363.959 857.97 365.477L861.39 376.025ZM886.996 404.394C881.699 402.342 878.704 398.006 880.077 394.463C880.886 392.374 883.163 391.369 885.252 392.179C886.259 392.569 886.986 393.237 887.698 394.5C888.954 396.573 889.12 396.809 889.717 397.04C890.351 397.286 890.934 396.998 891.18 396.364C891.354 395.916 891.283 395.545 890.951 395.074C890.785 394.838 890.702 394.72 889.584 393.729C889 393.245 888.415 392.761 887.845 392.24C884.718 389.57 883.839 386.526 885.183 383.058C887.062 378.209 892.078 376.335 897.486 378.43C901.962 380.165 904.543 383.91 903.357 386.969C902.591 388.946 900.699 389.843 898.835 389.12C897.716 388.686 896.965 387.967 895.99 386.387C895.406 385.346 895.068 385.001 894.621 384.827C894.099 384.625 893.478 384.899 893.275 385.421C892.986 386.167 893.378 386.705 895.072 388.091C896.952 389.549 898.576 391.336 899.357 392.754C900.394 394.615 900.497 397.228 899.586 399.578C898.719 401.816 897.023 403.647 894.939 404.598C892.61 405.626 890.054 405.579 886.996 404.394ZM903.803 395.721C906.578 388.56 914.622 385.071 921.895 387.889C929.168 390.708 932.769 398.795 929.98 405.994C927.19 413.192 919.014 416.802 911.815 414.012C904.505 411.179 900.956 403.069 903.803 395.721ZM912.003 399.027C910.947 401.75 912.281 404.841 914.966 405.881C917.652 406.922 920.719 405.537 921.76 402.851C922.786 400.203 921.424 397.187 918.739 396.147C916.053 395.106 913.029 396.379 912.003 399.027ZM939.489 415.17L943.517 416.731C944.897 417.265 945.594 417.793 946.137 418.604C946.832 419.688 946.981 421.076 946.519 422.269C946.1 423.351 945.167 424.319 944.109 424.724C943.103 425.107 942.144 425.035 940.726 424.486L932.894 421.451C931.253 420.815 930.33 419.986 929.931 418.801C929.358 417.292 929.463 416.689 930.792 413.258L936.227 399.234C937.311 396.437 939.623 395.231 942.084 396.185C943.352 396.676 944.352 397.75 944.714 398.92C945.069 400.216 944.967 401.034 944.056 403.384L939.489 415.17Z"/>
</mask>
<path d="M817.043 362.101C819.818 354.94 827.862 351.45 835.135 354.269C842.408 357.087 846.009 365.175 843.219 372.373C840.43 379.572 832.253 383.181 825.055 380.391C817.745 377.559 814.195 369.448 817.043 362.101ZM825.242 365.407C824.187 368.129 825.52 371.22 828.206 372.261C830.891 373.301 833.959 371.916 835 369.231C836.026 366.583 834.663 363.567 831.978 362.526C829.293 361.485 826.268 362.759 825.242 365.407ZM861.39 376.025L863.182 371.4C863.818 369.759 864.256 369.071 865.185 368.445C866.313 367.638 867.893 367.435 869.236 367.955C870.467 368.432 871.369 369.425 871.791 370.661C872.152 371.831 872.081 372.79 871.488 374.319L865.592 389.536C864.826 391.513 864.321 392.261 863.251 392.919C862.129 393.6 860.719 393.697 859.451 393.206C858.146 392.7 857.281 391.721 856.856 390.27L853.59 379.437L851.566 384.659C850.93 386.3 850.418 386.959 849.362 387.58C848.217 388.209 846.844 388.32 845.614 387.843C844.345 387.352 843.346 386.278 842.953 384.968C842.643 383.775 842.745 382.957 843.454 381.129L849.553 365.39C850.579 362.742 852.974 361.653 855.548 362.651C856.741 363.113 857.486 363.959 857.97 365.477L861.39 376.025ZM886.996 404.394C881.699 402.342 878.704 398.006 880.077 394.463C880.886 392.374 883.163 391.369 885.252 392.179C886.259 392.569 886.986 393.237 887.698 394.5C888.954 396.573 889.12 396.809 889.717 397.04C890.351 397.286 890.934 396.998 891.18 396.364C891.354 395.916 891.283 395.545 890.951 395.074C890.785 394.838 890.702 394.72 889.584 393.729C889 393.245 888.415 392.761 887.845 392.24C884.718 389.57 883.839 386.526 885.183 383.058C887.062 378.209 892.078 376.335 897.486 378.43C901.962 380.165 904.543 383.91 903.357 386.969C902.591 388.946 900.699 389.843 898.835 389.12C897.716 388.686 896.965 387.967 895.99 386.387C895.406 385.346 895.068 385.001 894.621 384.827C894.099 384.625 893.478 384.899 893.275 385.421C892.986 386.167 893.378 386.705 895.072 388.091C896.952 389.549 898.576 391.336 899.357 392.754C900.394 394.615 900.497 397.228 899.586 399.578C898.719 401.816 897.023 403.647 894.939 404.598C892.61 405.626 890.054 405.579 886.996 404.394ZM903.803 395.721C906.578 388.56 914.622 385.071 921.895 387.889C929.168 390.708 932.769 398.795 929.98 405.994C927.19 413.192 919.014 416.802 911.815 414.012C904.505 411.179 900.956 403.069 903.803 395.721ZM912.003 399.027C910.947 401.75 912.281 404.841 914.966 405.881C917.652 406.922 920.719 405.537 921.76 402.851C922.786 400.203 921.424 397.187 918.739 396.147C916.053 395.106 913.029 396.379 912.003 399.027ZM939.489 415.17L943.517 416.731C944.897 417.265 945.594 417.793 946.137 418.604C946.832 419.688 946.981 421.076 946.519 422.269C946.1 423.351 945.167 424.319 944.109 424.724C943.103 425.107 942.144 425.035 940.726 424.486L932.894 421.451C931.253 420.815 930.33 419.986 929.931 418.801C929.358 417.292 929.463 416.689 930.792 413.258L936.227 399.234C937.311 396.437 939.623 395.231 942.084 396.185C943.352 396.676 944.352 397.75 944.714 398.92C945.069 400.216 944.967 401.034 944.056 403.384L939.489 415.17Z" fill="white"/>
<path d="M819.84 363.185C822.002 357.605 828.286 354.832 834.051 357.066L836.219 351.471C827.438 348.069 817.633 352.274 814.245 361.017L819.84 363.185ZM834.051 357.066C839.8 359.294 842.605 365.656 840.422 371.289L846.017 373.457C849.413 364.693 845.016 354.88 836.219 351.471L834.051 357.066ZM840.422 371.289C838.231 376.943 831.792 379.785 826.139 377.594L823.971 383.189C832.714 386.577 842.629 382.2 846.017 373.457L840.422 371.289ZM826.139 377.594C820.389 375.366 817.585 369.003 819.84 363.185L814.245 361.017C810.805 369.894 815.1 379.751 823.971 383.189L826.139 377.594ZM822.445 364.323C820.807 368.549 822.85 373.403 827.122 375.058L829.29 369.463C828.19 369.037 827.567 367.71 828.039 366.491L822.445 364.323ZM827.122 375.058C831.38 376.708 836.168 374.517 837.797 370.315L832.202 368.147C831.75 369.315 830.403 369.895 829.29 369.463L827.122 375.058ZM837.797 370.315C839.438 366.08 837.25 361.352 833.062 359.729L830.894 365.323C832.077 365.782 832.614 367.085 832.202 368.147L837.797 370.315ZM833.062 359.729C828.903 358.117 824.097 360.06 822.445 364.323L828.039 366.491C828.44 365.457 829.683 364.854 830.894 365.323L833.062 359.729ZM861.39 376.025L858.536 376.95L861.138 384.977L864.187 377.109L861.39 376.025ZM865.185 368.445L866.863 370.932L866.897 370.909L866.931 370.884L865.185 368.445ZM871.791 370.661L874.657 369.775L874.644 369.733L874.63 369.692L871.791 370.661ZM863.251 392.919L864.807 395.484L864.815 395.48L864.822 395.475L863.251 392.919ZM856.856 390.27L859.736 389.428L859.732 389.416L859.729 389.404L856.856 390.27ZM853.59 379.437L856.462 378.571L853.944 370.221L850.792 378.354L853.59 379.437ZM849.362 387.58L850.807 390.209L850.845 390.188L850.882 390.166L849.362 387.58ZM842.953 384.968L840.049 385.722L840.063 385.776L840.079 385.829L842.953 384.968ZM857.97 365.477L855.112 366.389L855.116 366.402L857.97 365.477ZM864.187 377.109L865.979 372.484L860.385 370.316L858.592 374.941L864.187 377.109ZM865.979 372.484C866.279 371.712 866.451 371.383 866.566 371.212C866.631 371.115 866.682 371.054 866.863 370.932L863.508 365.957C861.82 367.095 861.099 368.472 860.385 370.316L865.979 372.484ZM866.931 370.884C867.224 370.675 867.738 370.592 868.152 370.752L870.32 365.158C868.048 364.277 865.402 364.6 863.439 366.005L866.931 370.884ZM868.152 370.752C868.502 370.888 868.796 371.176 868.951 371.63L874.63 369.692C873.941 367.674 872.431 365.976 870.32 365.158L868.152 370.752ZM868.925 371.547C869.012 371.829 869.018 371.976 869.007 372.113C868.993 372.293 868.931 372.615 868.691 373.235L874.286 375.403C874.638 374.494 874.909 373.572 874.988 372.597C875.07 371.58 874.931 370.663 874.657 369.775L868.925 371.547ZM868.691 373.235L862.794 388.452L868.389 390.62L874.286 375.403L868.691 373.235ZM862.794 388.452C862.428 389.397 862.213 389.806 862.065 390.021C861.978 390.147 861.91 390.222 861.68 390.364L864.822 395.475C865.662 394.958 866.382 394.331 867.006 393.424C867.569 392.606 867.989 391.653 868.389 390.62L862.794 388.452ZM861.695 390.355C861.424 390.519 860.996 390.587 860.535 390.408L858.367 396.003C860.443 396.807 862.835 396.681 864.807 395.484L861.695 390.355ZM860.535 390.408C860.177 390.27 859.923 390.067 859.736 389.428L853.977 391.111C854.639 393.376 856.114 395.13 858.367 396.003L860.535 390.408ZM859.729 389.404L856.462 378.571L850.718 380.304L853.984 391.136L859.729 389.404ZM850.792 378.354L848.769 383.575L854.364 385.743L856.387 380.521L850.792 378.354ZM848.769 383.575C848.489 384.298 848.321 384.57 848.232 384.689C848.185 384.751 848.122 384.829 847.842 384.994L850.882 390.166C851.657 389.711 852.379 389.149 853.011 388.316C853.601 387.539 854.008 386.661 854.364 385.743L848.769 383.575ZM847.917 384.951C847.523 385.167 847.075 385.192 846.698 385.046L844.53 390.641C846.614 391.448 848.911 391.251 850.807 390.209L847.917 384.951ZM846.698 385.046C846.288 384.887 845.952 384.525 845.826 384.106L840.079 385.829C840.74 388.032 842.403 389.817 844.53 390.641L846.698 385.046ZM845.856 384.213C845.775 383.901 845.781 383.793 845.797 383.672C845.824 383.459 845.919 383.071 846.251 382.213L840.656 380.045C840.28 381.015 839.97 381.95 839.846 382.901C839.711 383.945 839.82 384.842 840.049 385.722L845.856 384.213ZM846.251 382.213L852.35 366.474L846.756 364.306L840.656 380.045L846.251 382.213ZM852.35 366.474C852.626 365.762 852.985 365.487 853.215 365.383C853.437 365.282 853.831 365.203 854.464 365.448L856.632 359.853C854.691 359.101 852.601 359.068 850.725 359.924C848.857 360.776 847.506 362.369 846.756 364.306L852.35 366.474ZM854.464 365.448C854.655 365.522 854.714 365.582 854.753 365.627C854.812 365.697 854.954 365.894 855.112 366.389L860.828 364.565C860.502 363.543 860.029 362.558 859.297 361.709C858.544 360.836 857.634 360.242 856.632 359.853L854.464 365.448ZM855.116 366.402L858.536 376.95L864.243 375.1L860.824 364.552L855.116 366.402ZM887.698 394.5L885.085 395.973L885.108 396.014L885.132 396.053L887.698 394.5ZM890.951 395.074L893.404 393.347L893.404 393.347L890.951 395.074ZM889.584 393.729L891.574 391.484L891.536 391.45L891.497 391.418L889.584 393.729ZM887.845 392.24L889.869 390.026L889.832 389.991L889.793 389.959L887.845 392.24ZM895.99 386.387L893.372 387.854L893.404 387.909L893.437 387.964L895.99 386.387ZM895.072 388.091L893.173 390.413L893.203 390.438L893.234 390.462L895.072 388.091ZM899.357 392.754L896.729 394.201L896.733 394.208L896.737 394.215L899.357 392.754ZM894.939 404.598L896.15 407.342L896.167 407.335L896.184 407.327L894.939 404.598ZM888.08 401.597C885.889 400.748 884.34 399.486 883.499 398.276C882.661 397.07 882.642 396.146 882.874 395.547L877.279 393.379C876.138 396.324 876.931 399.339 878.572 401.7C880.209 404.056 882.807 405.988 885.912 407.191L888.08 401.597ZM882.874 395.547C883.085 395.003 883.624 394.765 884.168 394.976L886.336 389.381C882.702 387.973 878.687 389.746 877.279 393.379L882.874 395.547ZM884.168 394.976C884.337 395.041 884.434 395.106 884.529 395.196C884.644 395.304 884.83 395.52 885.085 395.973L890.312 393.026C889.351 391.322 888.146 390.083 886.336 389.381L884.168 394.976ZM885.132 396.053C885.713 397.013 886.181 397.788 886.597 398.316C886.84 398.626 887.148 398.961 887.556 399.26C887.972 399.564 888.363 399.733 888.633 399.838L890.801 394.243C890.772 394.232 890.919 394.286 891.096 394.415C891.266 394.54 891.342 394.643 891.312 394.606C891.272 394.554 891.179 394.426 890.992 394.131C890.811 393.845 890.581 393.468 890.265 392.946L885.132 396.053ZM888.633 399.838C889.636 400.227 890.801 400.251 891.874 399.745C892.927 399.249 893.62 398.371 893.977 397.448L888.383 395.28C888.495 394.99 888.773 394.574 889.314 394.319C889.875 394.054 890.431 394.1 890.801 394.243L888.633 399.838ZM893.977 397.448C894.227 396.804 894.359 396.037 894.207 395.194C894.064 394.404 893.713 393.786 893.404 393.347L888.497 396.8C888.52 396.833 888.37 396.636 888.303 396.261C888.225 395.833 888.307 395.475 888.383 395.28L893.977 397.448ZM893.404 393.347C893.011 392.789 892.676 392.461 891.574 391.484L887.594 395.974C888.156 396.472 888.389 396.69 888.493 396.796C888.534 396.837 888.525 396.831 888.497 396.797C888.471 396.765 888.453 396.736 888.497 396.8L893.404 393.347ZM891.497 391.418C890.904 390.927 890.376 390.489 889.869 390.026L885.821 394.454C886.454 395.033 887.095 395.563 887.671 396.04L891.497 391.418ZM889.793 389.959C888.546 388.894 887.957 387.935 887.719 387.113C887.489 386.321 887.503 385.373 887.98 384.142L882.385 381.974C881.518 384.211 881.3 386.519 881.956 388.783C882.603 391.018 884.017 392.916 885.897 394.521L889.793 389.959ZM887.98 384.142C888.625 382.478 889.736 381.447 891.065 380.948C892.428 380.437 894.265 380.4 896.402 381.228L898.57 375.633C895.299 374.366 891.923 374.218 888.957 375.331C885.956 376.458 883.62 378.789 882.385 381.974L887.98 384.142ZM896.402 381.228C898.171 381.913 899.411 382.941 900.073 383.904C900.733 384.863 900.7 385.524 900.56 385.885L906.155 388.053C907.2 385.355 906.469 382.614 905.016 380.503C903.565 378.394 901.277 376.682 898.57 375.633L896.402 381.228ZM900.56 385.885C900.426 386.232 900.262 386.328 900.221 386.347C900.193 386.36 900.166 386.367 900.132 386.368C900.097 386.369 900.027 386.365 899.919 386.323L897.751 391.917C901.305 393.295 904.848 391.425 906.155 388.053L900.56 385.885ZM899.919 386.323C899.71 386.242 899.585 386.162 899.436 386.019C899.246 385.837 898.968 385.501 898.542 384.811L893.437 387.964C894.581 389.815 895.771 391.15 897.751 391.917L899.919 386.323ZM898.607 384.921C897.988 383.817 897.212 382.614 895.705 382.03L893.537 387.625C893.495 387.608 893.443 387.586 893.384 387.555C893.326 387.524 893.268 387.489 893.214 387.451C893.104 387.373 893.04 387.306 893.02 387.284C893.005 387.267 893.029 387.291 893.095 387.39C893.16 387.488 893.25 387.635 893.372 387.854L898.607 384.921ZM895.705 382.03C893.638 381.229 891.279 382.27 890.478 384.337L896.073 386.505C895.676 387.528 894.56 388.021 893.537 387.625L895.705 382.03ZM890.478 384.337C890.274 384.863 890.119 385.547 890.22 386.338C890.319 387.113 890.631 387.737 890.952 388.207C891.507 389.02 892.371 389.757 893.173 390.413L896.972 385.769C896.569 385.44 896.293 385.201 896.103 385.019C895.902 384.829 895.874 384.776 895.908 384.825C895.956 384.895 896.118 385.158 896.172 385.579C896.228 386.016 896.132 386.353 896.073 386.505L890.478 384.337ZM893.234 390.462C894.911 391.762 896.208 393.254 896.729 394.201L901.985 391.307C900.945 389.418 898.994 387.336 896.91 385.72L893.234 390.462ZM896.737 394.215C897.268 395.169 897.434 396.83 896.789 398.494L902.384 400.662C903.56 397.627 903.521 394.061 901.977 391.293L896.737 394.215ZM896.789 398.494C896.19 400.04 895.03 401.259 893.693 401.869L896.184 407.327C899.016 406.035 901.248 403.593 902.384 400.662L896.789 398.494ZM893.727 401.853C892.301 402.483 890.596 402.572 888.08 401.597L885.912 407.191C889.512 408.587 892.918 408.769 896.15 407.342L893.727 401.853ZM906.6 396.805C908.763 391.226 915.046 388.453 920.811 390.687L922.979 385.092C914.198 381.689 904.394 385.895 901.006 394.637L906.6 396.805ZM920.811 390.687C926.56 392.914 929.365 399.277 927.183 404.91L932.777 407.078C936.173 398.314 931.776 388.501 922.979 385.092L920.811 390.687ZM927.183 404.91C924.992 410.563 918.553 413.406 912.899 411.215L910.731 416.809C919.475 420.198 929.389 415.821 932.777 407.078L927.183 404.91ZM912.899 411.215C907.15 408.987 904.346 402.623 906.6 396.805L901.006 394.637C897.566 403.514 901.861 413.372 910.731 416.809L912.899 411.215ZM909.205 397.943C907.568 402.169 909.611 407.023 913.882 408.679L916.05 403.084C914.951 402.658 914.327 401.331 914.8 400.111L909.205 397.943ZM913.882 408.679C918.14 410.329 922.929 408.138 924.557 403.935L918.963 401.767C918.51 402.936 917.163 403.515 916.05 403.084L913.882 408.679ZM924.557 403.935C926.198 399.7 924.011 394.972 919.823 393.349L917.655 398.944C918.837 399.402 919.374 400.706 918.963 401.767L924.557 403.935ZM919.823 393.349C915.663 391.737 910.857 393.68 909.205 397.943L914.8 400.111C915.2 399.078 916.443 398.475 917.655 398.944L919.823 393.349ZM939.489 415.17L936.692 414.086L935.608 416.883L938.405 417.967L939.489 415.17ZM946.137 418.604L948.663 416.985L948.647 416.959L948.63 416.934L946.137 418.604ZM944.109 424.724L945.174 427.529L945.182 427.526L944.109 424.724ZM929.931 418.801L932.774 417.843L932.756 417.789L932.735 417.736L929.931 418.801ZM944.714 398.92L947.607 398.126L947.594 398.079L947.58 398.033L944.714 398.92ZM938.405 417.967L942.433 419.528L944.601 413.933L940.573 412.372L938.405 417.967ZM942.433 419.528C942.984 419.741 943.248 419.897 943.382 419.994C943.485 420.068 943.554 420.137 943.645 420.274L948.63 416.934C947.639 415.455 946.351 414.611 944.601 413.933L942.433 419.528ZM943.612 420.223C943.801 420.518 943.831 420.903 943.721 421.185L949.316 423.353C950.131 421.249 949.864 418.859 948.663 416.985L943.612 420.223ZM943.721 421.185C943.586 421.534 943.246 421.842 943.036 421.923L945.182 427.526C947.087 426.796 948.613 425.168 949.316 423.353L943.721 421.185ZM943.043 421.92C942.93 421.963 942.874 421.968 942.785 421.962C942.649 421.952 942.364 421.903 941.81 421.689L939.642 427.283C941.456 427.986 943.228 428.268 945.174 427.529L943.043 421.92ZM941.81 421.689L933.978 418.654L931.81 424.248L939.642 427.283L941.81 421.689ZM933.978 418.654C933.376 418.42 933.084 418.218 932.948 418.097C932.843 418.002 932.805 417.937 932.774 417.843L927.088 419.759C927.872 422.084 929.684 423.424 931.81 424.248L933.978 418.654ZM932.735 417.736C932.621 417.434 932.604 417.34 932.601 417.321C932.601 417.317 932.601 417.319 932.601 417.316C932.601 417.311 932.601 417.282 932.612 417.216C932.672 416.83 932.892 416.143 933.59 414.342L927.995 412.174C927.363 413.805 926.865 415.134 926.684 416.285C926.453 417.755 926.736 418.838 927.127 419.867L932.735 417.736ZM933.59 414.342L939.024 400.318L933.429 398.15L927.995 412.174L933.59 414.342ZM939.024 400.318C939.364 399.441 939.786 399.088 940.025 398.963C940.218 398.862 940.506 398.791 941 398.982L943.168 393.387C941.2 392.625 939.102 392.679 937.253 393.642C935.449 394.581 934.173 396.23 933.429 398.15L939.024 400.318ZM941 398.982C941.459 399.16 941.771 399.557 941.848 399.806L947.58 398.033C946.933 395.943 945.246 394.193 943.168 393.387L941 398.982ZM941.821 399.714C941.919 400.072 941.913 400.175 941.89 400.329C941.848 400.625 941.708 401.142 941.259 402.3L946.854 404.468C947.316 403.275 947.682 402.209 947.829 401.184C947.997 400.017 947.864 399.063 947.607 398.126L941.821 399.714ZM941.259 402.3L936.692 414.086L942.286 416.254L946.854 404.468L941.259 402.3Z" fill="black" mask="url(#path-1-outside-1_59_7)"/>
<mask id="path-3-outside-2_59_7" maskUnits="userSpaceOnUse" x="83" y="57" width="1062" height="326" fill="black">
<rect fill="white" x="83" y="57" width="1062" height="326"/>
<path d="M168.442 164.03H142.777C126.247 164.03 115.372 160.115 106.672 151.415C97.9719 142.28 93.1869 131.405 93.1869 119.66C93.1869 103.13 104.062 85.73 117.982 79.64C127.987 75.29 131.902 74.855 169.747 74.855H266.317C293.287 74.855 293.287 74.855 298.942 75.725C321.997 78.77 338.092 96.605 338.092 119.225C338.092 131.84 332.002 144.89 322.432 153.59C315.037 160.55 302.857 164.03 285.457 164.03H264.142V308.45C264.142 325.85 261.967 335.42 255.877 345.425C247.177 359.345 232.822 367.175 216.292 367.175C200.197 367.175 185.842 359.78 176.707 347.165C170.182 337.16 168.442 328.895 168.442 309.32V164.03ZM412.79 327.155C400.61 355.43 386.255 367.175 363.2 367.175C336.665 367.175 315.785 346.295 315.785 319.325C315.785 311.06 317.96 302.36 321.875 294.095L412.79 101.39C421.055 83.555 437.585 72.68 456.725 72.68C476.3 72.68 492.83 83.555 501.53 101.825L592.88 296.705C596.795 304.1 598.535 312.365 598.535 319.76C598.535 345.86 576.785 367.175 550.25 367.175C528.065 367.175 515.015 356.735 501.53 327.155H412.79ZM441.935 257.99H471.515L456.725 223.19L441.935 257.99ZM651.445 164.03H625.78C609.25 164.03 598.375 160.115 589.675 151.415C580.975 142.28 576.19 131.405 576.19 119.66C576.19 103.13 587.065 85.73 600.985 79.64C610.99 75.29 614.905 74.855 652.75 74.855H749.32C776.29 74.855 776.29 74.855 781.945 75.725C805 78.77 821.095 96.605 821.095 119.225C821.095 131.84 815.005 144.89 805.435 153.59C798.04 160.55 785.86 164.03 768.46 164.03H747.145V308.45C747.145 325.85 744.97 335.42 738.88 345.425C730.18 359.345 715.825 367.175 699.295 367.175C683.2 367.175 668.845 359.78 659.71 347.165C653.185 337.16 651.445 328.895 651.445 309.32V164.03ZM828.677 218.405C828.677 134.885 896.537 67.895 981.362 67.895C1066.19 67.895 1134.48 135.755 1134.48 219.71C1134.48 303.665 1065.75 372.395 981.797 372.395C896.537 372.395 828.677 304.1 828.677 218.405ZM924.812 219.71C924.812 251.465 950.477 277.565 981.797 277.565C1013.12 277.565 1038.78 251.465 1038.78 220.145C1038.78 189.26 1013.12 164.03 981.797 164.03C950.477 164.03 924.812 188.825 924.812 219.71Z"/>
</mask>
<path d="M168.442 164.03H142.777C126.247 164.03 115.372 160.115 106.672 151.415C97.9719 142.28 93.1869 131.405 93.1869 119.66C93.1869 103.13 104.062 85.73 117.982 79.64C127.987 75.29 131.902 74.855 169.747 74.855H266.317C293.287 74.855 293.287 74.855 298.942 75.725C321.997 78.77 338.092 96.605 338.092 119.225C338.092 131.84 332.002 144.89 322.432 153.59C315.037 160.55 302.857 164.03 285.457 164.03H264.142V308.45C264.142 325.85 261.967 335.42 255.877 345.425C247.177 359.345 232.822 367.175 216.292 367.175C200.197 367.175 185.842 359.78 176.707 347.165C170.182 337.16 168.442 328.895 168.442 309.32V164.03ZM412.79 327.155C400.61 355.43 386.255 367.175 363.2 367.175C336.665 367.175 315.785 346.295 315.785 319.325C315.785 311.06 317.96 302.36 321.875 294.095L412.79 101.39C421.055 83.555 437.585 72.68 456.725 72.68C476.3 72.68 492.83 83.555 501.53 101.825L592.88 296.705C596.795 304.1 598.535 312.365 598.535 319.76C598.535 345.86 576.785 367.175 550.25 367.175C528.065 367.175 515.015 356.735 501.53 327.155H412.79ZM441.935 257.99H471.515L456.725 223.19L441.935 257.99ZM651.445 164.03H625.78C609.25 164.03 598.375 160.115 589.675 151.415C580.975 142.28 576.19 131.405 576.19 119.66C576.19 103.13 587.065 85.73 600.985 79.64C610.99 75.29 614.905 74.855 652.75 74.855H749.32C776.29 74.855 776.29 74.855 781.945 75.725C805 78.77 821.095 96.605 821.095 119.225C821.095 131.84 815.005 144.89 805.435 153.59C798.04 160.55 785.86 164.03 768.46 164.03H747.145V308.45C747.145 325.85 744.97 335.42 738.88 345.425C730.18 359.345 715.825 367.175 699.295 367.175C683.2 367.175 668.845 359.78 659.71 347.165C653.185 337.16 651.445 328.895 651.445 309.32V164.03ZM828.677 218.405C828.677 134.885 896.537 67.895 981.362 67.895C1066.19 67.895 1134.48 135.755 1134.48 219.71C1134.48 303.665 1065.75 372.395 981.797 372.395C896.537 372.395 828.677 304.1 828.677 218.405ZM924.812 219.71C924.812 251.465 950.477 277.565 981.797 277.565C1013.12 277.565 1038.78 251.465 1038.78 220.145C1038.78 189.26 1013.12 164.03 981.797 164.03C950.477 164.03 924.812 188.825 924.812 219.71Z" fill="#CEFF65"/>
<path d="M168.442 164.03H178.442V154.03H168.442V164.03ZM106.672 151.415L99.4306 158.312L99.5146 158.4L99.6009 158.486L106.672 151.415ZM117.982 79.64L113.995 70.4693L113.984 70.4738L113.974 70.4784L117.982 79.64ZM298.942 75.725L297.421 85.6087L297.527 85.6249L297.633 85.6389L298.942 75.725ZM322.432 153.59L315.705 146.191L315.641 146.249L315.578 146.308L322.432 153.59ZM264.142 164.03V154.03H254.142V164.03H264.142ZM255.877 345.425L264.357 350.725L264.388 350.675L264.419 350.624L255.877 345.425ZM176.707 347.165L168.331 352.628L168.464 352.832L168.608 353.03L176.707 347.165ZM168.442 154.03H142.777V174.03H168.442V154.03ZM142.777 154.03C128.063 154.03 120.049 150.65 113.743 144.344L99.6009 158.486C110.694 169.58 124.431 174.03 142.777 174.03V154.03ZM113.913 144.518C106.735 136.982 103.187 128.498 103.187 119.66H83.1869C83.1869 134.312 89.2085 147.578 99.4306 158.312L113.913 144.518ZM103.187 119.66C103.187 113.507 105.245 106.829 108.859 101.012C112.492 95.1626 117.265 90.8687 121.99 88.8016L113.974 70.4784C104.779 74.5012 97.1539 81.9524 91.87 90.4582C86.5665 98.9956 83.1869 109.283 83.1869 119.66H103.187ZM121.969 88.8107C126.228 86.9589 128.672 86.1057 134.358 85.5726C140.746 84.9737 150.648 84.855 169.747 84.855V64.855C151.001 64.855 140.023 64.9538 132.491 65.6599C124.257 66.4318 119.74 67.9711 113.995 70.4693L121.969 88.8107ZM169.747 84.855H266.317V64.855H169.747V84.855ZM266.317 84.855C293.657 84.855 292.713 84.8843 297.421 85.6087L300.463 65.8413C293.861 64.8257 292.917 64.855 266.317 64.855V84.855ZM297.633 85.6389C315.953 88.0585 328.092 101.859 328.092 119.225H348.092C348.092 91.3513 328.041 69.4814 300.251 65.8111L297.633 85.6389ZM328.092 119.225C328.092 128.827 323.339 139.25 315.705 146.191L329.159 160.989C340.665 150.529 348.092 134.853 348.092 119.225H328.092ZM315.578 146.308C310.962 150.653 301.951 154.03 285.457 154.03V174.03C303.763 174.03 319.112 170.447 329.286 160.872L315.578 146.308ZM285.457 154.03H264.142V174.03H285.457V154.03ZM254.142 164.03V308.45H274.142V164.03H254.142ZM254.142 308.45C254.142 324.815 252.127 332.352 247.335 340.226L264.419 350.624C271.806 338.488 274.142 326.885 274.142 308.45H254.142ZM247.397 340.125C240.561 351.063 229.443 357.175 216.292 357.175V377.175C236.201 377.175 253.793 367.627 264.357 350.725L247.397 340.125ZM216.292 357.175C203.374 357.175 192.044 351.294 184.806 341.3L168.608 353.03C179.64 368.266 197.02 377.175 216.292 377.175V357.175ZM185.083 341.702C182.378 337.554 180.854 334.106 179.9 329.711C178.884 325.027 178.442 318.94 178.442 309.32H158.442C158.442 319.275 158.87 327.108 160.355 333.952C161.903 341.084 164.511 346.771 168.331 352.628L185.083 341.702ZM178.442 309.32V164.03H158.442V309.32H178.442ZM412.79 327.155V317.155H406.209L403.605 323.199L412.79 327.155ZM321.875 294.095L330.912 298.376L330.915 298.369L330.919 298.362L321.875 294.095ZM412.79 101.39L421.834 105.657L421.848 105.626L421.863 105.595L412.79 101.39ZM501.53 101.825L510.584 97.5807L510.571 97.5531L510.558 97.5257L501.53 101.825ZM592.88 296.705L583.825 300.949L583.928 301.169L584.042 301.384L592.88 296.705ZM501.53 327.155L510.629 323.007L507.961 317.155H501.53V327.155ZM441.935 257.99L432.731 254.079L426.819 267.99H441.935V257.99ZM471.515 257.99V267.99H486.63L480.718 254.079L471.515 257.99ZM456.725 223.19L465.928 219.279L456.725 197.624L447.521 219.279L456.725 223.19ZM403.605 323.199C397.818 336.633 391.986 344.972 385.781 349.996C379.863 354.786 372.847 357.175 363.2 357.175V377.175C376.607 377.175 388.296 373.691 398.365 365.541C408.145 357.623 415.581 345.952 421.974 331.111L403.605 323.199ZM363.2 357.175C342.247 357.175 325.785 340.832 325.785 319.325H305.785C305.785 351.758 331.082 377.175 363.2 377.175V357.175ZM325.785 319.325C325.785 312.774 327.523 305.531 330.912 298.376L312.837 289.814C308.396 299.189 305.785 309.346 305.785 319.325H325.785ZM330.919 298.362L421.834 105.657L403.746 97.1232L312.831 289.828L330.919 298.362ZM421.863 105.595C428.565 91.1308 441.656 82.68 456.725 82.68V62.68C433.513 62.68 413.544 75.9792 403.716 97.1854L421.863 105.595ZM456.725 82.68C472.21 82.68 485.357 91.1217 492.501 106.124L510.558 97.5257C500.302 75.9883 480.389 62.68 456.725 62.68V82.68ZM492.475 106.069L583.825 300.949L601.934 292.461L510.584 97.5807L492.475 106.069ZM584.042 301.384C587.121 307.2 588.535 313.833 588.535 319.76H608.535C608.535 310.897 606.468 301 601.717 292.026L584.042 301.384ZM588.535 319.76C588.535 340.161 571.44 357.175 550.25 357.175V377.175C582.129 377.175 608.535 351.559 608.535 319.76H588.535ZM550.25 357.175C540.927 357.175 534.514 355.056 528.954 350.513C523 345.649 517.143 337.297 510.629 323.007L492.431 331.303C499.401 346.593 506.812 358.251 516.301 366.002C526.183 374.074 537.387 377.175 550.25 377.175V357.175ZM501.53 317.155H412.79V337.155H501.53V317.155ZM441.935 267.99H471.515V247.99H441.935V267.99ZM480.718 254.079L465.928 219.279L447.521 227.101L462.311 261.901L480.718 254.079ZM447.521 219.279L432.731 254.079L451.138 261.901L465.928 227.101L447.521 219.279ZM651.445 164.03H661.445V154.03H651.445V164.03ZM589.675 151.415L582.433 158.312L582.518 158.4L582.604 158.486L589.675 151.415ZM600.985 79.64L596.998 70.4693L596.987 70.4738L596.977 70.4784L600.985 79.64ZM781.945 75.725L780.424 85.6087L780.53 85.6249L780.635 85.6389L781.945 75.725ZM805.435 153.59L798.708 146.191L798.644 146.249L798.581 146.308L805.435 153.59ZM747.145 164.03V154.03H737.145V164.03H747.145ZM738.88 345.425L747.36 350.725L747.391 350.675L747.422 350.624L738.88 345.425ZM659.71 347.165L651.334 352.628L651.467 352.832L651.61 353.03L659.71 347.165ZM651.445 154.03H625.78V174.03H651.445V154.03ZM625.78 154.03C611.066 154.03 603.052 150.65 596.746 144.344L582.604 158.486C593.697 169.58 607.434 174.03 625.78 174.03V154.03ZM596.916 144.518C589.738 136.982 586.19 128.498 586.19 119.66H566.19C566.19 134.312 572.211 147.578 582.433 158.312L596.916 144.518ZM586.19 119.66C586.19 113.507 588.248 106.829 591.862 101.012C595.495 95.1626 600.268 90.8687 604.993 88.8016L596.977 70.4784C587.782 74.5012 580.157 81.9524 574.873 90.4582C569.569 98.9956 566.19 109.283 566.19 119.66H586.19ZM604.972 88.8107C609.231 86.9589 611.675 86.1057 617.361 85.5726C623.749 84.9737 633.651 84.855 652.75 84.855V64.855C634.004 64.855 623.026 64.9538 615.494 65.6599C607.26 66.4318 602.743 67.9711 596.998 70.4693L604.972 88.8107ZM652.75 84.855H749.32V64.855H652.75V84.855ZM749.32 84.855C776.66 84.855 775.715 84.8843 780.424 85.6087L783.465 65.8413C776.864 64.8257 775.919 64.855 749.32 64.855V84.855ZM780.635 85.6389C798.955 88.0585 811.095 101.859 811.095 119.225H831.095C831.095 91.3513 811.044 69.4814 783.254 65.8111L780.635 85.6389ZM811.095 119.225C811.095 128.827 806.342 139.25 798.708 146.191L812.162 160.989C823.668 150.529 831.095 134.853 831.095 119.225H811.095ZM798.581 146.308C793.965 150.653 784.954 154.03 768.46 154.03V174.03C786.766 174.03 802.115 170.447 812.289 160.872L798.581 146.308ZM768.46 154.03H747.145V174.03H768.46V154.03ZM737.145 164.03V308.45H757.145V164.03H737.145ZM737.145 308.45C737.145 324.815 735.13 332.352 730.338 340.226L747.422 350.624C754.809 338.488 757.145 326.885 757.145 308.45H737.145ZM730.4 340.125C723.563 351.063 712.446 357.175 699.295 357.175V377.175C719.204 377.175 736.796 367.627 747.36 350.725L730.4 340.125ZM699.295 357.175C686.377 357.175 675.047 351.294 667.809 341.3L651.61 353.03C662.643 368.266 680.022 377.175 699.295 377.175V357.175ZM668.086 341.702C665.381 337.554 663.857 334.106 662.903 329.711C661.887 325.027 661.445 318.94 661.445 309.32H641.445C641.445 319.275 641.873 327.108 643.358 333.952C644.906 341.084 647.514 346.771 651.334 352.628L668.086 341.702ZM661.445 309.32V164.03H641.445V309.32H661.445ZM838.677 218.405C838.677 140.538 901.928 77.895 981.362 77.895V57.895C891.145 57.895 818.677 129.232 818.677 218.405H838.677ZM981.362 77.895C1060.74 77.895 1124.48 141.352 1124.48 219.71H1144.48C1144.48 130.158 1071.64 57.895 981.362 57.895V77.895ZM1124.48 219.71C1124.48 298.142 1060.23 362.395 981.797 362.395V382.395C1071.27 382.395 1144.48 309.188 1144.48 219.71H1124.48ZM981.797 362.395C902.115 362.395 838.677 298.633 838.677 218.405H818.677C818.677 309.567 890.959 382.395 981.797 382.395V362.395ZM914.812 219.71C914.812 256.84 944.807 287.565 981.797 287.565V267.565C956.147 267.565 934.812 246.09 934.812 219.71H914.812ZM981.797 287.565C1018.74 287.565 1048.78 256.889 1048.78 220.145H1028.78C1028.78 246.041 1007.5 267.565 981.797 267.565V287.565ZM1048.78 220.145C1048.78 183.588 1018.49 154.03 981.797 154.03V174.03C1007.74 174.03 1028.78 194.932 1028.78 220.145H1048.78ZM981.797 154.03C945.207 154.03 914.812 183.052 914.812 219.71H934.812C934.812 194.598 955.747 174.03 981.797 174.03V154.03Z" fill="black" mask="url(#path-3-outside-2_59_7)"/>
<mask id="path-5-outside-3_59_7" maskUnits="userSpaceOnUse" x="57" y="44" width="1062" height="326" fill="black">
<rect fill="white" x="57" y="44" width="1062" height="326"/>
<path d="M142.442 151.03H116.777C100.247 151.03 89.3719 147.115 80.6719 138.415C71.9719 129.28 67.1869 118.405 67.1869 106.66C67.1869 90.13 78.0619 72.73 91.9819 66.64C101.987 62.29 105.902 61.855 143.747 61.855H240.317C267.287 61.855 267.287 61.855 272.942 62.725C295.997 65.77 312.092 83.605 312.092 106.225C312.092 118.84 306.002 131.89 296.432 140.59C289.037 147.55 276.857 151.03 259.457 151.03H238.142V295.45C238.142 312.85 235.967 322.42 229.877 332.425C221.177 346.345 206.822 354.175 190.292 354.175C174.197 354.175 159.842 346.78 150.707 334.165C144.182 324.16 142.442 315.895 142.442 296.32V151.03ZM386.79 314.155C374.61 342.43 360.255 354.175 337.2 354.175C310.665 354.175 289.785 333.295 289.785 306.325C289.785 298.06 291.96 289.36 295.875 281.095L386.79 88.39C395.055 70.555 411.585 59.68 430.725 59.68C450.3 59.68 466.83 70.555 475.53 88.825L566.88 283.705C570.795 291.1 572.535 299.365 572.535 306.76C572.535 332.86 550.785 354.175 524.25 354.175C502.065 354.175 489.015 343.735 475.53 314.155H386.79ZM415.935 244.99H445.515L430.725 210.19L415.935 244.99ZM625.445 151.03H599.78C583.25 151.03 572.375 147.115 563.675 138.415C554.975 129.28 550.19 118.405 550.19 106.66C550.19 90.13 561.065 72.73 574.985 66.64C584.99 62.29 588.905 61.855 626.75 61.855H723.32C750.29 61.855 750.29 61.855 755.945 62.725C779 65.77 795.095 83.605 795.095 106.225C795.095 118.84 789.005 131.89 779.435 140.59C772.04 147.55 759.86 151.03 742.46 151.03H721.145V295.45C721.145 312.85 718.97 322.42 712.88 332.425C704.18 346.345 689.825 354.175 673.295 354.175C657.2 354.175 642.845 346.78 633.71 334.165C627.185 324.16 625.445 315.895 625.445 296.32V151.03ZM802.677 205.405C802.677 121.885 870.537 54.895 955.362 54.895C1040.19 54.895 1108.48 122.755 1108.48 206.71C1108.48 290.665 1039.75 359.395 955.797 359.395C870.537 359.395 802.677 291.1 802.677 205.405ZM898.812 206.71C898.812 238.465 924.477 264.565 955.797 264.565C987.117 264.565 1012.78 238.465 1012.78 207.145C1012.78 176.26 987.117 151.03 955.797 151.03C924.477 151.03 898.812 175.825 898.812 206.71Z"/>
</mask>
<path d="M142.442 151.03H116.777C100.247 151.03 89.3719 147.115 80.6719 138.415C71.9719 129.28 67.1869 118.405 67.1869 106.66C67.1869 90.13 78.0619 72.73 91.9819 66.64C101.987 62.29 105.902 61.855 143.747 61.855H240.317C267.287 61.855 267.287 61.855 272.942 62.725C295.997 65.77 312.092 83.605 312.092 106.225C312.092 118.84 306.002 131.89 296.432 140.59C289.037 147.55 276.857 151.03 259.457 151.03H238.142V295.45C238.142 312.85 235.967 322.42 229.877 332.425C221.177 346.345 206.822 354.175 190.292 354.175C174.197 354.175 159.842 346.78 150.707 334.165C144.182 324.16 142.442 315.895 142.442 296.32V151.03ZM386.79 314.155C374.61 342.43 360.255 354.175 337.2 354.175C310.665 354.175 289.785 333.295 289.785 306.325C289.785 298.06 291.96 289.36 295.875 281.095L386.79 88.39C395.055 70.555 411.585 59.68 430.725 59.68C450.3 59.68 466.83 70.555 475.53 88.825L566.88 283.705C570.795 291.1 572.535 299.365 572.535 306.76C572.535 332.86 550.785 354.175 524.25 354.175C502.065 354.175 489.015 343.735 475.53 314.155H386.79ZM415.935 244.99H445.515L430.725 210.19L415.935 244.99ZM625.445 151.03H599.78C583.25 151.03 572.375 147.115 563.675 138.415C554.975 129.28 550.19 118.405 550.19 106.66C550.19 90.13 561.065 72.73 574.985 66.64C584.99 62.29 588.905 61.855 626.75 61.855H723.32C750.29 61.855 750.29 61.855 755.945 62.725C779 65.77 795.095 83.605 795.095 106.225C795.095 118.84 789.005 131.89 779.435 140.59C772.04 147.55 759.86 151.03 742.46 151.03H721.145V295.45C721.145 312.85 718.97 322.42 712.88 332.425C704.18 346.345 689.825 354.175 673.295 354.175C657.2 354.175 642.845 346.78 633.71 334.165C627.185 324.16 625.445 315.895 625.445 296.32V151.03ZM802.677 205.405C802.677 121.885 870.537 54.895 955.362 54.895C1040.19 54.895 1108.48 122.755 1108.48 206.71C1108.48 290.665 1039.75 359.395 955.797 359.395C870.537 359.395 802.677 291.1 802.677 205.405ZM898.812 206.71C898.812 238.465 924.477 264.565 955.797 264.565C987.117 264.565 1012.78 238.465 1012.78 207.145C1012.78 176.26 987.117 151.03 955.797 151.03C924.477 151.03 898.812 175.825 898.812 206.71Z" fill="#FFECDA"/>
<path d="M142.442 151.03H152.442V141.03H142.442V151.03ZM80.6719 138.415L73.4306 145.312L73.5146 145.4L73.6009 145.486L80.6719 138.415ZM91.9819 66.64L87.9947 57.4693L87.9842 57.4738L87.9737 57.4784L91.9819 66.64ZM272.942 62.725L271.421 72.6087L271.527 72.6249L271.633 72.6389L272.942 62.725ZM296.432 140.59L289.705 133.191L289.641 133.249L289.578 133.308L296.432 140.59ZM238.142 151.03V141.03H228.142V151.03H238.142ZM229.877 332.425L238.357 337.725L238.388 337.675L238.419 337.624L229.877 332.425ZM150.707 334.165L142.331 339.628L142.464 339.832L142.608 340.03L150.707 334.165ZM142.442 141.03H116.777V161.03H142.442V141.03ZM116.777 141.03C102.063 141.03 94.0494 137.65 87.743 131.344L73.6009 145.486C84.6944 156.58 98.4306 161.03 116.777 161.03V141.03ZM87.9133 131.518C80.7353 123.982 77.1869 115.498 77.1869 106.66H57.1869C57.1869 121.312 63.2085 134.578 73.4306 145.312L87.9133 131.518ZM77.1869 106.66C77.1869 100.507 79.2449 93.8294 82.8588 88.0118C86.4925 82.1626 91.2651 77.8687 95.9901 75.8016L87.9737 57.4784C78.7787 61.5012 71.1539 68.9524 65.87 77.4582C60.5665 85.9956 57.1869 96.2827 57.1869 106.66H77.1869ZM95.9692 75.8107C100.228 73.9589 102.672 73.1057 108.358 72.5726C114.746 71.9737 124.648 71.855 143.747 71.855V51.855C125.001 51.855 114.023 51.9538 106.491 52.6599C98.2572 53.4318 93.7405 54.9711 87.9947 57.4693L95.9692 75.8107ZM143.747 71.855H240.317V51.855H143.747V71.855ZM240.317 71.855C267.657 71.855 266.713 71.8843 271.421 72.6087L274.463 52.8413C267.861 51.8257 266.917 51.855 240.317 51.855V71.855ZM271.633 72.6389C289.953 75.0585 302.092 88.8586 302.092 106.225H322.092C322.092 78.3513 302.041 56.4814 274.251 52.8111L271.633 72.6389ZM302.092 106.225C302.092 115.827 297.339 126.25 289.705 133.191L303.159 147.989C314.665 137.529 322.092 121.853 322.092 106.225H302.092ZM289.578 133.308C284.962 137.653 275.951 141.03 259.457 141.03V161.03C277.763 161.03 293.112 157.447 303.286 147.872L289.578 133.308ZM259.457 141.03H238.142V161.03H259.457V141.03ZM228.142 151.03V295.45H248.142V151.03H228.142ZM228.142 295.45C228.142 311.815 226.127 319.352 221.335 327.226L238.419 337.624C245.806 325.488 248.142 313.885 248.142 295.45H228.142ZM221.397 327.125C214.561 338.063 203.443 344.175 190.292 344.175V364.175C210.201 364.175 227.793 354.627 238.357 337.725L221.397 327.125ZM190.292 344.175C177.374 344.175 166.044 338.294 158.806 328.3L142.608 340.03C153.64 355.266 171.02 364.175 190.292 364.175V344.175ZM159.083 328.702C156.378 324.554 154.854 321.106 153.9 316.711C152.884 312.027 152.442 305.94 152.442 296.32H132.442C132.442 306.275 132.87 314.108 134.355 320.952C135.903 328.084 138.511 333.771 142.331 339.628L159.083 328.702ZM152.442 296.32V151.03H132.442V296.32H152.442ZM386.79 314.155V304.155H380.209L377.605 310.199L386.79 314.155ZM295.875 281.095L304.912 285.376L304.915 285.369L304.919 285.362L295.875 281.095ZM386.79 88.39L395.834 92.6568L395.848 92.6258L395.863 92.5946L386.79 88.39ZM475.53 88.825L484.584 84.5807L484.571 84.5531L484.558 84.5257L475.53 88.825ZM566.88 283.705L557.825 287.949L557.928 288.169L558.042 288.384L566.88 283.705ZM475.53 314.155L484.629 310.007L481.961 304.155H475.53V314.155ZM415.935 244.99L406.731 241.079L400.819 254.99H415.935V244.99ZM445.515 244.99V254.99H460.63L454.718 241.079L445.515 244.99ZM430.725 210.19L439.928 206.279L430.725 184.624L421.521 206.279L430.725 210.19ZM377.605 310.199C371.818 323.633 365.986 331.972 359.781 336.996C353.863 341.786 346.847 344.175 337.2 344.175V364.175C350.607 364.175 362.296 360.691 372.365 352.541C382.145 344.623 389.581 332.952 395.974 318.111L377.605 310.199ZM337.2 344.175C316.247 344.175 299.785 327.832 299.785 306.325H279.785C279.785 338.758 305.082 364.175 337.2 364.175V344.175ZM299.785 306.325C299.785 299.774 301.523 292.531 304.912 285.376L286.837 276.814C282.396 286.189 279.785 296.346 279.785 306.325H299.785ZM304.919 285.362L395.834 92.6568L377.746 84.1232L286.831 276.828L304.919 285.362ZM395.863 92.5946C402.565 78.1308 415.656 69.68 430.725 69.68V49.68C407.513 49.68 387.544 62.9792 377.716 84.1854L395.863 92.5946ZM430.725 69.68C446.21 69.68 459.357 78.1217 466.501 93.1243L484.558 84.5257C474.302 62.9883 454.389 49.68 430.725 49.68V69.68ZM466.475 93.0693L557.825 287.949L575.934 279.461L484.584 84.5807L466.475 93.0693ZM558.042 288.384C561.121 294.2 562.535 300.833 562.535 306.76H582.535C582.535 297.897 580.468 288 575.717 279.026L558.042 288.384ZM562.535 306.76C562.535 327.161 545.44 344.175 524.25 344.175V364.175C556.129 364.175 582.535 338.559 582.535 306.76H562.535ZM524.25 344.175C514.927 344.175 508.514 342.056 502.954 337.513C497 332.649 491.143 324.297 484.629 310.007L466.431 318.303C473.401 333.593 480.812 345.251 490.301 353.002C500.183 361.074 511.387 364.175 524.25 364.175V344.175ZM475.53 304.155H386.79V324.155H475.53V304.155ZM415.935 254.99H445.515V234.99H415.935V254.99ZM454.718 241.079L439.928 206.279L421.521 214.101L436.311 248.901L454.718 241.079ZM421.521 206.279L406.731 241.079L425.138 248.901L439.928 214.101L421.521 206.279ZM625.445 151.03H635.445V141.03H625.445V151.03ZM563.675 138.415L556.433 145.312L556.518 145.4L556.604 145.486L563.675 138.415ZM574.985 66.64L570.998 57.4693L570.987 57.4738L570.977 57.4784L574.985 66.64ZM755.945 62.725L754.424 72.6087L754.53 72.6249L754.635 72.6389L755.945 62.725ZM779.435 140.59L772.708 133.191L772.644 133.249L772.581 133.308L779.435 140.59ZM721.145 151.03V141.03H711.145V151.03H721.145ZM712.88 332.425L721.36 337.725L721.391 337.675L721.422 337.624L712.88 332.425ZM633.71 334.165L625.334 339.628L625.467 339.832L625.61 340.03L633.71 334.165ZM625.445 141.03H599.78V161.03H625.445V141.03ZM599.78 141.03C585.066 141.03 577.052 137.65 570.746 131.344L556.604 145.486C567.697 156.58 581.434 161.03 599.78 161.03V141.03ZM570.916 131.518C563.738 123.982 560.19 115.498 560.19 106.66H540.19C540.19 121.312 546.211 134.578 556.433 145.312L570.916 131.518ZM560.19 106.66C560.19 100.507 562.248 93.8294 565.862 88.0118C569.495 82.1626 574.268 77.8687 578.993 75.8016L570.977 57.4784C561.782 61.5012 554.157 68.9524 548.873 77.4582C543.569 85.9956 540.19 96.2827 540.19 106.66H560.19ZM578.972 75.8107C583.231 73.9589 585.675 73.1057 591.361 72.5726C597.749 71.9737 607.651 71.855 626.75 71.855V51.855C608.004 51.855 597.026 51.9538 589.494 52.6599C581.26 53.4318 576.743 54.9711 570.998 57.4693L578.972 75.8107ZM626.75 71.855H723.32V51.855H626.75V71.855ZM723.32 71.855C750.66 71.855 749.715 71.8843 754.424 72.6087L757.465 52.8413C750.864 51.8257 749.919 51.855 723.32 51.855V71.855ZM754.635 72.6389C772.955 75.0585 785.095 88.8586 785.095 106.225H805.095C805.095 78.3513 785.044 56.4814 757.254 52.8111L754.635 72.6389ZM785.095 106.225C785.095 115.827 780.342 126.25 772.708 133.191L786.162 147.989C797.668 137.529 805.095 121.853 805.095 106.225H785.095ZM772.581 133.308C767.965 137.653 758.954 141.03 742.46 141.03V161.03C760.766 161.03 776.115 157.447 786.289 147.872L772.581 133.308ZM742.46 141.03H721.145V161.03H742.46V141.03ZM711.145 151.03V295.45H731.145V151.03H711.145ZM711.145 295.45C711.145 311.815 709.13 319.352 704.338 327.226L721.422 337.624C728.809 325.488 731.145 313.885 731.145 295.45H711.145ZM704.4 327.125C697.563 338.063 686.446 344.175 673.295 344.175V364.175C693.204 364.175 710.796 354.627 721.36 337.725L704.4 327.125ZM673.295 344.175C660.377 344.175 649.047 338.294 641.809 328.3L625.61 340.03C636.643 355.266 654.022 364.175 673.295 364.175V344.175ZM642.086 328.702C639.381 324.554 637.857 321.106 636.903 316.711C635.887 312.027 635.445 305.94 635.445 296.32H615.445C615.445 306.275 615.873 314.108 617.358 320.952C618.906 328.084 621.514 333.771 625.334 339.628L642.086 328.702ZM635.445 296.32V151.03H615.445V296.32H635.445ZM812.677 205.405C812.677 127.538 875.928 64.895 955.362 64.895V44.895C865.145 44.895 792.677 116.232 792.677 205.405H812.677ZM955.362 64.895C1034.74 64.895 1098.48 128.352 1098.48 206.71H1118.48C1118.48 117.158 1045.64 44.895 955.362 44.895V64.895ZM1098.48 206.71C1098.48 285.142 1034.23 349.395 955.797 349.395V369.395C1045.27 369.395 1118.48 296.188 1118.48 206.71H1098.48ZM955.797 349.395C876.115 349.395 812.677 285.633 812.677 205.405H792.677C792.677 296.567 864.959 369.395 955.797 369.395V349.395ZM888.812 206.71C888.812 243.84 918.807 274.565 955.797 274.565V254.565C930.147 254.565 908.812 233.09 908.812 206.71H888.812ZM955.797 274.565C992.738 274.565 1022.78 243.889 1022.78 207.145H1002.78C1002.78 233.041 981.495 254.565 955.797 254.565V274.565ZM1022.78 207.145C1022.78 170.588 992.489 141.03 955.797 141.03V161.03C981.745 161.03 1002.78 181.932 1002.78 207.145H1022.78ZM955.797 141.03C919.207 141.03 888.812 170.052 888.812 206.71H908.812C908.812 181.598 929.747 161.03 955.797 161.03V141.03Z" fill="black" mask="url(#path-5-outside-3_59_7)"/>
<mask id="path-7-outside-4_59_7" maskUnits="userSpaceOnUse" x="31" y="31" width="1062" height="326" fill="black">
<rect fill="white" x="31" y="31" width="1062" height="326"/>
<path d="M116.442 138.03H90.7769C74.2469 138.03 63.3719 134.115 54.6719 125.415C45.9719 116.28 41.1869 105.405 41.1869 93.66C41.1869 77.13 52.0619 59.73 65.9819 53.64C75.9869 49.29 79.9019 48.855 117.747 48.855H214.317C241.287 48.855 241.287 48.855 246.942 49.725C269.997 52.77 286.092 70.605 286.092 93.225C286.092 105.84 280.002 118.89 270.432 127.59C263.037 134.55 250.857 138.03 233.457 138.03H212.142V282.45C212.142 299.85 209.967 309.42 203.877 319.425C195.177 333.345 180.822 341.175 164.292 341.175C148.197 341.175 133.842 333.78 124.707 321.165C118.182 311.16 116.442 302.895 116.442 283.32V138.03ZM360.79 301.155C348.61 329.43 334.255 341.175 311.2 341.175C284.665 341.175 263.785 320.295 263.785 293.325C263.785 285.06 265.96 276.36 269.875 268.095L360.79 75.39C369.055 57.555 385.585 46.68 404.725 46.68C424.3 46.68 440.83 57.555 449.53 75.825L540.88 270.705C544.795 278.1 546.535 286.365 546.535 293.76C546.535 319.86 524.785 341.175 498.25 341.175C476.065 341.175 463.015 330.735 449.53 301.155H360.79ZM389.935 231.99H419.515L404.725 197.19L389.935 231.99ZM599.445 138.03H573.78C557.25 138.03 546.375 134.115 537.675 125.415C528.975 116.28 524.19 105.405 524.19 93.66C524.19 77.13 535.065 59.73 548.985 53.64C558.99 49.29 562.905 48.855 600.75 48.855H697.32C724.29 48.855 724.29 48.855 729.945 49.725C753 52.77 769.095 70.605 769.095 93.225C769.095 105.84 763.005 118.89 753.435 127.59C746.04 134.55 733.86 138.03 716.46 138.03H695.145V282.45C695.145 299.85 692.97 309.42 686.88 319.425C678.18 333.345 663.825 341.175 647.295 341.175C631.2 341.175 616.845 333.78 607.71 321.165C601.185 311.16 599.445 302.895 599.445 283.32V138.03ZM776.677 192.405C776.677 108.885 844.537 41.895 929.362 41.895C1014.19 41.895 1082.48 109.755 1082.48 193.71C1082.48 277.665 1013.75 346.395 929.797 346.395C844.537 346.395 776.677 278.1 776.677 192.405ZM872.812 193.71C872.812 225.465 898.477 251.565 929.797 251.565C961.117 251.565 986.782 225.465 986.782 194.145C986.782 163.26 961.117 138.03 929.797 138.03C898.477 138.03 872.812 162.825 872.812 193.71Z"/>
</mask>
<path d="M116.442 138.03H90.7769C74.2469 138.03 63.3719 134.115 54.6719 125.415C45.9719 116.28 41.1869 105.405 41.1869 93.66C41.1869 77.13 52.0619 59.73 65.9819 53.64C75.9869 49.29 79.9019 48.855 117.747 48.855H214.317C241.287 48.855 241.287 48.855 246.942 49.725C269.997 52.77 286.092 70.605 286.092 93.225C286.092 105.84 280.002 118.89 270.432 127.59C263.037 134.55 250.857 138.03 233.457 138.03H212.142V282.45C212.142 299.85 209.967 309.42 203.877 319.425C195.177 333.345 180.822 341.175 164.292 341.175C148.197 341.175 133.842 333.78 124.707 321.165C118.182 311.16 116.442 302.895 116.442 283.32V138.03ZM360.79 301.155C348.61 329.43 334.255 341.175 311.2 341.175C284.665 341.175 263.785 320.295 263.785 293.325C263.785 285.06 265.96 276.36 269.875 268.095L360.79 75.39C369.055 57.555 385.585 46.68 404.725 46.68C424.3 46.68 440.83 57.555 449.53 75.825L540.88 270.705C544.795 278.1 546.535 286.365 546.535 293.76C546.535 319.86 524.785 341.175 498.25 341.175C476.065 341.175 463.015 330.735 449.53 301.155H360.79ZM389.935 231.99H419.515L404.725 197.19L389.935 231.99ZM599.445 138.03H573.78C557.25 138.03 546.375 134.115 537.675 125.415C528.975 116.28 524.19 105.405 524.19 93.66C524.19 77.13 535.065 59.73 548.985 53.64C558.99 49.29 562.905 48.855 600.75 48.855H697.32C724.29 48.855 724.29 48.855 729.945 49.725C753 52.77 769.095 70.605 769.095 93.225C769.095 105.84 763.005 118.89 753.435 127.59C746.04 134.55 733.86 138.03 716.46 138.03H695.145V282.45C695.145 299.85 692.97 309.42 686.88 319.425C678.18 333.345 663.825 341.175 647.295 341.175C631.2 341.175 616.845 333.78 607.71 321.165C601.185 311.16 599.445 302.895 599.445 283.32V138.03ZM776.677 192.405C776.677 108.885 844.537 41.895 929.362 41.895C1014.19 41.895 1082.48 109.755 1082.48 193.71C1082.48 277.665 1013.75 346.395 929.797 346.395C844.537 346.395 776.677 278.1 776.677 192.405ZM872.812 193.71C872.812 225.465 898.477 251.565 929.797 251.565C961.117 251.565 986.782 225.465 986.782 194.145C986.782 163.26 961.117 138.03 929.797 138.03C898.477 138.03 872.812 162.825 872.812 193.71Z" fill="#F5CF54"/>
<path d="M116.442 138.03H126.442V128.03H116.442V138.03ZM54.6719 125.415L47.4306 132.312L47.5146 132.4L47.6009 132.486L54.6719 125.415ZM65.9819 53.64L61.9947 44.4693L61.9842 44.4738L61.9737 44.4784L65.9819 53.64ZM246.942 49.725L245.421 59.6087L245.527 59.6249L245.633 59.6389L246.942 49.725ZM270.432 127.59L263.705 120.191L263.641 120.249L263.578 120.308L270.432 127.59ZM212.142 138.03V128.03H202.142V138.03H212.142ZM203.877 319.425L212.357 324.725L212.388 324.675L212.419 324.624L203.877 319.425ZM124.707 321.165L116.331 326.628L116.464 326.832L116.608 327.03L124.707 321.165ZM116.442 128.03H90.7769V148.03H116.442V128.03ZM90.7769 128.03C76.0633 128.03 68.0494 124.65 61.743 118.344L47.6009 132.486C58.6944 143.58 72.4306 148.03 90.7769 148.03V128.03ZM61.9133 118.518C54.7353 110.982 51.1869 102.498 51.1869 93.66H31.1869C31.1869 108.312 37.2085 121.578 47.4306 132.312L61.9133 118.518ZM51.1869 93.66C51.1869 87.5073 53.2449 80.8294 56.8588 75.0118C60.4925 69.1626 65.2651 64.8687 69.9901 62.8016L61.9737 44.4784C52.7787 48.5012 45.1539 55.9524 39.87 64.4582C34.5665 72.9956 31.1869 83.2827 31.1869 93.66H51.1869ZM69.9692 62.8107C74.2284 60.9589 76.6717 60.1057 82.3578 59.5726C88.7462 58.9737 98.6476 58.855 117.747 58.855V38.855C99.0012 38.855 88.0227 38.9538 80.491 39.6599C72.2572 40.4318 67.7405 41.9711 61.9947 44.4693L69.9692 62.8107ZM117.747 58.855H214.317V38.855H117.747V58.855ZM214.317 58.855C241.657 58.855 240.713 58.8843 245.421 59.6087L248.463 39.8413C241.861 38.8257 240.917 38.855 214.317 38.855V58.855ZM245.633 59.6389C263.953 62.0585 276.092 75.8586 276.092 93.225H296.092C296.092 65.3513 276.041 43.4814 248.251 39.8111L245.633 59.6389ZM276.092 93.225C276.092 102.827 271.339 113.25 263.705 120.191L277.159 134.989C288.665 124.529 296.092 108.853 296.092 93.225H276.092ZM263.578 120.308C258.962 124.653 249.951 128.03 233.457 128.03V148.03C251.763 148.03 267.112 144.447 277.286 134.872L263.578 120.308ZM233.457 128.03H212.142V148.03H233.457V128.03ZM202.142 138.03V282.45H222.142V138.03H202.142ZM202.142 282.45C202.142 298.815 200.127 306.352 195.335 314.226L212.419 324.624C219.806 312.488 222.142 300.885 222.142 282.45H202.142ZM195.397 314.125C188.561 325.063 177.443 331.175 164.292 331.175V351.175C184.201 351.175 201.793 341.627 212.357 324.725L195.397 314.125ZM164.292 331.175C151.374 331.175 140.044 325.294 132.806 315.3L116.608 327.03C127.64 342.266 145.02 351.175 164.292 351.175V331.175ZM133.083 315.702C130.378 311.554 128.854 308.106 127.9 303.711C126.884 299.027 126.442 292.94 126.442 283.32H106.442C106.442 293.275 106.87 301.108 108.355 307.952C109.903 315.084 112.511 320.771 116.331 326.628L133.083 315.702ZM126.442 283.32V138.03H106.442V283.32H126.442ZM360.79 301.155V291.155H354.209L351.605 297.199L360.79 301.155ZM269.875 268.095L278.912 272.376L278.915 272.369L278.919 272.362L269.875 268.095ZM360.79 75.39L369.834 79.6568L369.848 79.6258L369.863 79.5946L360.79 75.39ZM449.53 75.825L458.584 71.5807L458.571 71.5531L458.558 71.5257L449.53 75.825ZM540.88 270.705L531.825 274.949L531.928 275.169L532.042 275.384L540.88 270.705ZM449.53 301.155L458.629 297.007L455.961 291.155H449.53V301.155ZM389.935 231.99L380.731 228.079L374.819 241.99H389.935V231.99ZM419.515 231.99V241.99H434.63L428.718 228.079L419.515 231.99ZM404.725 197.19L413.928 193.279L404.725 171.624L395.521 193.279L404.725 197.19ZM351.605 297.199C345.818 310.633 339.986 318.972 333.781 323.996C327.863 328.786 320.847 331.175 311.2 331.175V351.175C324.607 351.175 336.296 347.691 346.365 339.541C356.145 331.623 363.581 319.952 369.974 305.111L351.605 297.199ZM311.2 331.175C290.247 331.175 273.785 314.832 273.785 293.325H253.785C253.785 325.758 279.082 351.175 311.2 351.175V331.175ZM273.785 293.325C273.785 286.774 275.523 279.531 278.912 272.376L260.837 263.814C256.396 273.189 253.785 283.346 253.785 293.325H273.785ZM278.919 272.362L369.834 79.6568L351.746 71.1232L260.831 263.828L278.919 272.362ZM369.863 79.5946C376.565 65.1308 389.656 56.68 404.725 56.68V36.68C381.513 36.68 361.544 49.9792 351.716 71.1854L369.863 79.5946ZM404.725 56.68C420.21 56.68 433.357 65.1217 440.501 80.1243L458.558 71.5257C448.302 49.9883 428.389 36.68 404.725 36.68V56.68ZM440.475 80.0693L531.825 274.949L549.934 266.461L458.584 71.5807L440.475 80.0693ZM532.042 275.384C535.121 281.2 536.535 287.833 536.535 293.76H556.535C556.535 284.897 554.468 275 549.717 266.026L532.042 275.384ZM536.535 293.76C536.535 314.161 519.44 331.175 498.25 331.175V351.175C530.129 351.175 556.535 325.559 556.535 293.76H536.535ZM498.25 331.175C488.927 331.175 482.514 329.056 476.954 324.513C471 319.649 465.143 311.297 458.629 297.007L440.431 305.303C447.401 320.593 454.812 332.251 464.301 340.002C474.183 348.074 485.387 351.175 498.25 351.175V331.175ZM449.53 291.155H360.79V311.155H449.53V291.155ZM389.935 241.99H419.515V221.99H389.935V241.99ZM428.718 228.079L413.928 193.279L395.521 201.101L410.311 235.901L428.718 228.079ZM395.521 193.279L380.731 228.079L399.138 235.901L413.928 201.101L395.521 193.279ZM599.445 138.03H609.445V128.03H599.445V138.03ZM537.675 125.415L530.433 132.312L530.518 132.4L530.604 132.486L537.675 125.415ZM548.985 53.64L544.998 44.4693L544.987 44.4738L544.977 44.4784L548.985 53.64ZM729.945 49.725L728.424 59.6087L728.53 59.6249L728.635 59.6389L729.945 49.725ZM753.435 127.59L746.708 120.191L746.644 120.249L746.581 120.308L753.435 127.59ZM695.145 138.03V128.03H685.145V138.03H695.145ZM686.88 319.425L695.36 324.725L695.391 324.675L695.422 324.624L686.88 319.425ZM607.71 321.165L599.334 326.628L599.467 326.832L599.61 327.03L607.71 321.165ZM599.445 128.03H573.78V148.03H599.445V128.03ZM573.78 128.03C559.066 128.03 551.052 124.65 544.746 118.344L530.604 132.486C541.697 143.58 555.434 148.03 573.78 148.03V128.03ZM544.916 118.518C537.738 110.982 534.19 102.498 534.19 93.66H514.19C514.19 108.312 520.211 121.578 530.433 132.312L544.916 118.518ZM534.19 93.66C534.19 87.5073 536.248 80.8294 539.862 75.0118C543.495 69.1626 548.268 64.8687 552.993 62.8016L544.977 44.4784C535.782 48.5012 528.157 55.9524 522.873 64.4582C517.569 72.9956 514.19 83.2827 514.19 93.66H534.19ZM552.972 62.8107C557.231 60.9589 559.675 60.1057 565.361 59.5726C571.749 58.9737 581.651 58.855 600.75 58.855V38.855C582.004 38.855 571.026 38.9538 563.494 39.6599C555.26 40.4318 550.743 41.9711 544.998 44.4693L552.972 62.8107ZM600.75 58.855H697.32V38.855H600.75V58.855ZM697.32 58.855C724.66 58.855 723.715 58.8843 728.424 59.6087L731.465 39.8413C724.864 38.8257 723.919 38.855 697.32 38.855V58.855ZM728.635 59.6389C746.955 62.0585 759.095 75.8586 759.095 93.225H779.095C779.095 65.3513 759.044 43.4814 731.254 39.8111L728.635 59.6389ZM759.095 93.225C759.095 102.827 754.342 113.25 746.708 120.191L760.162 134.989C771.668 124.529 779.095 108.853 779.095 93.225H759.095ZM746.581 120.308C741.965 124.653 732.954 128.03 716.46 128.03V148.03C734.766 148.03 750.115 144.447 760.289 134.872L746.581 120.308ZM716.46 128.03H695.145V148.03H716.46V128.03ZM685.145 138.03V282.45H705.145V138.03H685.145ZM685.145 282.45C685.145 298.815 683.13 306.352 678.338 314.226L695.422 324.624C702.809 312.488 705.145 300.885 705.145 282.45H685.145ZM678.4 314.125C671.563 325.063 660.446 331.175 647.295 331.175V351.175C667.204 351.175 684.796 341.627 695.36 324.725L678.4 314.125ZM647.295 331.175C634.377 331.175 623.047 325.294 615.809 315.3L599.61 327.03C610.643 342.266 628.022 351.175 647.295 351.175V331.175ZM616.086 315.702C613.381 311.554 611.857 308.106 610.903 303.711C609.887 299.027 609.445 292.94 609.445 283.32H589.445C589.445 293.275 589.873 301.108 591.358 307.952C592.906 315.084 595.514 320.771 599.334 326.628L616.086 315.702ZM609.445 283.32V138.03H589.445V283.32H609.445ZM786.677 192.405C786.677 114.538 849.928 51.895 929.362 51.895V31.895C839.145 31.895 766.677 103.232 766.677 192.405H786.677ZM929.362 51.895C1008.74 51.895 1072.48 115.352 1072.48 193.71H1092.48C1092.48 104.158 1019.64 31.895 929.362 31.895V51.895ZM1072.48 193.71C1072.48 272.142 1008.23 336.395 929.797 336.395V356.395C1019.27 356.395 1092.48 283.188 1092.48 193.71H1072.48ZM929.797 336.395C850.115 336.395 786.677 272.633 786.677 192.405H766.677C766.677 283.567 838.959 356.395 929.797 356.395V336.395ZM862.812 193.71C862.812 230.84 892.807 261.565 929.797 261.565V241.565C904.147 241.565 882.812 220.09 882.812 193.71H862.812ZM929.797 261.565C966.738 261.565 996.782 230.889 996.782 194.145H976.782C976.782 220.041 955.495 241.565 929.797 241.565V261.565ZM996.782 194.145C996.782 157.588 966.489 128.03 929.797 128.03V148.03C955.745 148.03 976.782 168.932 976.782 194.145H996.782ZM929.797 128.03C893.207 128.03 862.812 157.052 862.812 193.71H882.812C882.812 168.598 903.747 148.03 929.797 148.03V128.03Z" fill="black" mask="url(#path-7-outside-4_59_7)"/>
<mask id="path-9-outside-5_59_7" maskUnits="userSpaceOnUse" x="5" y="18" width="1062" height="326" fill="black">
<rect fill="white" x="5" y="18" width="1062" height="326"/>
<path d="M90.4419 125.03H64.7769C48.2469 125.03 37.3719 121.115 28.6719 112.415C19.9719 103.28 15.1869 92.405 15.1869 80.66C15.1869 64.13 26.0619 46.73 39.9819 40.64C49.9869 36.29 53.9019 35.855 91.7469 35.855H188.317C215.287 35.855 215.287 35.855 220.942 36.725C243.997 39.77 260.092 57.605 260.092 80.225C260.092 92.84 254.002 105.89 244.432 114.59C237.037 121.55 224.857 125.03 207.457 125.03H186.142V269.45C186.142 286.85 183.967 296.42 177.877 306.425C169.177 320.345 154.822 328.175 138.292 328.175C122.197 328.175 107.842 320.78 98.7069 308.165C92.1819 298.16 90.4419 289.895 90.4419 270.32V125.03ZM334.79 288.155C322.61 316.43 308.255 328.175 285.2 328.175C258.665 328.175 237.785 307.295 237.785 280.325C237.785 272.06 239.96 263.36 243.875 255.095L334.79 62.39C343.055 44.555 359.585 33.68 378.725 33.68C398.3 33.68 414.83 44.555 423.53 62.825L514.88 257.705C518.795 265.1 520.535 273.365 520.535 280.76C520.535 306.86 498.785 328.175 472.25 328.175C450.065 328.175 437.015 317.735 423.53 288.155H334.79ZM363.935 218.99H393.515L378.725 184.19L363.935 218.99ZM573.445 125.03H547.78C531.25 125.03 520.375 121.115 511.675 112.415C502.975 103.28 498.19 92.405 498.19 80.66C498.19 64.13 509.065 46.73 522.985 40.64C532.99 36.29 536.905 35.855 574.75 35.855H671.32C698.29 35.855 698.29 35.855 703.945 36.725C727 39.77 743.095 57.605 743.095 80.225C743.095 92.84 737.005 105.89 727.435 114.59C720.04 121.55 707.86 125.03 690.46 125.03H669.145V269.45C669.145 286.85 666.97 296.42 660.88 306.425C652.18 320.345 637.825 328.175 621.295 328.175C605.2 328.175 590.845 320.78 581.71 308.165C575.185 298.16 573.445 289.895 573.445 270.32V125.03ZM750.677 179.405C750.677 95.885 818.537 28.895 903.362 28.895C988.187 28.895 1056.48 96.755 1056.48 180.71C1056.48 264.665 987.752 333.395 903.797 333.395C818.537 333.395 750.677 265.1 750.677 179.405ZM846.812 180.71C846.812 212.465 872.477 238.565 903.797 238.565C935.117 238.565 960.782 212.465 960.782 181.145C960.782 150.26 935.117 125.03 903.797 125.03C872.477 125.03 846.812 149.825 846.812 180.71Z"/>
</mask>
<path d="M90.4419 125.03H64.7769C48.2469 125.03 37.3719 121.115 28.6719 112.415C19.9719 103.28 15.1869 92.405 15.1869 80.66C15.1869 64.13 26.0619 46.73 39.9819 40.64C49.9869 36.29 53.9019 35.855 91.7469 35.855H188.317C215.287 35.855 215.287 35.855 220.942 36.725C243.997 39.77 260.092 57.605 260.092 80.225C260.092 92.84 254.002 105.89 244.432 114.59C237.037 121.55 224.857 125.03 207.457 125.03H186.142V269.45C186.142 286.85 183.967 296.42 177.877 306.425C169.177 320.345 154.822 328.175 138.292 328.175C122.197 328.175 107.842 320.78 98.7069 308.165C92.1819 298.16 90.4419 289.895 90.4419 270.32V125.03ZM334.79 288.155C322.61 316.43 308.255 328.175 285.2 328.175C258.665 328.175 237.785 307.295 237.785 280.325C237.785 272.06 239.96 263.36 243.875 255.095L334.79 62.39C343.055 44.555 359.585 33.68 378.725 33.68C398.3 33.68 414.83 44.555 423.53 62.825L514.88 257.705C518.795 265.1 520.535 273.365 520.535 280.76C520.535 306.86 498.785 328.175 472.25 328.175C450.065 328.175 437.015 317.735 423.53 288.155H334.79ZM363.935 218.99H393.515L378.725 184.19L363.935 218.99ZM573.445 125.03H547.78C531.25 125.03 520.375 121.115 511.675 112.415C502.975 103.28 498.19 92.405 498.19 80.66C498.19 64.13 509.065 46.73 522.985 40.64C532.99 36.29 536.905 35.855 574.75 35.855H671.32C698.29 35.855 698.29 35.855 703.945 36.725C727 39.77 743.095 57.605 743.095 80.225C743.095 92.84 737.005 105.89 727.435 114.59C720.04 121.55 707.86 125.03 690.46 125.03H669.145V269.45C669.145 286.85 666.97 296.42 660.88 306.425C652.18 320.345 637.825 328.175 621.295 328.175C605.2 328.175 590.845 320.78 581.71 308.165C575.185 298.16 573.445 289.895 573.445 270.32V125.03ZM750.677 179.405C750.677 95.885 818.537 28.895 903.362 28.895C988.187 28.895 1056.48 96.755 1056.48 180.71C1056.48 264.665 987.752 333.395 903.797 333.395C818.537 333.395 750.677 265.1 750.677 179.405ZM846.812 180.71C846.812 212.465 872.477 238.565 903.797 238.565C935.117 238.565 960.782 212.465 960.782 181.145C960.782 150.26 935.117 125.03 903.797 125.03C872.477 125.03 846.812 149.825 846.812 180.71Z" fill="#FFECDA"/>
<path d="M90.4419 125.03H100.442V115.03H90.4419V125.03ZM28.6719 112.415L21.4306 119.312L21.5146 119.4L21.6009 119.486L28.6719 112.415ZM39.9819 40.64L35.9947 31.4693L35.9842 31.4738L35.9737 31.4784L39.9819 40.64ZM220.942 36.725L219.421 46.6087L219.527 46.6249L219.633 46.6389L220.942 36.725ZM244.432 114.59L237.705 107.191L237.641 107.249L237.578 107.308L244.432 114.59ZM186.142 125.03V115.03H176.142V125.03H186.142ZM177.877 306.425L186.357 311.725L186.388 311.675L186.419 311.624L177.877 306.425ZM98.7069 308.165L90.3308 313.628L90.4643 313.832L90.6075 314.03L98.7069 308.165ZM90.4419 115.03H64.7769V135.03H90.4419V115.03ZM64.7769 115.03C50.0633 115.03 42.0494 111.65 35.743 105.344L21.6009 119.486C32.6944 130.58 46.4306 135.03 64.7769 135.03V115.03ZM35.9133 105.518C28.7353 97.9816 25.1869 89.4978 25.1869 80.66H5.18693C5.18693 95.3122 11.2085 108.578 21.4306 119.312L35.9133 105.518ZM25.1869 80.66C25.1869 74.5073 27.2449 67.8294 30.8588 62.0118C34.4925 56.1626 39.2651 51.8687 43.9901 49.8016L35.9737 31.4784C26.7787 35.5012 19.1539 42.9524 13.87 51.4582C8.56645 59.9956 5.18693 70.2827 5.18693 80.66H25.1869ZM43.9692 49.8107C48.2284 47.9589 50.6717 47.1057 56.3578 46.5726C62.7462 45.9737 72.6476 45.855 91.7469 45.855V25.855C73.0012 25.855 62.0227 25.9538 54.491 26.6599C46.2572 27.4318 41.7405 28.9711 35.9947 31.4693L43.9692 49.8107ZM91.7469 45.855H188.317V25.855H91.7469V45.855ZM188.317 45.855C215.657 45.855 214.713 45.8843 219.421 46.6087L222.463 26.8413C215.861 25.8257 214.917 25.855 188.317 25.855V45.855ZM219.633 46.6389C237.953 49.0585 250.092 62.8586 250.092 80.225H270.092C270.092 52.3513 250.041 30.4814 222.251 26.8111L219.633 46.6389ZM250.092 80.225C250.092 89.8275 245.339 100.25 237.705 107.191L251.159 121.989C262.665 111.529 270.092 95.8525 270.092 80.225H250.092ZM237.578 107.308C232.962 111.653 223.951 115.03 207.457 115.03V135.03C225.763 135.03 241.112 131.447 251.286 121.872L237.578 107.308ZM207.457 115.03H186.142V135.03H207.457V115.03ZM176.142 125.03V269.45H196.142V125.03H176.142ZM176.142 269.45C176.142 285.815 174.127 293.352 169.335 301.226L186.419 311.624C193.806 299.488 196.142 287.885 196.142 269.45H176.142ZM169.397 301.125C162.561 312.063 151.443 318.175 138.292 318.175V338.175C158.201 338.175 175.793 328.627 186.357 311.725L169.397 301.125ZM138.292 318.175C125.374 318.175 114.044 312.294 106.806 302.3L90.6075 314.03C101.64 329.266 119.02 338.175 138.292 338.175V318.175ZM107.083 302.702C104.378 298.554 102.854 295.106 101.9 290.711C100.884 286.027 100.442 279.94 100.442 270.32H80.4419C80.4419 280.275 80.8699 288.108 82.355 294.952C83.9026 302.084 86.5112 307.771 90.3308 313.628L107.083 302.702ZM100.442 270.32V125.03H80.4419V270.32H100.442ZM334.79 288.155V278.155H328.209L325.605 284.199L334.79 288.155ZM243.875 255.095L252.912 259.376L252.915 259.369L252.919 259.362L243.875 255.095ZM334.79 62.39L343.834 66.6568L343.848 66.6258L343.863 66.5946L334.79 62.39ZM423.53 62.825L432.584 58.5807L432.571 58.5531L432.558 58.5257L423.53 62.825ZM514.88 257.705L505.825 261.949L505.928 262.169L506.042 262.384L514.88 257.705ZM423.53 288.155L432.629 284.007L429.961 278.155H423.53V288.155ZM363.935 218.99L354.731 215.079L348.819 228.99H363.935V218.99ZM393.515 218.99V228.99H408.63L402.718 215.079L393.515 218.99ZM378.725 184.19L387.928 180.279L378.725 158.624L369.521 180.279L378.725 184.19ZM325.605 284.199C319.818 297.633 313.986 305.972 307.781 310.996C301.863 315.786 294.847 318.175 285.2 318.175V338.175C298.607 338.175 310.296 334.691 320.365 326.541C330.145 318.623 337.581 306.952 343.974 292.111L325.605 284.199ZM285.2 318.175C264.247 318.175 247.785 301.832 247.785 280.325H227.785C227.785 312.758 253.082 338.175 285.2 338.175V318.175ZM247.785 280.325C247.785 273.774 249.523 266.531 252.912 259.376L234.837 250.814C230.396 260.189 227.785 270.346 227.785 280.325H247.785ZM252.919 259.362L343.834 66.6568L325.746 58.1232L234.831 250.828L252.919 259.362ZM343.863 66.5946C350.565 52.1308 363.656 43.68 378.725 43.68V23.68C355.513 23.68 335.544 36.9792 325.716 58.1854L343.863 66.5946ZM378.725 43.68C394.21 43.68 407.357 52.1217 414.501 67.1243L432.558 58.5257C422.302 36.9883 402.389 23.68 378.725 23.68V43.68ZM414.475 67.0693L505.825 261.949L523.934 253.461L432.584 58.5807L414.475 67.0693ZM506.042 262.384C509.121 268.2 510.535 274.833 510.535 280.76H530.535C530.535 271.897 528.468 262 523.717 253.026L506.042 262.384ZM510.535 280.76C510.535 301.161 493.44 318.175 472.25 318.175V338.175C504.129 338.175 530.535 312.559 530.535 280.76H510.535ZM472.25 318.175C462.927 318.175 456.514 316.056 450.954 311.513C445 306.649 439.143 298.297 432.629 284.007L414.431 292.303C421.401 307.593 428.812 319.251 438.301 327.002C448.183 335.074 459.387 338.175 472.25 338.175V318.175ZM423.53 278.155H334.79V298.155H423.53V278.155ZM363.935 228.99H393.515V208.99H363.935V228.99ZM402.718 215.079L387.928 180.279L369.521 188.101L384.311 222.901L402.718 215.079ZM369.521 180.279L354.731 215.079L373.138 222.901L387.928 188.101L369.521 180.279ZM573.445 125.03H583.445V115.03H573.445V125.03ZM511.675 112.415L504.433 119.312L504.518 119.4L504.604 119.486L511.675 112.415ZM522.985 40.64L518.998 31.4693L518.987 31.4738L518.977 31.4784L522.985 40.64ZM703.945 36.725L702.424 46.6087L702.53 46.6249L702.635 46.6389L703.945 36.725ZM727.435 114.59L720.708 107.191L720.644 107.249L720.581 107.308L727.435 114.59ZM669.145 125.03V115.03H659.145V125.03H669.145ZM660.88 306.425L669.36 311.725L669.391 311.675L669.422 311.624L660.88 306.425ZM581.71 308.165L573.334 313.628L573.467 313.832L573.61 314.03L581.71 308.165ZM573.445 115.03H547.78V135.03H573.445V115.03ZM547.78 115.03C533.066 115.03 525.052 111.65 518.746 105.344L504.604 119.486C515.697 130.58 529.434 135.03 547.78 135.03V115.03ZM518.916 105.518C511.738 97.9816 508.19 89.4978 508.19 80.66H488.19C488.19 95.3122 494.211 108.578 504.433 119.312L518.916 105.518ZM508.19 80.66C508.19 74.5073 510.248 67.8294 513.862 62.0118C517.495 56.1626 522.268 51.8687 526.993 49.8016L518.977 31.4784C509.782 35.5012 502.157 42.9524 496.873 51.4582C491.569 59.9956 488.19 70.2827 488.19 80.66H508.19ZM526.972 49.8107C531.231 47.9589 533.675 47.1057 539.361 46.5726C545.749 45.9737 555.651 45.855 574.75 45.855V25.855C556.004 25.855 545.026 25.9538 537.494 26.6599C529.26 27.4318 524.743 28.9711 518.998 31.4693L526.972 49.8107ZM574.75 45.855H671.32V25.855H574.75V45.855ZM671.32 45.855C698.66 45.855 697.715 45.8843 702.424 46.6087L705.465 26.8413C698.864 25.8257 697.919 25.855 671.32 25.855V45.855ZM702.635 46.6389C720.955 49.0585 733.095 62.8586 733.095 80.225H753.095C753.095 52.3513 733.044 30.4814 705.254 26.8111L702.635 46.6389ZM733.095 80.225C733.095 89.8275 728.342 100.25 720.708 107.191L734.162 121.989C745.668 111.529 753.095 95.8525 753.095 80.225H733.095ZM720.581 107.308C715.965 111.653 706.954 115.03 690.46 115.03V135.03C708.766 135.03 724.115 131.447 734.289 121.872L720.581 107.308ZM690.46 115.03H669.145V135.03H690.46V115.03ZM659.145 125.03V269.45H679.145V125.03H659.145ZM659.145 269.45C659.145 285.815 657.13 293.352 652.338 301.226L669.422 311.624C676.809 299.488 679.145 287.885 679.145 269.45H659.145ZM652.4 301.125C645.563 312.063 634.446 318.175 621.295 318.175V338.175C641.204 338.175 658.796 328.627 669.36 311.725L652.4 301.125ZM621.295 318.175C608.377 318.175 597.047 312.294 589.809 302.3L573.61 314.03C584.643 329.266 602.022 338.175 621.295 338.175V318.175ZM590.086 302.702C587.381 298.554 585.857 295.106 584.903 290.711C583.887 286.027 583.445 279.94 583.445 270.32H563.445C563.445 280.275 563.873 288.108 565.358 294.952C566.906 302.084 569.514 307.771 573.334 313.628L590.086 302.702ZM583.445 270.32V125.03H563.445V270.32H583.445ZM760.677 179.405C760.677 101.538 823.928 38.895 903.362 38.895V18.895C813.145 18.895 740.677 90.2315 740.677 179.405H760.677ZM903.362 38.895C982.738 38.895 1046.48 102.352 1046.48 180.71H1066.48C1066.48 91.1579 993.635 18.895 903.362 18.895V38.895ZM1046.48 180.71C1046.48 259.142 982.229 323.395 903.797 323.395V343.395C993.275 343.395 1066.48 270.188 1066.48 180.71H1046.48ZM903.797 323.395C824.115 323.395 760.677 259.633 760.677 179.405H740.677C740.677 270.567 812.959 343.395 903.797 343.395V323.395ZM836.812 180.71C836.812 217.84 866.807 248.565 903.797 248.565V228.565C878.147 228.565 856.812 207.09 856.812 180.71H836.812ZM903.797 248.565C940.738 248.565 970.782 217.889 970.782 181.145H950.782C950.782 207.041 929.495 228.565 903.797 228.565V248.565ZM970.782 181.145C970.782 144.588 940.489 115.03 903.797 115.03V135.03C929.745 135.03 950.782 155.932 950.782 181.145H970.782ZM903.797 115.03C867.207 115.03 836.812 144.052 836.812 180.71H856.812C856.812 155.598 877.747 135.03 903.797 135.03V115.03Z" fill="black" mask="url(#path-9-outside-5_59_7)"/>
</svg>
