<svg width="363" height="82" viewBox="0 0 363 82" fill="none" xmlns="http://www.w3.org/2000/svg">
<rect x="1.5" y="1.5" width="360" height="79" rx="39.5" fill="#F5CB24" stroke="black" stroke-width="3"/>
<mask id="path-2-outside-1_2_88" maskUnits="userSpaceOnUse" x="75.9277" y="24" width="212" height="34" fill="black">
<rect fill="white" x="75.9277" y="24" width="212" height="34"/>
<path d="M85.7509 35.596H83.2729C81.6769 35.596 80.6269 35.218 79.7869 34.378C78.9469 33.496 78.4849 32.446 78.4849 31.312C78.4849 29.716 79.5349 28.036 80.8789 27.448C81.8449 27.028 82.2229 26.986 85.8769 26.986H95.2009C97.8049 26.986 97.8049 26.986 98.3509 27.07C100.577 27.364 102.131 29.086 102.131 31.27C102.131 32.488 101.543 33.748 100.619 34.588C99.9049 35.26 98.7289 35.596 97.0489 35.596H94.9909V49.54C94.9909 51.22 94.7809 52.144 94.1929 53.11C93.3529 54.454 91.9669 55.21 90.3709 55.21C88.8169 55.21 87.4309 54.496 86.5489 53.278C85.9189 52.312 85.7509 51.514 85.7509 49.624V35.596ZM114.253 46.348H118.495C120.511 46.348 121.393 46.6 122.359 47.398C123.325 48.238 123.871 49.414 123.871 50.674C123.871 51.976 123.283 53.236 122.359 54.034C121.435 54.79 120.637 55 118.537 55H111.355C109.213 55 108.625 54.916 107.827 54.622C106.399 54.034 105.475 52.9 105.181 51.262C105.055 50.674 105.013 50.422 105.013 48.49V33.286C105.013 30.934 105.055 30.64 105.433 29.758C105.811 28.708 106.693 27.868 107.659 27.448C108.709 27.028 108.919 26.986 111.649 26.986H117.193C119.839 26.986 120.091 27.028 120.721 27.196C122.653 27.7 123.913 29.296 123.913 31.228C123.913 32.572 123.367 33.832 122.401 34.63C121.561 35.344 120.595 35.638 118.873 35.638H114.253V37.57H117.907C120.175 37.57 121.645 38.914 121.645 40.888C121.645 41.938 121.183 42.904 120.427 43.534C119.713 44.08 119.041 44.248 117.571 44.248H114.253V46.348ZM136.403 46.348H140.939C142.493 46.348 143.375 46.6 144.215 47.188C145.307 47.986 145.979 49.288 145.979 50.632C145.979 51.85 145.433 53.152 144.551 53.95C143.711 54.706 142.745 55 141.149 55H132.329C130.481 55 129.263 54.538 128.423 53.53C127.289 52.27 127.163 51.64 127.163 47.776V31.984C127.163 28.834 128.969 26.776 131.741 26.776C133.169 26.776 134.555 27.448 135.353 28.456C136.193 29.59 136.403 30.43 136.403 33.076V46.348ZM158.14 46.348H162.382C164.398 46.348 165.28 46.6 166.246 47.398C167.212 48.238 167.758 49.414 167.758 50.674C167.758 51.976 167.17 53.236 166.246 54.034C165.322 54.79 164.524 55 162.424 55H155.242C153.1 55 152.512 54.916 151.714 54.622C150.286 54.034 149.362 52.9 149.068 51.262C148.942 50.674 148.9 50.422 148.9 48.49V33.286C148.9 30.934 148.942 30.64 149.32 29.758C149.698 28.708 150.58 27.868 151.546 27.448C152.596 27.028 152.806 26.986 155.536 26.986H161.08C163.726 26.986 163.978 27.028 164.608 27.196C166.54 27.7 167.8 29.296 167.8 31.228C167.8 32.572 167.254 33.832 166.288 34.63C165.448 35.344 164.482 35.638 162.76 35.638H158.14V37.57H161.794C164.062 37.57 165.532 38.914 165.532 40.888C165.532 41.938 165.07 42.904 164.314 43.534C163.6 44.08 162.928 44.248 161.458 44.248H158.14V46.348ZM187.694 45.382H186.35C183.872 45.382 182.402 44.122 182.402 42.022C182.402 39.796 183.956 38.62 186.896 38.662L189.92 38.704C193.154 38.788 194.036 39.04 194.96 40.132C195.8 41.14 196.178 42.4 196.136 44.206L196.094 46.6C196.01 48.91 196.01 48.994 195.8 49.666C195.338 51.136 193.616 52.816 191.18 54.076C189.08 55.168 186.854 55.714 184.544 55.714C176.354 55.714 169.718 49.12 169.718 40.972C169.718 32.866 176.354 26.314 184.502 26.314C187.232 26.314 190.004 27.112 192.356 28.54C194.288 29.758 195.254 31.186 195.254 32.866C195.254 35.386 193.112 37.486 190.55 37.486C190.13 37.486 189.584 37.402 189.332 37.276L187.274 36.184C186.266 35.722 185.258 35.428 184.334 35.428C181.478 35.428 179 37.99 179 40.93C179 43.954 181.478 46.432 184.502 46.432C185.678 46.432 186.35 46.18 187.694 45.382ZM218.117 44.206L220.301 47.692C220.889 48.616 221.183 49.708 221.183 50.674C221.183 53.236 219.167 55.21 216.563 55.21C214.925 55.21 213.581 54.454 212.741 53.068L208.919 46.726V50.548C208.919 53.194 206.945 55.21 204.383 55.21C202.997 55.21 201.611 54.58 200.771 53.53C200.015 52.564 199.679 51.346 199.679 49.582V32.32C199.679 30.304 200.099 29.17 201.191 28.204C202.241 27.28 203.165 26.986 205.391 26.986H209.255C211.523 26.986 212.531 27.112 213.749 27.406C218.075 28.624 221.099 32.53 221.099 37.066C221.099 39.754 220.259 41.812 218.117 44.206ZM208.919 35.554V38.578H209.297C209.549 38.578 209.759 38.578 209.927 38.578C211.313 38.62 212.027 38.116 212.027 37.108C212.027 36.1 211.271 35.554 209.885 35.596C209.675 35.596 209.339 35.596 208.919 35.554ZM232.882 51.346C231.706 54.076 230.32 55.21 228.094 55.21C225.532 55.21 223.516 53.194 223.516 50.59C223.516 49.792 223.726 48.952 224.104 48.154L232.882 29.548C233.68 27.826 235.276 26.776 237.124 26.776C239.014 26.776 240.61 27.826 241.45 29.59L250.27 48.406C250.648 49.12 250.816 49.918 250.816 50.632C250.816 53.152 248.716 55.21 246.154 55.21C244.012 55.21 242.752 54.202 241.45 51.346H232.882ZM235.696 44.668H238.552L237.124 41.308L235.696 44.668ZM269.151 39.166L273.813 29.254C274.527 27.784 276.165 26.776 277.887 26.776C279.021 26.776 280.281 27.28 281.079 28.036C281.877 28.792 282.255 29.59 282.507 31.102L285.699 49.162C285.825 49.75 285.867 50.296 285.867 50.716C285.867 53.236 283.851 55.21 281.331 55.21C278.979 55.21 277.131 53.782 276.753 51.682L275.703 46.432L273.897 51.388C272.973 53.908 271.335 55.21 269.151 55.21C266.883 55.21 265.413 54.034 264.447 51.43L262.599 46.432L261.843 50.884C261.381 53.572 259.617 55.21 257.223 55.21C254.493 55.21 252.561 53.11 252.561 50.17C252.561 49.792 252.603 49.414 252.645 49.036L255.837 31.102C256.299 28.414 257.979 26.776 260.373 26.776C262.347 26.776 264.195 27.994 264.993 29.884L269.151 39.166Z"/>
</mask>
<path d="M85.7509 35.596H83.2729C81.6769 35.596 80.6269 35.218 79.7869 34.378C78.9469 33.496 78.4849 32.446 78.4849 31.312C78.4849 29.716 79.5349 28.036 80.8789 27.448C81.8449 27.028 82.2229 26.986 85.8769 26.986H95.2009C97.8049 26.986 97.8049 26.986 98.3509 27.07C100.577 27.364 102.131 29.086 102.131 31.27C102.131 32.488 101.543 33.748 100.619 34.588C99.9049 35.26 98.7289 35.596 97.0489 35.596H94.9909V49.54C94.9909 51.22 94.7809 52.144 94.1929 53.11C93.3529 54.454 91.9669 55.21 90.3709 55.21C88.8169 55.21 87.4309 54.496 86.5489 53.278C85.9189 52.312 85.7509 51.514 85.7509 49.624V35.596ZM114.253 46.348H118.495C120.511 46.348 121.393 46.6 122.359 47.398C123.325 48.238 123.871 49.414 123.871 50.674C123.871 51.976 123.283 53.236 122.359 54.034C121.435 54.79 120.637 55 118.537 55H111.355C109.213 55 108.625 54.916 107.827 54.622C106.399 54.034 105.475 52.9 105.181 51.262C105.055 50.674 105.013 50.422 105.013 48.49V33.286C105.013 30.934 105.055 30.64 105.433 29.758C105.811 28.708 106.693 27.868 107.659 27.448C108.709 27.028 108.919 26.986 111.649 26.986H117.193C119.839 26.986 120.091 27.028 120.721 27.196C122.653 27.7 123.913 29.296 123.913 31.228C123.913 32.572 123.367 33.832 122.401 34.63C121.561 35.344 120.595 35.638 118.873 35.638H114.253V37.57H117.907C120.175 37.57 121.645 38.914 121.645 40.888C121.645 41.938 121.183 42.904 120.427 43.534C119.713 44.08 119.041 44.248 117.571 44.248H114.253V46.348ZM136.403 46.348H140.939C142.493 46.348 143.375 46.6 144.215 47.188C145.307 47.986 145.979 49.288 145.979 50.632C145.979 51.85 145.433 53.152 144.551 53.95C143.711 54.706 142.745 55 141.149 55H132.329C130.481 55 129.263 54.538 128.423 53.53C127.289 52.27 127.163 51.64 127.163 47.776V31.984C127.163 28.834 128.969 26.776 131.741 26.776C133.169 26.776 134.555 27.448 135.353 28.456C136.193 29.59 136.403 30.43 136.403 33.076V46.348ZM158.14 46.348H162.382C164.398 46.348 165.28 46.6 166.246 47.398C167.212 48.238 167.758 49.414 167.758 50.674C167.758 51.976 167.17 53.236 166.246 54.034C165.322 54.79 164.524 55 162.424 55H155.242C153.1 55 152.512 54.916 151.714 54.622C150.286 54.034 149.362 52.9 149.068 51.262C148.942 50.674 148.9 50.422 148.9 48.49V33.286C148.9 30.934 148.942 30.64 149.32 29.758C149.698 28.708 150.58 27.868 151.546 27.448C152.596 27.028 152.806 26.986 155.536 26.986H161.08C163.726 26.986 163.978 27.028 164.608 27.196C166.54 27.7 167.8 29.296 167.8 31.228C167.8 32.572 167.254 33.832 166.288 34.63C165.448 35.344 164.482 35.638 162.76 35.638H158.14V37.57H161.794C164.062 37.57 165.532 38.914 165.532 40.888C165.532 41.938 165.07 42.904 164.314 43.534C163.6 44.08 162.928 44.248 161.458 44.248H158.14V46.348ZM187.694 45.382H186.35C183.872 45.382 182.402 44.122 182.402 42.022C182.402 39.796 183.956 38.62 186.896 38.662L189.92 38.704C193.154 38.788 194.036 39.04 194.96 40.132C195.8 41.14 196.178 42.4 196.136 44.206L196.094 46.6C196.01 48.91 196.01 48.994 195.8 49.666C195.338 51.136 193.616 52.816 191.18 54.076C189.08 55.168 186.854 55.714 184.544 55.714C176.354 55.714 169.718 49.12 169.718 40.972C169.718 32.866 176.354 26.314 184.502 26.314C187.232 26.314 190.004 27.112 192.356 28.54C194.288 29.758 195.254 31.186 195.254 32.866C195.254 35.386 193.112 37.486 190.55 37.486C190.13 37.486 189.584 37.402 189.332 37.276L187.274 36.184C186.266 35.722 185.258 35.428 184.334 35.428C181.478 35.428 179 37.99 179 40.93C179 43.954 181.478 46.432 184.502 46.432C185.678 46.432 186.35 46.18 187.694 45.382ZM218.117 44.206L220.301 47.692C220.889 48.616 221.183 49.708 221.183 50.674C221.183 53.236 219.167 55.21 216.563 55.21C214.925 55.21 213.581 54.454 212.741 53.068L208.919 46.726V50.548C208.919 53.194 206.945 55.21 204.383 55.21C202.997 55.21 201.611 54.58 200.771 53.53C200.015 52.564 199.679 51.346 199.679 49.582V32.32C199.679 30.304 200.099 29.17 201.191 28.204C202.241 27.28 203.165 26.986 205.391 26.986H209.255C211.523 26.986 212.531 27.112 213.749 27.406C218.075 28.624 221.099 32.53 221.099 37.066C221.099 39.754 220.259 41.812 218.117 44.206ZM208.919 35.554V38.578H209.297C209.549 38.578 209.759 38.578 209.927 38.578C211.313 38.62 212.027 38.116 212.027 37.108C212.027 36.1 211.271 35.554 209.885 35.596C209.675 35.596 209.339 35.596 208.919 35.554ZM232.882 51.346C231.706 54.076 230.32 55.21 228.094 55.21C225.532 55.21 223.516 53.194 223.516 50.59C223.516 49.792 223.726 48.952 224.104 48.154L232.882 29.548C233.68 27.826 235.276 26.776 237.124 26.776C239.014 26.776 240.61 27.826 241.45 29.59L250.27 48.406C250.648 49.12 250.816 49.918 250.816 50.632C250.816 53.152 248.716 55.21 246.154 55.21C244.012 55.21 242.752 54.202 241.45 51.346H232.882ZM235.696 44.668H238.552L237.124 41.308L235.696 44.668ZM269.151 39.166L273.813 29.254C274.527 27.784 276.165 26.776 277.887 26.776C279.021 26.776 280.281 27.28 281.079 28.036C281.877 28.792 282.255 29.59 282.507 31.102L285.699 49.162C285.825 49.75 285.867 50.296 285.867 50.716C285.867 53.236 283.851 55.21 281.331 55.21C278.979 55.21 277.131 53.782 276.753 51.682L275.703 46.432L273.897 51.388C272.973 53.908 271.335 55.21 269.151 55.21C266.883 55.21 265.413 54.034 264.447 51.43L262.599 46.432L261.843 50.884C261.381 53.572 259.617 55.21 257.223 55.21C254.493 55.21 252.561 53.11 252.561 50.17C252.561 49.792 252.603 49.414 252.645 49.036L255.837 31.102C256.299 28.414 257.979 26.776 260.373 26.776C262.347 26.776 264.195 27.994 264.993 29.884L269.151 39.166Z" fill="white"/>
<path d="M85.7509 35.596H87.7509V33.596H85.7509V35.596ZM79.7869 34.378L78.3386 35.7573L78.3555 35.775L78.3727 35.7922L79.7869 34.378ZM80.8789 27.448L80.0815 25.6139L80.0773 25.6157L80.8789 27.448ZM98.3509 27.07L98.0468 29.0467L98.0679 29.05L98.089 29.0528L98.3509 27.07ZM100.619 34.588L99.2736 33.1081L99.2608 33.1197L99.2482 33.1316L100.619 34.588ZM94.9909 35.596V33.596H92.9909V35.596H94.9909ZM94.1929 53.11L95.8889 54.17L95.8952 54.16L95.9013 54.1499L94.1929 53.11ZM86.5489 53.278L84.8737 54.3705L84.9004 54.4115L84.929 54.451L86.5489 53.278ZM85.7509 33.596H83.2729V37.596H85.7509V33.596ZM83.2729 33.596C82.0402 33.596 81.5624 33.3251 81.2011 32.9638L78.3727 35.7922C79.6914 37.1109 81.3136 37.596 83.2729 37.596V33.596ZM81.2352 32.9987C80.6996 32.4363 80.4849 31.8646 80.4849 31.312H76.4849C76.4849 33.0274 77.1942 34.5557 78.3386 35.7573L81.2352 32.9987ZM80.4849 31.312C80.4849 30.9365 80.6153 30.4784 80.8768 30.0574C81.1423 29.63 81.4556 29.3788 81.6805 29.2803L80.0773 25.6157C78.9583 26.1052 78.0746 26.988 77.479 27.9466C76.8796 28.9116 76.4849 30.0915 76.4849 31.312H80.4849ZM81.6764 29.2821C82.0107 29.1368 82.1394 29.0899 82.5566 29.0508C83.1143 28.9985 84.0146 28.986 85.8769 28.986V24.986C84.0853 24.986 82.9696 24.9945 82.1832 25.0682C81.2565 25.1551 80.7131 25.3392 80.0815 25.6139L81.6764 29.2821ZM85.8769 28.986H95.2009V24.986H85.8769V28.986ZM95.2009 28.986C97.879 28.986 97.69 28.9919 98.0468 29.0467L98.655 25.0933C97.9198 24.9801 97.7308 24.986 95.2009 24.986V28.986ZM98.089 29.0528C99.368 29.2217 100.131 30.1367 100.131 31.27H104.131C104.131 28.0353 101.786 25.5063 98.6128 25.0872L98.089 29.0528ZM100.131 31.27C100.131 31.8855 99.8104 32.6201 99.2736 33.1081L101.964 36.0679C103.275 34.8759 104.131 33.0905 104.131 31.27H100.131ZM99.2482 33.1316C99.0899 33.2806 98.5477 33.596 97.0489 33.596V37.596C98.9101 37.596 100.72 37.2394 101.99 36.0444L99.2482 33.1316ZM97.0489 33.596H94.9909V37.596H97.0489V33.596ZM92.9909 35.596V49.54H96.9909V35.596H92.9909ZM92.9909 49.54C92.9909 51.0129 92.813 51.5304 92.4845 52.0701L95.9013 54.1499C96.7488 52.7576 96.9909 51.4271 96.9909 49.54H92.9909ZM92.4969 52.05C92.0296 52.7977 91.2911 53.21 90.3709 53.21V57.21C92.6427 57.21 94.6762 56.1103 95.8889 54.17L92.4969 52.05ZM90.3709 53.21C89.4524 53.21 88.6712 52.7988 88.1688 52.105L84.929 54.451C86.1906 56.1932 88.1814 57.21 90.3709 57.21V53.21ZM88.2241 52.1855C88.0206 51.8733 87.9295 51.6562 87.8682 51.3734C87.7943 51.033 87.7509 50.5356 87.7509 49.624H83.7509C83.7509 50.6024 83.7915 51.449 83.9591 52.2216C84.1393 53.0518 84.4473 53.7167 84.8737 54.3705L88.2241 52.1855ZM87.7509 49.624V35.596H83.7509V49.624H87.7509ZM114.253 46.348H112.253V48.348H114.253V46.348ZM122.359 47.398L123.672 45.8888L123.653 45.8722L123.633 45.8561L122.359 47.398ZM122.359 54.034L123.626 55.5819L123.647 55.5651L123.667 55.5476L122.359 54.034ZM107.827 54.622L107.066 56.4714L107.101 56.4857L107.136 56.4987L107.827 54.622ZM105.181 51.262L107.15 50.9087L107.144 50.8757L107.137 50.8429L105.181 51.262ZM105.433 29.758L107.272 30.5458L107.295 30.4913L107.315 30.4354L105.433 29.758ZM107.659 27.448L106.917 25.591L106.889 25.602L106.862 25.6139L107.659 27.448ZM120.721 27.196L120.206 29.1285L120.217 29.1312L120.721 27.196ZM122.401 34.63L121.128 33.0881L121.117 33.097L121.106 33.1061L122.401 34.63ZM114.253 35.638V33.638H112.253V35.638H114.253ZM114.253 37.57H112.253V39.57H114.253V37.57ZM120.427 43.534L121.642 45.1227L121.676 45.0973L121.708 45.0704L120.427 43.534ZM114.253 44.248V42.248H112.253V44.248H114.253ZM114.253 48.348H118.495V44.348H114.253V48.348ZM118.495 48.348C119.447 48.348 119.959 48.411 120.292 48.5025C120.566 48.5776 120.78 48.6874 121.086 48.9399L123.633 45.8561C122.973 45.3106 122.263 44.8954 121.35 44.645C120.497 44.411 119.56 44.348 118.495 44.348V48.348ZM121.047 48.9072C121.588 49.378 121.871 50.0088 121.871 50.674H125.871C125.871 48.8192 125.062 47.098 123.672 45.8888L121.047 48.9072ZM121.871 50.674C121.871 51.4024 121.531 52.1072 121.052 52.5204L123.667 55.5476C125.036 54.3648 125.871 52.5496 125.871 50.674H121.871ZM121.093 52.4861C120.813 52.7156 120.64 52.8003 120.396 52.8623C120.072 52.9447 119.556 53 118.537 53V57C119.619 57 120.552 56.9503 121.383 56.7387C122.294 56.5067 122.982 56.1084 123.626 55.5819L121.093 52.4861ZM118.537 53H111.355V57H118.537V53ZM111.355 53C109.242 53 108.961 52.9082 108.519 52.7453L107.136 56.4987C108.29 56.9238 109.185 57 111.355 57V53ZM108.589 52.7726C107.813 52.4533 107.328 51.8975 107.15 50.9087L103.213 51.6153C103.623 53.9025 104.985 55.6147 107.066 56.4714L108.589 52.7726ZM107.137 50.8429C107.083 50.5912 107.062 50.485 107.045 50.2414C107.025 49.9413 107.013 49.4595 107.013 48.49H103.013C103.013 50.4492 103.054 50.8766 103.226 51.6811L107.137 50.8429ZM107.013 48.49V33.286H103.013V48.49H107.013ZM107.013 33.286C107.013 32.075 107.027 31.5445 107.067 31.2108C107.093 30.9972 107.12 30.8994 107.272 30.5458L103.595 28.9702C103.369 29.4986 103.186 29.9888 103.096 30.7307C103.021 31.3525 103.013 32.145 103.013 33.286H107.013ZM107.315 30.4354C107.482 29.9717 107.926 29.5129 108.457 29.2821L106.862 25.6139C105.461 26.2231 104.141 27.4443 103.552 29.0806L107.315 30.4354ZM108.402 29.305C108.885 29.1117 109.004 29.0763 109.263 29.0453C109.643 28.9996 110.244 28.986 111.649 28.986V24.986C110.325 24.986 109.456 24.9934 108.786 25.0737C107.995 25.1687 107.484 25.3643 106.917 25.591L108.402 29.305ZM111.649 28.986H117.193V24.986H111.649V28.986ZM117.193 28.986C118.529 28.986 119.186 28.9973 119.58 29.0236C119.889 29.0441 119.977 29.0675 120.206 29.1285L121.237 25.2635C120.313 25.0173 119.801 24.986 117.193 24.986V28.986ZM120.217 29.1312C121.306 29.4153 121.913 30.2444 121.913 31.228H125.913C125.913 28.3476 124.001 25.9847 121.226 25.2608L120.217 29.1312ZM121.913 31.228C121.913 32.0494 121.58 32.7147 121.128 33.0881L123.675 36.1719C125.155 34.9493 125.913 33.0946 125.913 31.228H121.913ZM121.106 33.1061C120.765 33.396 120.339 33.638 118.873 33.638V37.638C120.852 37.638 122.358 37.292 123.697 36.1539L121.106 33.1061ZM118.873 33.638H114.253V37.638H118.873V33.638ZM112.253 35.638V37.57H116.253V35.638H112.253ZM114.253 39.57H117.907V35.57H114.253V39.57ZM117.907 39.57C118.652 39.57 119.078 39.7868 119.293 39.9789C119.488 40.1538 119.645 40.4257 119.645 40.888H123.645C123.645 39.3763 123.068 37.9892 121.961 36.9986C120.874 36.0252 119.431 35.57 117.907 35.57V39.57ZM119.645 40.888C119.645 41.3523 119.441 41.7526 119.147 41.9976L121.708 45.0704C122.926 44.0554 123.645 42.5237 123.645 40.888H119.645ZM119.213 41.9453C119.046 42.0728 118.944 42.119 118.798 42.1555C118.596 42.2059 118.255 42.248 117.571 42.248V46.248C118.358 46.248 119.088 46.2061 119.768 46.036C120.504 45.852 121.095 45.5412 121.642 45.1227L119.213 41.9453ZM117.571 42.248H114.253V46.248H117.571V42.248ZM112.253 44.248V46.348H116.253V44.248H112.253ZM136.403 46.348H134.403V48.348H136.403V46.348ZM144.215 47.188L145.395 45.5732L145.379 45.5612L145.362 45.5495L144.215 47.188ZM144.551 53.95L145.889 55.4366L145.893 55.4331L144.551 53.95ZM128.423 53.53L129.959 52.2496L129.935 52.2204L129.91 52.1921L128.423 53.53ZM135.353 28.456L136.96 27.2655L136.941 27.2398L136.921 27.2146L135.353 28.456ZM136.403 48.348H140.939V44.348H136.403V48.348ZM140.939 48.348C142.229 48.348 142.667 48.5456 143.068 48.8265L145.362 45.5495C144.083 44.6544 142.757 44.348 140.939 44.348V48.348ZM143.035 48.8028C143.622 49.2319 143.979 49.9392 143.979 50.632H147.979C147.979 48.6368 146.992 46.7401 145.395 45.5732L143.035 48.8028ZM143.979 50.632C143.979 51.326 143.642 52.0748 143.209 52.4669L145.893 55.4331C147.223 54.2292 147.979 52.374 147.979 50.632H143.979ZM143.213 52.4634C142.872 52.7707 142.462 53 141.149 53V57C143.028 57 144.55 56.6413 145.889 55.4366L143.213 52.4634ZM141.149 53H132.329V57H141.149V53ZM132.329 53C130.828 53 130.286 52.6411 129.959 52.2496L126.886 54.8104C128.24 56.4349 130.134 57 132.329 57V53ZM129.91 52.1921C129.474 51.7077 129.395 51.5403 129.322 51.2052C129.204 50.6592 129.163 49.7689 129.163 47.776H125.163C125.163 49.6471 125.185 51.0038 125.413 52.0538C125.687 53.3147 126.238 54.0923 126.936 54.8679L129.91 52.1921ZM129.163 47.776V31.984H125.163V47.776H129.163ZM129.163 31.984C129.163 30.7819 129.505 29.9853 129.915 29.5188C130.302 29.0779 130.882 28.776 131.741 28.776V24.776C129.828 24.776 128.119 25.5031 126.91 26.8787C125.724 28.2287 125.163 30.0361 125.163 31.984H129.163ZM131.741 28.776C132.59 28.776 133.386 29.1932 133.785 29.6974L136.921 27.2146C135.724 25.7028 133.748 24.776 131.741 24.776V28.776ZM133.746 29.6465C134.047 30.0527 134.163 30.2983 134.244 30.6487C134.346 31.0918 134.403 31.7654 134.403 33.076H138.403C138.403 31.7406 138.354 30.6712 138.142 29.7493C137.908 28.7347 137.499 27.9933 136.96 27.2655L133.746 29.6465ZM134.403 33.076V46.348H138.403V33.076H134.403ZM158.14 46.348H156.14V48.348H158.14V46.348ZM166.246 47.398L167.559 45.8888L167.539 45.8722L167.52 45.8561L166.246 47.398ZM166.246 54.034L167.513 55.5819L167.533 55.5651L167.553 55.5476L166.246 54.034ZM151.714 54.622L150.953 56.4714L150.987 56.4857L151.023 56.4987L151.714 54.622ZM149.068 51.262L151.037 50.9087L151.031 50.8757L151.024 50.8429L149.068 51.262ZM149.32 29.758L151.159 30.5458L151.182 30.4913L151.202 30.4354L149.32 29.758ZM151.546 27.448L150.803 25.591L150.776 25.602L150.749 25.6139L151.546 27.448ZM164.608 27.196L164.093 29.1285L164.103 29.1312L164.608 27.196ZM166.288 34.63L165.014 33.0881L165.004 33.097L164.993 33.1061L166.288 34.63ZM158.14 35.638V33.638H156.14V35.638H158.14ZM158.14 37.57H156.14V39.57H158.14V37.57ZM164.314 43.534L165.529 45.1227L165.562 45.0973L165.595 45.0704L164.314 43.534ZM158.14 44.248V42.248H156.14V44.248H158.14ZM158.14 48.348H162.382V44.348H158.14V48.348ZM162.382 48.348C163.333 48.348 163.845 48.411 164.179 48.5025C164.453 48.5776 164.667 48.6874 164.972 48.9399L167.52 45.8561C166.86 45.3106 166.15 44.8954 165.237 44.645C164.384 44.411 163.447 44.348 162.382 44.348V48.348ZM164.934 48.9072C165.475 49.378 165.758 50.0088 165.758 50.674H169.758C169.758 48.8192 168.949 47.098 167.559 45.8888L164.934 48.9072ZM165.758 50.674C165.758 51.4024 165.417 52.1072 164.939 52.5204L167.553 55.5476C168.923 54.3648 169.758 52.5496 169.758 50.674H165.758ZM164.98 52.4861C164.699 52.7156 164.526 52.8003 164.283 52.8623C163.959 52.9447 163.443 53 162.424 53V57C163.506 57 164.438 56.9503 165.27 56.7387C166.181 56.5067 166.869 56.1084 167.513 55.5819L164.98 52.4861ZM162.424 53H155.242V57H162.424V53ZM155.242 53C153.129 53 152.848 52.9082 152.406 52.7453L151.023 56.4987C152.177 56.9238 153.071 57 155.242 57V53ZM152.476 52.7726C151.7 52.4533 151.214 51.8975 151.037 50.9087L147.1 51.6153C147.51 53.9025 148.872 55.6147 150.953 56.4714L152.476 52.7726ZM151.024 50.8429C150.97 50.5912 150.949 50.485 150.932 50.2414C150.911 49.9413 150.9 49.4595 150.9 48.49H146.9C146.9 50.4492 146.94 50.8766 147.113 51.6811L151.024 50.8429ZM150.9 48.49V33.286H146.9V48.49H150.9ZM150.9 33.286C150.9 32.075 150.914 31.5445 150.954 31.2108C150.98 30.9972 151.007 30.8994 151.159 30.5458L147.482 28.9702C147.255 29.4986 147.073 29.9888 146.983 30.7307C146.908 31.3525 146.9 32.145 146.9 33.286H150.9ZM151.202 30.4354C151.369 29.9717 151.813 29.5129 152.344 29.2821L150.749 25.6139C149.348 26.2231 148.028 27.4443 147.438 29.0806L151.202 30.4354ZM152.289 29.305C152.772 29.1117 152.891 29.0763 153.149 29.0453C153.53 28.9996 154.131 28.986 155.536 28.986V24.986C154.211 24.986 153.342 24.9934 152.673 25.0737C151.882 25.1687 151.37 25.3643 150.803 25.591L152.289 29.305ZM155.536 28.986H161.08V24.986H155.536V28.986ZM161.08 28.986C162.416 28.986 163.073 28.9973 163.467 29.0236C163.776 29.0441 163.864 29.0675 164.093 29.1285L165.124 25.2635C164.2 25.0173 163.687 24.986 161.08 24.986V28.986ZM164.103 29.1312C165.192 29.4153 165.8 30.2444 165.8 31.228H169.8C169.8 28.3476 167.888 25.9847 165.113 25.2608L164.103 29.1312ZM165.8 31.228C165.8 32.0494 165.466 32.7147 165.014 33.0881L167.562 36.1719C169.042 34.9493 169.8 33.0946 169.8 31.228H165.8ZM164.993 33.1061C164.652 33.396 164.226 33.638 162.76 33.638V37.638C164.738 37.638 166.244 37.292 167.584 36.1539L164.993 33.1061ZM162.76 33.638H158.14V37.638H162.76V33.638ZM156.14 35.638V37.57H160.14V35.638H156.14ZM158.14 39.57H161.794V35.57H158.14V39.57ZM161.794 39.57C162.538 39.57 162.965 39.7868 163.18 39.9789C163.375 40.1538 163.532 40.4257 163.532 40.888H167.532C167.532 39.3763 166.954 37.9892 165.848 36.9986C164.76 36.0252 163.318 35.57 161.794 35.57V39.57ZM163.532 40.888C163.532 41.3523 163.328 41.7526 163.034 41.9976L165.595 45.0704C166.813 44.0554 167.532 42.5237 167.532 40.888H163.532ZM163.099 41.9453C162.933 42.0728 162.83 42.119 162.685 42.1555C162.483 42.2059 162.141 42.248 161.458 42.248V46.248C162.245 46.248 162.975 46.2061 163.655 46.036C164.391 45.852 164.982 45.5412 165.529 45.1227L163.099 41.9453ZM161.458 42.248H158.14V46.248H161.458V42.248ZM156.14 44.248V46.348H160.14V44.248H156.14ZM187.694 45.382L188.715 47.1017L194.98 43.382H187.694V45.382ZM186.896 38.662L186.868 40.6618L186.869 40.6618L186.896 38.662ZM189.92 38.704L189.972 36.7047L189.96 36.7044L189.948 36.7042L189.92 38.704ZM194.96 40.132L196.497 38.8516L196.492 38.8459L196.487 38.8401L194.96 40.132ZM196.136 44.206L194.137 44.1595L194.137 44.1709L196.136 44.206ZM196.094 46.6L198.093 46.6727L198.094 46.6539L198.094 46.6351L196.094 46.6ZM195.8 49.666L197.708 50.2657L197.709 50.2625L195.8 49.666ZM191.18 54.076L190.262 52.2996L190.258 52.3016L191.18 54.076ZM192.356 28.54L193.423 26.8481L193.409 26.8392L193.394 26.8304L192.356 28.54ZM189.332 37.276L188.395 39.0427L188.416 39.054L188.438 39.0649L189.332 37.276ZM187.274 36.184L188.212 34.4173L188.161 34.3901L188.108 34.3659L187.274 36.184ZM187.694 43.382H186.35V47.382H187.694V43.382ZM186.35 43.382C185.429 43.382 184.956 43.1473 184.745 42.9677C184.576 42.8233 184.402 42.5736 184.402 42.022H180.402C180.402 43.5704 180.964 45.0007 182.149 46.0113C183.293 46.9867 184.794 47.382 186.35 47.382V43.382ZM184.402 42.022C184.402 41.4211 184.582 41.2155 184.747 41.0915C185.006 40.8971 185.621 40.644 186.868 40.6618L186.925 36.6622C185.232 36.638 183.6 36.9519 182.347 37.8915C181 38.9015 180.402 40.3969 180.402 42.022H184.402ZM186.869 40.6618L189.893 40.7038L189.948 36.7042L186.924 36.6622L186.869 40.6618ZM189.868 40.7033C191.504 40.7458 192.294 40.8318 192.761 40.9641C193.058 41.0483 193.185 41.1294 193.434 41.4239L196.487 38.8401C195.812 38.0426 195.036 37.4517 193.853 37.1159C192.838 36.8282 191.571 36.7462 189.972 36.7047L189.868 40.7033ZM193.424 41.4124C193.866 41.9423 194.171 42.6782 194.137 44.1595L198.136 44.2525C198.185 42.1218 197.735 40.3377 196.497 38.8516L193.424 41.4124ZM194.137 44.1709L194.095 46.5649L198.094 46.6351L198.136 44.2411L194.137 44.1709ZM194.096 46.5273C194.052 47.7201 194.033 48.2402 194.003 48.5614C193.984 48.7648 193.973 48.8074 193.891 49.0695L197.709 50.2625C197.837 49.8526 197.932 49.5172 197.986 48.9331C198.03 48.4667 198.052 47.7899 198.093 46.6727L194.096 46.5273ZM193.892 49.0663C193.798 49.3665 193.5 49.8782 192.845 50.5072C192.211 51.1159 191.336 51.744 190.262 52.2996L192.099 55.8524C193.461 55.148 194.664 54.3061 195.616 53.3923C196.546 52.4988 197.341 51.4355 197.708 50.2657L193.892 49.0663ZM190.258 52.3016C188.438 53.2477 186.528 53.714 184.544 53.714V57.714C187.181 57.714 189.723 57.0883 192.103 55.8504L190.258 52.3016ZM184.544 53.714C177.448 53.714 171.718 48.0043 171.718 40.972H167.718C167.718 50.2357 175.261 57.714 184.544 57.714V53.714ZM171.718 40.972C171.718 33.9891 177.44 28.314 184.502 28.314V24.314C175.268 24.314 167.718 31.7429 167.718 40.972H171.718ZM184.502 28.314C186.854 28.314 189.269 29.0051 191.318 30.2496L193.394 26.8304C190.74 25.2189 187.611 24.314 184.502 24.314V28.314ZM191.29 30.2318C192.883 31.2362 193.254 32.1171 193.254 32.866H197.254C197.254 30.2549 195.694 28.2798 193.423 26.8481L191.29 30.2318ZM193.254 32.866C193.254 34.2466 192.043 35.486 190.55 35.486V39.486C194.182 39.486 197.254 36.5254 197.254 32.866H193.254ZM190.55 35.486C190.51 35.486 190.455 35.4839 190.39 35.4783C190.326 35.4728 190.263 35.4648 190.207 35.4555C190.149 35.4458 190.113 35.4371 190.1 35.4334C190.094 35.4317 190.1 35.4333 190.117 35.4395C190.133 35.4451 190.172 35.4598 190.227 35.4871L188.438 39.0649C188.837 39.2643 189.275 39.3552 189.55 39.401C189.87 39.4544 190.221 39.486 190.55 39.486V35.486ZM190.27 35.5093L188.212 34.4173L186.337 37.9507L188.395 39.0427L190.27 35.5093ZM188.108 34.3659C186.962 33.8405 185.656 33.428 184.334 33.428V37.428C184.861 37.428 185.571 37.6035 186.441 38.0021L188.108 34.3659ZM184.334 33.428C180.314 33.428 177 36.9458 177 40.93H181C181 39.0342 182.642 37.428 184.334 37.428V33.428ZM177 40.93C177 45.0586 180.374 48.432 184.502 48.432V44.432C182.583 44.432 181 42.8494 181 40.93H177ZM184.502 48.432C185.254 48.432 185.94 48.3489 186.674 48.1015C187.365 47.8688 188.017 47.5164 188.715 47.1017L186.673 43.6623C186.028 44.0456 185.672 44.2182 185.397 44.311C185.165 44.3891 184.927 44.432 184.502 44.432V48.432ZM218.117 44.206L216.626 42.8724L215.623 43.9933L216.422 45.2678L218.117 44.206ZM220.301 47.692L218.606 48.7539L218.613 48.7658L220.301 47.692ZM212.741 53.068L211.028 54.1003L211.03 54.1046L212.741 53.068ZM208.919 46.726L210.632 45.6937L206.919 39.5326V46.726H208.919ZM200.771 53.53L199.196 54.7626L199.202 54.771L199.209 54.7794L200.771 53.53ZM201.191 28.204L199.869 26.7026L199.865 26.706L201.191 28.204ZM213.749 27.406L214.291 25.4809L214.254 25.4707L214.218 25.4618L213.749 27.406ZM208.919 35.554L209.118 33.5639L206.919 33.344V35.554H208.919ZM208.919 38.578H206.919V40.578H208.919V38.578ZM209.927 38.578L209.987 36.5789L209.957 36.578H209.927V38.578ZM209.885 35.596V37.596H209.915L209.945 37.5951L209.885 35.596ZM216.422 45.2678L218.606 48.7538L221.995 46.6302L219.811 43.1442L216.422 45.2678ZM218.613 48.7658C218.994 49.3634 219.183 50.0818 219.183 50.674H223.183C223.183 49.3342 222.784 47.8686 221.988 46.6182L218.613 48.7658ZM219.183 50.674C219.183 52.0955 218.098 53.21 216.563 53.21V57.21C220.235 57.21 223.183 54.3765 223.183 50.674H219.183ZM216.563 53.21C215.619 53.21 214.926 52.8148 214.451 52.0314L211.03 54.1046C212.235 56.0932 214.23 57.21 216.563 57.21V53.21ZM214.454 52.0357L210.632 45.6937L207.206 47.7583L211.028 54.1003L214.454 52.0357ZM206.919 46.726V50.548H210.919V46.726H206.919ZM206.919 50.548C206.919 52.1378 205.792 53.21 204.383 53.21V57.21C208.097 57.21 210.919 54.2502 210.919 50.548H206.919ZM204.383 53.21C203.559 53.21 202.765 52.8219 202.332 52.2806L199.209 54.7794C200.456 56.3381 202.434 57.21 204.383 57.21V53.21ZM202.346 52.2974C201.963 51.8091 201.679 51.0908 201.679 49.582H197.679C197.679 51.6012 198.066 53.3189 199.196 54.7626L202.346 52.2974ZM201.679 49.582V32.32H197.679V49.582H201.679ZM201.679 32.32C201.679 31.4344 201.773 30.9081 201.902 30.559C202.016 30.2497 202.187 29.9929 202.516 29.702L199.865 26.706C199.102 27.3811 198.517 28.1743 198.148 29.1775C197.794 30.1409 197.679 31.1896 197.679 32.32H201.679ZM202.512 29.7054C202.873 29.3874 203.117 29.255 203.416 29.1667C203.778 29.0598 204.337 28.986 205.391 28.986V24.986C204.219 24.986 203.202 25.0592 202.284 25.3303C201.301 25.62 200.558 26.0966 199.869 26.7026L202.512 29.7054ZM205.391 28.986H209.255V24.986H205.391V28.986ZM209.255 28.986C211.421 28.986 212.262 29.1045 213.279 29.3502L214.218 25.4618C212.799 25.1195 211.624 24.986 209.255 24.986V28.986ZM213.207 29.3311C216.685 30.3106 219.099 33.4414 219.099 37.066H223.099C223.099 31.6186 219.464 26.9374 214.291 25.4809L213.207 29.3311ZM219.099 37.066C219.099 39.1826 218.497 40.7814 216.626 42.8724L219.607 45.5396C222.02 42.8426 223.099 40.3254 223.099 37.066H219.099ZM206.919 35.554V38.578H210.919V35.554H206.919ZM208.919 40.578H209.297V36.578H208.919V40.578ZM209.297 40.578C209.297 40.578 209.298 40.578 209.298 40.578C209.299 40.578 209.299 40.578 209.299 40.578C209.3 40.578 209.3 40.578 209.301 40.578C209.301 40.578 209.302 40.578 209.302 40.578C209.303 40.578 209.303 40.578 209.304 40.578C209.304 40.578 209.305 40.578 209.305 40.578C209.306 40.578 209.306 40.578 209.307 40.578C209.307 40.578 209.308 40.578 209.308 40.578C209.309 40.578 209.309 40.578 209.31 40.578C209.31 40.578 209.311 40.578 209.311 40.578C209.312 40.578 209.312 40.578 209.313 40.578C209.313 40.578 209.314 40.578 209.314 40.578C209.315 40.578 209.315 40.578 209.316 40.578C209.316 40.578 209.317 40.578 209.317 40.578C209.318 40.578 209.318 40.578 209.319 40.578C209.319 40.578 209.32 40.578 209.32 40.578C209.321 40.578 209.321 40.578 209.322 40.578C209.322 40.578 209.322 40.578 209.323 40.578C209.323 40.578 209.324 40.578 209.324 40.578C209.325 40.578 209.325 40.578 209.326 40.578C209.326 40.578 209.327 40.578 209.327 40.578C209.328 40.578 209.328 40.578 209.329 40.578C209.329 40.578 209.33 40.578 209.33 40.578C209.331 40.578 209.331 40.578 209.332 40.578C209.332 40.578 209.333 40.578 209.333 40.578C209.334 40.578 209.334 40.578 209.335 40.578C209.335 40.578 209.336 40.578 209.336 40.578C209.337 40.578 209.337 40.578 209.338 40.578C209.338 40.578 209.338 40.578 209.339 40.578C209.339 40.578 209.34 40.578 209.34 40.578C209.341 40.578 209.341 40.578 209.342 40.578C209.342 40.578 209.343 40.578 209.343 40.578C209.344 40.578 209.344 40.578 209.345 40.578C209.345 40.578 209.346 40.578 209.346 40.578C209.347 40.578 209.347 40.578 209.348 40.578C209.348 40.578 209.349 40.578 209.349 40.578C209.35 40.578 209.35 40.578 209.351 40.578C209.351 40.578 209.351 40.578 209.352 40.578C209.352 40.578 209.353 40.578 209.353 40.578C209.354 40.578 209.354 40.578 209.355 40.578C209.355 40.578 209.356 40.578 209.356 40.578C209.357 40.578 209.357 40.578 209.358 40.578C209.358 40.578 209.359 40.578 209.359 40.578C209.36 40.578 209.36 40.578 209.361 40.578C209.361 40.578 209.362 40.578 209.362 40.578C209.362 40.578 209.363 40.578 209.363 40.578C209.364 40.578 209.364 40.578 209.365 40.578C209.365 40.578 209.366 40.578 209.366 40.578C209.367 40.578 209.367 40.578 209.368 40.578C209.368 40.578 209.369 40.578 209.369 40.578C209.37 40.578 209.37 40.578 209.371 40.578C209.371 40.578 209.372 40.578 209.372 40.578C209.372 40.578 209.373 40.578 209.373 40.578C209.374 40.578 209.374 40.578 209.375 40.578C209.375 40.578 209.376 40.578 209.376 40.578C209.377 40.578 209.377 40.578 209.378 40.578C209.378 40.578 209.379 40.578 209.379 40.578C209.38 40.578 209.38 40.578 209.381 40.578C209.381 40.578 209.382 40.578 209.382 40.578C209.382 40.578 209.383 40.578 209.383 40.578C209.384 40.578 209.384 40.578 209.385 40.578C209.385 40.578 209.386 40.578 209.386 40.578C209.387 40.578 209.387 40.578 209.388 40.578C209.388 40.578 209.389 40.578 209.389 40.578C209.39 40.578 209.39 40.578 209.39 40.578C209.391 40.578 209.391 40.578 209.392 40.578C209.392 40.578 209.393 40.578 209.393 40.578C209.394 40.578 209.394 40.578 209.395 40.578C209.395 40.578 209.396 40.578 209.396 40.578C209.397 40.578 209.397 40.578 209.398 40.578C209.398 40.578 209.398 40.578 209.399 40.578C209.399 40.578 209.4 40.578 209.4 40.578C209.401 40.578 209.401 40.578 209.402 40.578C209.402 40.578 209.403 40.578 209.403 40.578C209.404 40.578 209.404 40.578 209.405 40.578C209.405 40.578 209.406 40.578 209.406 40.578C209.406 40.578 209.407 40.578 209.407 40.578C209.408 40.578 209.408 40.578 209.409 40.578C209.409 40.578 209.41 40.578 209.41 40.578C209.411 40.578 209.411 40.578 209.412 40.578C209.412 40.578 209.413 40.578 209.413 40.578C209.413 40.578 209.414 40.578 209.414 40.578C209.415 40.578 209.415 40.578 209.416 40.578C209.416 40.578 209.417 40.578 209.417 40.578C209.418 40.578 209.418 40.578 209.419 40.578C209.419 40.578 209.42 40.578 209.42 40.578C209.42 40.578 209.421 40.578 209.421 40.578C209.422 40.578 209.422 40.578 209.423 40.578C209.423 40.578 209.424 40.578 209.424 40.578C209.425 40.578 209.425 40.578 209.426 40.578C209.426 40.578 209.426 40.578 209.427 40.578C209.427 40.578 209.428 40.578 209.428 40.578C209.429 40.578 209.429 40.578 209.43 40.578C209.43 40.578 209.431 40.578 209.431 40.578C209.432 40.578 209.432 40.578 209.432 40.578C209.433 40.578 209.433 40.578 209.434 40.578C209.434 40.578 209.435 40.578 209.435 40.578C209.436 40.578 209.436 40.578 209.437 40.578C209.437 40.578 209.438 40.578 209.438 40.578C209.438 40.578 209.439 40.578 209.439 40.578C209.44 40.578 209.44 40.578 209.441 40.578C209.441 40.578 209.442 40.578 209.442 40.578C209.443 40.578 209.443 40.578 209.444 40.578C209.444 40.578 209.444 40.578 209.445 40.578C209.445 40.578 209.446 40.578 209.446 40.578C209.447 40.578 209.447 40.578 209.448 40.578C209.448 40.578 209.449 40.578 209.449 40.578C209.449 40.578 209.45 40.578 209.45 40.578C209.451 40.578 209.451 40.578 209.452 40.578C209.452 40.578 209.453 40.578 209.453 40.578C209.454 40.578 209.454 40.578 209.455 40.578C209.455 40.578 209.455 40.578 209.456 40.578C209.456 40.578 209.457 40.578 209.457 40.578C209.458 40.578 209.458 40.578 209.459 40.578C209.459 40.578 209.46 40.578 209.46 40.578C209.46 40.578 209.461 40.578 209.461 40.578C209.462 40.578 209.462 40.578 209.463 40.578C209.463 40.578 209.464 40.578 209.464 40.578C209.465 40.578 209.465 40.578 209.465 40.578C209.466 40.578 209.466 40.578 209.467 40.578C209.467 40.578 209.468 40.578 209.468 40.578C209.469 40.578 209.469 40.578 209.47 40.578C209.47 40.578 209.47 40.578 209.471 40.578C209.471 40.578 209.472 40.578 209.472 40.578C209.473 40.578 209.473 40.578 209.474 40.578C209.474 40.578 209.475 40.578 209.475 40.578C209.475 40.578 209.476 40.578 209.476 40.578C209.477 40.578 209.477 40.578 209.478 40.578C209.478 40.578 209.479 40.578 209.479 40.578C209.479 40.578 209.48 40.578 209.48 40.578C209.481 40.578 209.481 40.578 209.482 40.578C209.482 40.578 209.483 40.578 209.483 40.578C209.484 40.578 209.484 40.578 209.484 40.578C209.485 40.578 209.485 40.578 209.486 40.578C209.486 40.578 209.487 40.578 209.487 40.578C209.488 40.578 209.488 40.578 209.488 40.578C209.489 40.578 209.489 40.578 209.49 40.578C209.49 40.578 209.491 40.578 209.491 40.578C209.492 40.578 209.492 40.578 209.492 40.578C209.493 40.578 209.493 40.578 209.494 40.578C209.494 40.578 209.495 40.578 209.495 40.578C209.496 40.578 209.496 40.578 209.497 40.578C209.497 40.578 209.497 40.578 209.498 40.578C209.498 40.578 209.499 40.578 209.499 40.578C209.5 40.578 209.5 40.578 209.501 40.578C209.501 40.578 209.501 40.578 209.502 40.578C209.502 40.578 209.503 40.578 209.503 40.578C209.504 40.578 209.504 40.578 209.505 40.578C209.505 40.578 209.505 40.578 209.506 40.578C209.506 40.578 209.507 40.578 209.507 40.578C209.508 40.578 209.508 40.578 209.509 40.578C209.509 40.578 209.509 40.578 209.51 40.578C209.51 40.578 209.511 40.578 209.511 40.578C209.512 40.578 209.512 40.578 209.513 40.578C209.513 40.578 209.513 40.578 209.514 40.578C209.514 40.578 209.515 40.578 209.515 40.578C209.516 40.578 209.516 40.578 209.517 40.578C209.517 40.578 209.517 40.578 209.518 40.578C209.518 40.578 209.519 40.578 209.519 40.578C209.52 40.578 209.52 40.578 209.52 40.578C209.521 40.578 209.521 40.578 209.522 40.578C209.522 40.578 209.523 40.578 209.523 40.578C209.524 40.578 209.524 40.578 209.524 40.578C209.525 40.578 209.525 40.578 209.526 40.578C209.526 40.578 209.527 40.578 209.527 40.578C209.528 40.578 209.528 40.578 209.528 40.578C209.529 40.578 209.529 40.578 209.53 40.578C209.53 40.578 209.531 40.578 209.531 40.578C209.531 40.578 209.532 40.578 209.532 40.578C209.533 40.578 209.533 40.578 209.534 40.578C209.534 40.578 209.535 40.578 209.535 40.578C209.535 40.578 209.536 40.578 209.536 40.578C209.537 40.578 209.537 40.578 209.538 40.578C209.538 40.578 209.538 40.578 209.539 40.578C209.539 40.578 209.54 40.578 209.54 40.578C209.541 40.578 209.541 40.578 209.542 40.578C209.542 40.578 209.542 40.578 209.543 40.578C209.543 40.578 209.544 40.578 209.544 40.578C209.545 40.578 209.545 40.578 209.545 40.578C209.546 40.578 209.546 40.578 209.547 40.578C209.547 40.578 209.548 40.578 209.548 40.578C209.548 40.578 209.549 40.578 209.549 40.578C209.55 40.578 209.55 40.578 209.551 40.578C209.551 40.578 209.552 40.578 209.552 40.578C209.552 40.578 209.553 40.578 209.553 40.578C209.554 40.578 209.554 40.578 209.555 40.578C209.555 40.578 209.555 40.578 209.556 40.578C209.556 40.578 209.557 40.578 209.557 40.578C209.558 40.578 209.558 40.578 209.558 40.578C209.559 40.578 209.559 40.578 209.56 40.578C209.56 40.578 209.561 40.578 209.561 40.578C209.561 40.578 209.562 40.578 209.562 40.578C209.563 40.578 209.563 40.578 209.564 40.578C209.564 40.578 209.564 40.578 209.565 40.578C209.565 40.578 209.566 40.578 209.566 40.578C209.567 40.578 209.567 40.578 209.567 40.578C209.568 40.578 209.568 40.578 209.569 40.578C209.569 40.578 209.57 40.578 209.57 40.578C209.57 40.578 209.571 40.578 209.571 40.578C209.572 40.578 209.572 40.578 209.573 40.578C209.573 40.578 209.573 40.578 209.574 40.578C209.574 40.578 209.575 40.578 209.575 40.578C209.576 40.578 209.576 40.578 209.576 40.578C209.577 40.578 209.577 40.578 209.578 40.578C209.578 40.578 209.579 40.578 209.579 40.578C209.579 40.578 209.58 40.578 209.58 40.578C209.581 40.578 209.581 40.578 209.582 40.578C209.582 40.578 209.582 40.578 209.583 40.578C209.583 40.578 209.584 40.578 209.584 40.578C209.585 40.578 209.585 40.578 209.585 40.578C209.586 40.578 209.586 40.578 209.587 40.578C209.587 40.578 209.588 40.578 209.588 40.578C209.588 40.578 209.589 40.578 209.589 40.578C209.59 40.578 209.59 40.578 209.591 40.578C209.591 40.578 209.591 40.578 209.592 40.578C209.592 40.578 209.593 40.578 209.593 40.578C209.593 40.578 209.594 40.578 209.594 40.578C209.595 40.578 209.595 40.578 209.596 40.578C209.596 40.578 209.596 40.578 209.597 40.578C209.597 40.578 209.598 40.578 209.598 40.578C209.599 40.578 209.599 40.578 209.599 40.578C209.6 40.578 209.6 40.578 209.601 40.578C209.601 40.578 209.601 40.578 209.602 40.578C209.602 40.578 209.603 40.578 209.603 40.578C209.604 40.578 209.604 40.578 209.604 40.578C209.605 40.578 209.605 40.578 209.606 40.578C209.606 40.578 209.607 40.578 209.607 40.578C209.607 40.578 209.608 40.578 209.608 40.578C209.609 40.578 209.609 40.578 209.609 40.578C209.61 40.578 209.61 40.578 209.611 40.578C209.611 40.578 209.612 40.578 209.612 40.578C209.612 40.578 209.613 40.578 209.613 40.578C209.614 40.578 209.614 40.578 209.614 40.578C209.615 40.578 209.615 40.578 209.616 40.578C209.616 40.578 209.617 40.578 209.617 40.578C209.617 40.578 209.618 40.578 209.618 40.578C209.619 40.578 209.619 40.578 209.619 40.578C209.62 40.578 209.62 40.578 209.621 40.578C209.621 40.578 209.622 40.578 209.622 40.578C209.622 40.578 209.623 40.578 209.623 40.578C209.624 40.578 209.624 40.578 209.624 40.578C209.625 40.578 209.625 40.578 209.626 40.578C209.626 40.578 209.627 40.578 209.627 40.578C209.627 40.578 209.628 40.578 209.628 40.578C209.629 40.578 209.629 40.578 209.629 40.578C209.63 40.578 209.63 40.578 209.631 40.578C209.631 40.578 209.632 40.578 209.632 40.578C209.632 40.578 209.633 40.578 209.633 40.578C209.634 40.578 209.634 40.578 209.634 40.578C209.635 40.578 209.635 40.578 209.636 40.578C209.636 40.578 209.636 40.578 209.637 40.578C209.637 40.578 209.638 40.578 209.638 40.578C209.639 40.578 209.639 40.578 209.639 40.578C209.64 40.578 209.64 40.578 209.641 40.578C209.641 40.578 209.641 40.578 209.642 40.578C209.642 40.578 209.643 40.578 209.643 40.578C209.643 40.578 209.644 40.578 209.644 40.578C209.645 40.578 209.645 40.578 209.645 40.578C209.646 40.578 209.646 40.578 209.647 40.578C209.647 40.578 209.648 40.578 209.648 40.578C209.648 40.578 209.649 40.578 209.649 40.578C209.65 40.578 209.65 40.578 209.65 40.578C209.651 40.578 209.651 40.578 209.652 40.578C209.652 40.578 209.652 40.578 209.653 40.578C209.653 40.578 209.654 40.578 209.654 40.578C209.654 40.578 209.655 40.578 209.655 40.578C209.656 40.578 209.656 40.578 209.657 40.578C209.657 40.578 209.657 40.578 209.658 40.578C209.658 40.578 209.659 40.578 209.659 40.578C209.659 40.578 209.66 40.578 209.66 40.578C209.661 40.578 209.661 40.578 209.661 40.578C209.662 40.578 209.662 40.578 209.663 40.578C209.663 40.578 209.663 40.578 209.664 40.578C209.664 40.578 209.665 40.578 209.665 40.578C209.665 40.578 209.666 40.578 209.666 40.578C209.667 40.578 209.667 40.578 209.667 40.578C209.668 40.578 209.668 40.578 209.669 40.578C209.669 40.578 209.669 40.578 209.67 40.578C209.67 40.578 209.671 40.578 209.671 40.578C209.671 40.578 209.672 40.578 209.672 40.578C209.673 40.578 209.673 40.578 209.673 40.578C209.674 40.578 209.674 40.578 209.675 40.578C209.675 40.578 209.676 40.578 209.676 40.578C209.676 40.578 209.677 40.578 209.677 40.578C209.678 40.578 209.678 40.578 209.678 40.578C209.679 40.578 209.679 40.578 209.68 40.578C209.68 40.578 209.68 40.578 209.681 40.578C209.681 40.578 209.682 40.578 209.682 40.578C209.682 40.578 209.683 40.578 209.683 40.578C209.684 40.578 209.684 40.578 209.684 40.578C209.685 40.578 209.685 40.578 209.686 40.578C209.686 40.578 209.686 40.578 209.687 40.578C209.687 40.578 209.688 40.578 209.688 40.578C209.688 40.578 209.689 40.578 209.689 40.578C209.689 40.578 209.69 40.578 209.69 40.578C209.691 40.578 209.691 40.578 209.691 40.578C209.692 40.578 209.692 40.578 209.693 40.578C209.693 40.578 209.693 40.578 209.694 40.578C209.694 40.578 209.695 40.578 209.695 40.578C209.695 40.578 209.696 40.578 209.696 40.578C209.697 40.578 209.697 40.578 209.697 40.578C209.698 40.578 209.698 40.578 209.699 40.578C209.699 40.578 209.699 40.578 209.7 40.578C209.7 40.578 209.701 40.578 209.701 40.578C209.701 40.578 209.702 40.578 209.702 40.578C209.703 40.578 209.703 40.578 209.703 40.578C209.704 40.578 209.704 40.578 209.705 40.578C209.705 40.578 209.705 40.578 209.706 40.578C209.706 40.578 209.707 40.578 209.707 40.578C209.707 40.578 209.708 40.578 209.708 40.578C209.708 40.578 209.709 40.578 209.709 40.578C209.71 40.578 209.71 40.578 209.71 40.578C209.711 40.578 209.711 40.578 209.712 40.578C209.712 40.578 209.712 40.578 209.713 40.578C209.713 40.578 209.714 40.578 209.714 40.578C209.714 40.578 209.715 40.578 209.715 40.578C209.716 40.578 209.716 40.578 209.716 40.578C209.717 40.578 209.717 40.578 209.717 40.578C209.718 40.578 209.718 40.578 209.719 40.578C209.719 40.578 209.719 40.578 209.72 40.578C209.72 40.578 209.721 40.578 209.721 40.578C209.721 40.578 209.722 40.578 209.722 40.578C209.723 40.578 209.723 40.578 209.723 40.578C209.724 40.578 209.724 40.578 209.724 40.578C209.725 40.578 209.725 40.578 209.726 40.578C209.726 40.578 209.726 40.578 209.727 40.578C209.727 40.578 209.728 40.578 209.728 40.578C209.728 40.578 209.729 40.578 209.729 40.578C209.73 40.578 209.73 40.578 209.73 40.578C209.731 40.578 209.731 40.578 209.731 40.578C209.732 40.578 209.732 40.578 209.733 40.578C209.733 40.578 209.733 40.578 209.734 40.578C209.734 40.578 209.735 40.578 209.735 40.578C209.735 40.578 209.736 40.578 209.736 40.578C209.736 40.578 209.737 40.578 209.737 40.578C209.738 40.578 209.738 40.578 209.738 40.578C209.739 40.578 209.739 40.578 209.74 40.578C209.74 40.578 209.74 40.578 209.741 40.578C209.741 40.578 209.741 40.578 209.742 40.578C209.742 40.578 209.743 40.578 209.743 40.578C209.743 40.578 209.744 40.578 209.744 40.578C209.745 40.578 209.745 40.578 209.745 40.578C209.746 40.578 209.746 40.578 209.746 40.578C209.747 40.578 209.747 40.578 209.748 40.578C209.748 40.578 209.748 40.578 209.749 40.578C209.749 40.578 209.75 40.578 209.75 40.578C209.75 40.578 209.751 40.578 209.751 40.578C209.751 40.578 209.752 40.578 209.752 40.578C209.753 40.578 209.753 40.578 209.753 40.578C209.754 40.578 209.754 40.578 209.754 40.578C209.755 40.578 209.755 40.578 209.756 40.578C209.756 40.578 209.756 40.578 209.757 40.578C209.757 40.578 209.757 40.578 209.758 40.578C209.758 40.578 209.759 40.578 209.759 40.578C209.759 40.578 209.76 40.578 209.76 40.578C209.761 40.578 209.761 40.578 209.761 40.578C209.762 40.578 209.762 40.578 209.762 40.578C209.763 40.578 209.763 40.578 209.764 40.578C209.764 40.578 209.764 40.578 209.765 40.578C209.765 40.578 209.765 40.578 209.766 40.578C209.766 40.578 209.767 40.578 209.767 40.578C209.767 40.578 209.768 40.578 209.768 40.578C209.768 40.578 209.769 40.578 209.769 40.578C209.77 40.578 209.77 40.578 209.77 40.578C209.771 40.578 209.771 40.578 209.771 40.578C209.772 40.578 209.772 40.578 209.773 40.578C209.773 40.578 209.773 40.578 209.774 40.578C209.774 40.578 209.774 40.578 209.775 40.578C209.775 40.578 209.776 40.578 209.776 40.578C209.776 40.578 209.777 40.578 209.777 40.578C209.777 40.578 209.778 40.578 209.778 40.578C209.779 40.578 209.779 40.578 209.779 40.578C209.78 40.578 209.78 40.578 209.78 40.578C209.781 40.578 209.781 40.578 209.782 40.578C209.782 40.578 209.782 40.578 209.783 40.578C209.783 40.578 209.783 40.578 209.784 40.578C209.784 40.578 209.785 40.578 209.785 40.578C209.785 40.578 209.786 40.578 209.786 40.578C209.786 40.578 209.787 40.578 209.787 40.578C209.787 40.578 209.788 40.578 209.788 40.578C209.789 40.578 209.789 40.578 209.789 40.578C209.79 40.578 209.79 40.578 209.79 40.578C209.791 40.578 209.791 40.578 209.792 40.578C209.792 40.578 209.792 40.578 209.793 40.578C209.793 40.578 209.793 40.578 209.794 40.578C209.794 40.578 209.795 40.578 209.795 40.578C209.795 40.578 209.796 40.578 209.796 40.578C209.796 40.578 209.797 40.578 209.797 40.578C209.797 40.578 209.798 40.578 209.798 40.578C209.799 40.578 209.799 40.578 209.799 40.578C209.8 40.578 209.8 40.578 209.8 40.578C209.801 40.578 209.801 40.578 209.801 40.578C209.802 40.578 209.802 40.578 209.803 40.578C209.803 40.578 209.803 40.578 209.804 40.578C209.804 40.578 209.804 40.578 209.805 40.578C209.805 40.578 209.806 40.578 209.806 40.578C209.806 40.578 209.807 40.578 209.807 40.578C209.807 40.578 209.808 40.578 209.808 40.578C209.808 40.578 209.809 40.578 209.809 40.578C209.81 40.578 209.81 40.578 209.81 40.578C209.811 40.578 209.811 40.578 209.811 40.578C209.812 40.578 209.812 40.578 209.812 40.578C209.813 40.578 209.813 40.578 209.814 40.578C209.814 40.578 209.814 40.578 209.815 40.578C209.815 40.578 209.815 40.578 209.816 40.578C209.816 40.578 209.816 40.578 209.817 40.578C209.817 40.578 209.818 40.578 209.818 40.578C209.818 40.578 209.819 40.578 209.819 40.578C209.819 40.578 209.82 40.578 209.82 40.578C209.82 40.578 209.821 40.578 209.821 40.578C209.821 40.578 209.822 40.578 209.822 40.578C209.823 40.578 209.823 40.578 209.823 40.578C209.824 40.578 209.824 40.578 209.824 40.578C209.825 40.578 209.825 40.578 209.825 40.578C209.826 40.578 209.826 40.578 209.827 40.578C209.827 40.578 209.827 40.578 209.828 40.578C209.828 40.578 209.828 40.578 209.829 40.578C209.829 40.578 209.829 40.578 209.83 40.578C209.83 40.578 209.83 40.578 209.831 40.578C209.831 40.578 209.832 40.578 209.832 40.578C209.832 40.578 209.833 40.578 209.833 40.578C209.833 40.578 209.834 40.578 209.834 40.578C209.834 40.578 209.835 40.578 209.835 40.578C209.835 40.578 209.836 40.578 209.836 40.578C209.837 40.578 209.837 40.578 209.837 40.578C209.838 40.578 209.838 40.578 209.838 40.578C209.839 40.578 209.839 40.578 209.839 40.578C209.84 40.578 209.84 40.578 209.84 40.578C209.841 40.578 209.841 40.578 209.842 40.578C209.842 40.578 209.842 40.578 209.843 40.578C209.843 40.578 209.843 40.578 209.844 40.578C209.844 40.578 209.844 40.578 209.845 40.578C209.845 40.578 209.845 40.578 209.846 40.578C209.846 40.578 209.846 40.578 209.847 40.578C209.847 40.578 209.848 40.578 209.848 40.578C209.848 40.578 209.849 40.578 209.849 40.578C209.849 40.578 209.85 40.578 209.85 40.578C209.85 40.578 209.851 40.578 209.851 40.578C209.851 40.578 209.852 40.578 209.852 40.578C209.852 40.578 209.853 40.578 209.853 40.578C209.854 40.578 209.854 40.578 209.854 40.578C209.855 40.578 209.855 40.578 209.855 40.578C209.856 40.578 209.856 40.578 209.856 40.578C209.857 40.578 209.857 40.578 209.857 40.578C209.858 40.578 209.858 40.578 209.858 40.578C209.859 40.578 209.859 40.578 209.859 40.578C209.86 40.578 209.86 40.578 209.861 40.578C209.861 40.578 209.861 40.578 209.862 40.578C209.862 40.578 209.862 40.578 209.863 40.578C209.863 40.578 209.863 40.578 209.864 40.578C209.864 40.578 209.864 40.578 209.865 40.578C209.865 40.578 209.865 40.578 209.866 40.578C209.866 40.578 209.866 40.578 209.867 40.578C209.867 40.578 209.867 40.578 209.868 40.578C209.868 40.578 209.869 40.578 209.869 40.578C209.869 40.578 209.87 40.578 209.87 40.578C209.87 40.578 209.871 40.578 209.871 40.578C209.871 40.578 209.872 40.578 209.872 40.578C209.872 40.578 209.873 40.578 209.873 40.578C209.873 40.578 209.874 40.578 209.874 40.578C209.874 40.578 209.875 40.578 209.875 40.578C209.875 40.578 209.876 40.578 209.876 40.578C209.876 40.578 209.877 40.578 209.877 40.578C209.877 40.578 209.878 40.578 209.878 40.578C209.879 40.578 209.879 40.578 209.879 40.578C209.88 40.578 209.88 40.578 209.88 40.578C209.881 40.578 209.881 40.578 209.881 40.578C209.882 40.578 209.882 40.578 209.882 40.578C209.883 40.578 209.883 40.578 209.883 40.578C209.884 40.578 209.884 40.578 209.884 40.578C209.885 40.578 209.885 40.578 209.885 40.578C209.886 40.578 209.886 40.578 209.886 40.578C209.887 40.578 209.887 40.578 209.887 40.578C209.888 40.578 209.888 40.578 209.888 40.578C209.889 40.578 209.889 40.578 209.889 40.578C209.89 40.578 209.89 40.578 209.89 40.578C209.891 40.578 209.891 40.578 209.891 40.578C209.892 40.578 209.892 40.578 209.893 40.578C209.893 40.578 209.893 40.578 209.894 40.578C209.894 40.578 209.894 40.578 209.895 40.578C209.895 40.578 209.895 40.578 209.896 40.578C209.896 40.578 209.896 40.578 209.897 40.578C209.897 40.578 209.897 40.578 209.898 40.578C209.898 40.578 209.898 40.578 209.899 40.578C209.899 40.578 209.899 40.578 209.9 40.578C209.9 40.578 209.9 40.578 209.901 40.578C209.901 40.578 209.901 40.578 209.902 40.578C209.902 40.578 209.902 40.578 209.903 40.578C209.903 40.578 209.903 40.578 209.904 40.578C209.904 40.578 209.904 40.578 209.905 40.578C209.905 40.578 209.905 40.578 209.906 40.578C209.906 40.578 209.906 40.578 209.907 40.578C209.907 40.578 209.907 40.578 209.908 40.578C209.908 40.578 209.908 40.578 209.909 40.578C209.909 40.578 209.909 40.578 209.91 40.578C209.91 40.578 209.91 40.578 209.911 40.578C209.911 40.578 209.911 40.578 209.912 40.578C209.912 40.578 209.912 40.578 209.913 40.578C209.913 40.578 209.913 40.578 209.914 40.578C209.914 40.578 209.914 40.578 209.915 40.578C209.915 40.578 209.915 40.578 209.916 40.578C209.916 40.578 209.916 40.578 209.917 40.578C209.917 40.578 209.917 40.578 209.918 40.578C209.918 40.578 209.918 40.578 209.919 40.578C209.919 40.578 209.919 40.578 209.92 40.578C209.92 40.578 209.92 40.578 209.921 40.578C209.921 40.578 209.921 40.578 209.922 40.578C209.922 40.578 209.922 40.578 209.923 40.578C209.923 40.578 209.923 40.578 209.924 40.578C209.924 40.578 209.924 40.578 209.925 40.578C209.925 40.578 209.925 40.578 209.926 40.578C209.926 40.578 209.926 40.578 209.927 40.578V36.578C209.926 36.578 209.926 36.578 209.926 36.578C209.925 36.578 209.925 36.578 209.925 36.578C209.924 36.578 209.924 36.578 209.924 36.578C209.923 36.578 209.923 36.578 209.923 36.578C209.922 36.578 209.922 36.578 209.922 36.578C209.921 36.578 209.921 36.578 209.921 36.578C209.92 36.578 209.92 36.578 209.92 36.578C209.919 36.578 209.919 36.578 209.919 36.578C209.918 36.578 209.918 36.578 209.918 36.578C209.917 36.578 209.917 36.578 209.917 36.578C209.916 36.578 209.916 36.578 209.916 36.578C209.915 36.578 209.915 36.578 209.915 36.578C209.914 36.578 209.914 36.578 209.914 36.578C209.913 36.578 209.913 36.578 209.913 36.578C209.912 36.578 209.912 36.578 209.912 36.578C209.911 36.578 209.911 36.578 209.911 36.578C209.91 36.578 209.91 36.578 209.91 36.578C209.909 36.578 209.909 36.578 209.909 36.578C209.908 36.578 209.908 36.578 209.908 36.578C209.907 36.578 209.907 36.578 209.907 36.578C209.906 36.578 209.906 36.578 209.906 36.578C209.905 36.578 209.905 36.578 209.905 36.578C209.904 36.578 209.904 36.578 209.904 36.578C209.903 36.578 209.903 36.578 209.903 36.578C209.902 36.578 209.902 36.578 209.902 36.578C209.901 36.578 209.901 36.578 209.901 36.578C209.9 36.578 209.9 36.578 209.9 36.578C209.899 36.578 209.899 36.578 209.899 36.578C209.898 36.578 209.898 36.578 209.898 36.578C209.897 36.578 209.897 36.578 209.897 36.578C209.896 36.578 209.896 36.578 209.896 36.578C209.895 36.578 209.895 36.578 209.895 36.578C209.894 36.578 209.894 36.578 209.894 36.578C209.893 36.578 209.893 36.578 209.893 36.578C209.892 36.578 209.892 36.578 209.891 36.578C209.891 36.578 209.891 36.578 209.89 36.578C209.89 36.578 209.89 36.578 209.889 36.578C209.889 36.578 209.889 36.578 209.888 36.578C209.888 36.578 209.888 36.578 209.887 36.578C209.887 36.578 209.887 36.578 209.886 36.578C209.886 36.578 209.886 36.578 209.885 36.578C209.885 36.578 209.885 36.578 209.884 36.578C209.884 36.578 209.884 36.578 209.883 36.578C209.883 36.578 209.883 36.578 209.882 36.578C209.882 36.578 209.882 36.578 209.881 36.578C209.881 36.578 209.881 36.578 209.88 36.578C209.88 36.578 209.88 36.578 209.879 36.578C209.879 36.578 209.879 36.578 209.878 36.578C209.878 36.578 209.877 36.578 209.877 36.578C209.877 36.578 209.876 36.578 209.876 36.578C209.876 36.578 209.875 36.578 209.875 36.578C209.875 36.578 209.874 36.578 209.874 36.578C209.874 36.578 209.873 36.578 209.873 36.578C209.873 36.578 209.872 36.578 209.872 36.578C209.872 36.578 209.871 36.578 209.871 36.578C209.871 36.578 209.87 36.578 209.87 36.578C209.87 36.578 209.869 36.578 209.869 36.578C209.869 36.578 209.868 36.578 209.868 36.578C209.867 36.578 209.867 36.578 209.867 36.578C209.866 36.578 209.866 36.578 209.866 36.578C209.865 36.578 209.865 36.578 209.865 36.578C209.864 36.578 209.864 36.578 209.864 36.578C209.863 36.578 209.863 36.578 209.863 36.578C209.862 36.578 209.862 36.578 209.862 36.578C209.861 36.578 209.861 36.578 209.861 36.578C209.86 36.578 209.86 36.578 209.859 36.578C209.859 36.578 209.859 36.578 209.858 36.578C209.858 36.578 209.858 36.578 209.857 36.578C209.857 36.578 209.857 36.578 209.856 36.578C209.856 36.578 209.856 36.578 209.855 36.578C209.855 36.578 209.855 36.578 209.854 36.578C209.854 36.578 209.854 36.578 209.853 36.578C209.853 36.578 209.852 36.578 209.852 36.578C209.852 36.578 209.851 36.578 209.851 36.578C209.851 36.578 209.85 36.578 209.85 36.578C209.85 36.578 209.849 36.578 209.849 36.578C209.849 36.578 209.848 36.578 209.848 36.578C209.848 36.578 209.847 36.578 209.847 36.578C209.846 36.578 209.846 36.578 209.846 36.578C209.845 36.578 209.845 36.578 209.845 36.578C209.844 36.578 209.844 36.578 209.844 36.578C209.843 36.578 209.843 36.578 209.843 36.578C209.842 36.578 209.842 36.578 209.842 36.578C209.841 36.578 209.841 36.578 209.84 36.578C209.84 36.578 209.84 36.578 209.839 36.578C209.839 36.578 209.839 36.578 209.838 36.578C209.838 36.578 209.838 36.578 209.837 36.578C209.837 36.578 209.837 36.578 209.836 36.578C209.836 36.578 209.835 36.578 209.835 36.578C209.835 36.578 209.834 36.578 209.834 36.578C209.834 36.578 209.833 36.578 209.833 36.578C209.833 36.578 209.832 36.578 209.832 36.578C209.832 36.578 209.831 36.578 209.831 36.578C209.83 36.578 209.83 36.578 209.83 36.578C209.829 36.578 209.829 36.578 209.829 36.578C209.828 36.578 209.828 36.578 209.828 36.578C209.827 36.578 209.827 36.578 209.827 36.578C209.826 36.578 209.826 36.578 209.825 36.578C209.825 36.578 209.825 36.578 209.824 36.578C209.824 36.578 209.824 36.578 209.823 36.578C209.823 36.578 209.823 36.578 209.822 36.578C209.822 36.578 209.821 36.578 209.821 36.578C209.821 36.578 209.82 36.578 209.82 36.578C209.82 36.578 209.819 36.578 209.819 36.578C209.819 36.578 209.818 36.578 209.818 36.578C209.818 36.578 209.817 36.578 209.817 36.578C209.816 36.578 209.816 36.578 209.816 36.578C209.815 36.578 209.815 36.578 209.815 36.578C209.814 36.578 209.814 36.578 209.814 36.578C209.813 36.578 209.813 36.578 209.812 36.578C209.812 36.578 209.812 36.578 209.811 36.578C209.811 36.578 209.811 36.578 209.81 36.578C209.81 36.578 209.81 36.578 209.809 36.578C209.809 36.578 209.808 36.578 209.808 36.578C209.808 36.578 209.807 36.578 209.807 36.578C209.807 36.578 209.806 36.578 209.806 36.578C209.806 36.578 209.805 36.578 209.805 36.578C209.804 36.578 209.804 36.578 209.804 36.578C209.803 36.578 209.803 36.578 209.803 36.578C209.802 36.578 209.802 36.578 209.801 36.578C209.801 36.578 209.801 36.578 209.8 36.578C209.8 36.578 209.8 36.578 209.799 36.578C209.799 36.578 209.799 36.578 209.798 36.578C209.798 36.578 209.797 36.578 209.797 36.578C209.797 36.578 209.796 36.578 209.796 36.578C209.796 36.578 209.795 36.578 209.795 36.578C209.795 36.578 209.794 36.578 209.794 36.578C209.793 36.578 209.793 36.578 209.793 36.578C209.792 36.578 209.792 36.578 209.792 36.578C209.791 36.578 209.791 36.578 209.79 36.578C209.79 36.578 209.79 36.578 209.789 36.578C209.789 36.578 209.789 36.578 209.788 36.578C209.788 36.578 209.787 36.578 209.787 36.578C209.787 36.578 209.786 36.578 209.786 36.578C209.786 36.578 209.785 36.578 209.785 36.578C209.785 36.578 209.784 36.578 209.784 36.578C209.783 36.578 209.783 36.578 209.783 36.578C209.782 36.578 209.782 36.578 209.782 36.578C209.781 36.578 209.781 36.578 209.78 36.578C209.78 36.578 209.78 36.578 209.779 36.578C209.779 36.578 209.779 36.578 209.778 36.578C209.778 36.578 209.777 36.578 209.777 36.578C209.777 36.578 209.776 36.578 209.776 36.578C209.776 36.578 209.775 36.578 209.775 36.578C209.774 36.578 209.774 36.578 209.774 36.578C209.773 36.578 209.773 36.578 209.773 36.578C209.772 36.578 209.772 36.578 209.771 36.578C209.771 36.578 209.771 36.578 209.77 36.578C209.77 36.578 209.77 36.578 209.769 36.578C209.769 36.578 209.768 36.578 209.768 36.578C209.768 36.578 209.767 36.578 209.767 36.578C209.767 36.578 209.766 36.578 209.766 36.578C209.765 36.578 209.765 36.578 209.765 36.578C209.764 36.578 209.764 36.578 209.764 36.578C209.763 36.578 209.763 36.578 209.762 36.578C209.762 36.578 209.762 36.578 209.761 36.578C209.761 36.578 209.761 36.578 209.76 36.578C209.76 36.578 209.759 36.578 209.759 36.578C209.759 36.578 209.758 36.578 209.758 36.578C209.757 36.578 209.757 36.578 209.757 36.578C209.756 36.578 209.756 36.578 209.756 36.578C209.755 36.578 209.755 36.578 209.754 36.578C209.754 36.578 209.754 36.578 209.753 36.578C209.753 36.578 209.753 36.578 209.752 36.578C209.752 36.578 209.751 36.578 209.751 36.578C209.751 36.578 209.75 36.578 209.75 36.578C209.75 36.578 209.749 36.578 209.749 36.578C209.748 36.578 209.748 36.578 209.748 36.578C209.747 36.578 209.747 36.578 209.746 36.578C209.746 36.578 209.746 36.578 209.745 36.578C209.745 36.578 209.745 36.578 209.744 36.578C209.744 36.578 209.743 36.578 209.743 36.578C209.743 36.578 209.742 36.578 209.742 36.578C209.741 36.578 209.741 36.578 209.741 36.578C209.74 36.578 209.74 36.578 209.74 36.578C209.739 36.578 209.739 36.578 209.738 36.578C209.738 36.578 209.738 36.578 209.737 36.578C209.737 36.578 209.736 36.578 209.736 36.578C209.736 36.578 209.735 36.578 209.735 36.578C209.735 36.578 209.734 36.578 209.734 36.578C209.733 36.578 209.733 36.578 209.733 36.578C209.732 36.578 209.732 36.578 209.731 36.578C209.731 36.578 209.731 36.578 209.73 36.578C209.73 36.578 209.73 36.578 209.729 36.578C209.729 36.578 209.728 36.578 209.728 36.578C209.728 36.578 209.727 36.578 209.727 36.578C209.726 36.578 209.726 36.578 209.726 36.578C209.725 36.578 209.725 36.578 209.724 36.578C209.724 36.578 209.724 36.578 209.723 36.578C209.723 36.578 209.723 36.578 209.722 36.578C209.722 36.578 209.721 36.578 209.721 36.578C209.721 36.578 209.72 36.578 209.72 36.578C209.719 36.578 209.719 36.578 209.719 36.578C209.718 36.578 209.718 36.578 209.717 36.578C209.717 36.578 209.717 36.578 209.716 36.578C209.716 36.578 209.716 36.578 209.715 36.578C209.715 36.578 209.714 36.578 209.714 36.578C209.714 36.578 209.713 36.578 209.713 36.578C209.712 36.578 209.712 36.578 209.712 36.578C209.711 36.578 209.711 36.578 209.71 36.578C209.71 36.578 209.71 36.578 209.709 36.578C209.709 36.578 209.708 36.578 209.708 36.578C209.708 36.578 209.707 36.578 209.707 36.578C209.707 36.578 209.706 36.578 209.706 36.578C209.705 36.578 209.705 36.578 209.705 36.578C209.704 36.578 209.704 36.578 209.703 36.578C209.703 36.578 209.703 36.578 209.702 36.578C209.702 36.578 209.701 36.578 209.701 36.578C209.701 36.578 209.7 36.578 209.7 36.578C209.699 36.578 209.699 36.578 209.699 36.578C209.698 36.578 209.698 36.578 209.697 36.578C209.697 36.578 209.697 36.578 209.696 36.578C209.696 36.578 209.695 36.578 209.695 36.578C209.695 36.578 209.694 36.578 209.694 36.578C209.693 36.578 209.693 36.578 209.693 36.578C209.692 36.578 209.692 36.578 209.691 36.578C209.691 36.578 209.691 36.578 209.69 36.578C209.69 36.578 209.689 36.578 209.689 36.578C209.689 36.578 209.688 36.578 209.688 36.578C209.688 36.578 209.687 36.578 209.687 36.578C209.686 36.578 209.686 36.578 209.686 36.578C209.685 36.578 209.685 36.578 209.684 36.578C209.684 36.578 209.684 36.578 209.683 36.578C209.683 36.578 209.682 36.578 209.682 36.578C209.682 36.578 209.681 36.578 209.681 36.578C209.68 36.578 209.68 36.578 209.68 36.578C209.679 36.578 209.679 36.578 209.678 36.578C209.678 36.578 209.678 36.578 209.677 36.578C209.677 36.578 209.676 36.578 209.676 36.578C209.676 36.578 209.675 36.578 209.675 36.578C209.674 36.578 209.674 36.578 209.673 36.578C209.673 36.578 209.673 36.578 209.672 36.578C209.672 36.578 209.671 36.578 209.671 36.578C209.671 36.578 209.67 36.578 209.67 36.578C209.669 36.578 209.669 36.578 209.669 36.578C209.668 36.578 209.668 36.578 209.667 36.578C209.667 36.578 209.667 36.578 209.666 36.578C209.666 36.578 209.665 36.578 209.665 36.578C209.665 36.578 209.664 36.578 209.664 36.578C209.663 36.578 209.663 36.578 209.663 36.578C209.662 36.578 209.662 36.578 209.661 36.578C209.661 36.578 209.661 36.578 209.66 36.578C209.66 36.578 209.659 36.578 209.659 36.578C209.659 36.578 209.658 36.578 209.658 36.578C209.657 36.578 209.657 36.578 209.657 36.578C209.656 36.578 209.656 36.578 209.655 36.578C209.655 36.578 209.654 36.578 209.654 36.578C209.654 36.578 209.653 36.578 209.653 36.578C209.652 36.578 209.652 36.578 209.652 36.578C209.651 36.578 209.651 36.578 209.65 36.578C209.65 36.578 209.65 36.578 209.649 36.578C209.649 36.578 209.648 36.578 209.648 36.578C209.648 36.578 209.647 36.578 209.647 36.578C209.646 36.578 209.646 36.578 209.645 36.578C209.645 36.578 209.645 36.578 209.644 36.578C209.644 36.578 209.643 36.578 209.643 36.578C209.643 36.578 209.642 36.578 209.642 36.578C209.641 36.578 209.641 36.578 209.641 36.578C209.64 36.578 209.64 36.578 209.639 36.578C209.639 36.578 209.639 36.578 209.638 36.578C209.638 36.578 209.637 36.578 209.637 36.578C209.636 36.578 209.636 36.578 209.636 36.578C209.635 36.578 209.635 36.578 209.634 36.578C209.634 36.578 209.634 36.578 209.633 36.578C209.633 36.578 209.632 36.578 209.632 36.578C209.632 36.578 209.631 36.578 209.631 36.578C209.63 36.578 209.63 36.578 209.629 36.578C209.629 36.578 209.629 36.578 209.628 36.578C209.628 36.578 209.627 36.578 209.627 36.578C209.627 36.578 209.626 36.578 209.626 36.578C209.625 36.578 209.625 36.578 209.624 36.578C209.624 36.578 209.624 36.578 209.623 36.578C209.623 36.578 209.622 36.578 209.622 36.578C209.622 36.578 209.621 36.578 209.621 36.578C209.62 36.578 209.62 36.578 209.619 36.578C209.619 36.578 209.619 36.578 209.618 36.578C209.618 36.578 209.617 36.578 209.617 36.578C209.617 36.578 209.616 36.578 209.616 36.578C209.615 36.578 209.615 36.578 209.614 36.578C209.614 36.578 209.614 36.578 209.613 36.578C209.613 36.578 209.612 36.578 209.612 36.578C209.612 36.578 209.611 36.578 209.611 36.578C209.61 36.578 209.61 36.578 209.609 36.578C209.609 36.578 209.609 36.578 209.608 36.578C209.608 36.578 209.607 36.578 209.607 36.578C209.607 36.578 209.606 36.578 209.606 36.578C209.605 36.578 209.605 36.578 209.604 36.578C209.604 36.578 209.604 36.578 209.603 36.578C209.603 36.578 209.602 36.578 209.602 36.578C209.601 36.578 209.601 36.578 209.601 36.578C209.6 36.578 209.6 36.578 209.599 36.578C209.599 36.578 209.599 36.578 209.598 36.578C209.598 36.578 209.597 36.578 209.597 36.578C209.596 36.578 209.596 36.578 209.596 36.578C209.595 36.578 209.595 36.578 209.594 36.578C209.594 36.578 209.593 36.578 209.593 36.578C209.593 36.578 209.592 36.578 209.592 36.578C209.591 36.578 209.591 36.578 209.591 36.578C209.59 36.578 209.59 36.578 209.589 36.578C209.589 36.578 209.588 36.578 209.588 36.578C209.588 36.578 209.587 36.578 209.587 36.578C209.586 36.578 209.586 36.578 209.585 36.578C209.585 36.578 209.585 36.578 209.584 36.578C209.584 36.578 209.583 36.578 209.583 36.578C209.582 36.578 209.582 36.578 209.582 36.578C209.581 36.578 209.581 36.578 209.58 36.578C209.58 36.578 209.579 36.578 209.579 36.578C209.579 36.578 209.578 36.578 209.578 36.578C209.577 36.578 209.577 36.578 209.576 36.578C209.576 36.578 209.576 36.578 209.575 36.578C209.575 36.578 209.574 36.578 209.574 36.578C209.573 36.578 209.573 36.578 209.573 36.578C209.572 36.578 209.572 36.578 209.571 36.578C209.571 36.578 209.57 36.578 209.57 36.578C209.57 36.578 209.569 36.578 209.569 36.578C209.568 36.578 209.568 36.578 209.567 36.578C209.567 36.578 209.567 36.578 209.566 36.578C209.566 36.578 209.565 36.578 209.565 36.578C209.564 36.578 209.564 36.578 209.564 36.578C209.563 36.578 209.563 36.578 209.562 36.578C209.562 36.578 209.561 36.578 209.561 36.578C209.561 36.578 209.56 36.578 209.56 36.578C209.559 36.578 209.559 36.578 209.558 36.578C209.558 36.578 209.558 36.578 209.557 36.578C209.557 36.578 209.556 36.578 209.556 36.578C209.555 36.578 209.555 36.578 209.555 36.578C209.554 36.578 209.554 36.578 209.553 36.578C209.553 36.578 209.552 36.578 209.552 36.578C209.552 36.578 209.551 36.578 209.551 36.578C209.55 36.578 209.55 36.578 209.549 36.578C209.549 36.578 209.548 36.578 209.548 36.578C209.548 36.578 209.547 36.578 209.547 36.578C209.546 36.578 209.546 36.578 209.545 36.578C209.545 36.578 209.545 36.578 209.544 36.578C209.544 36.578 209.543 36.578 209.543 36.578C209.542 36.578 209.542 36.578 209.542 36.578C209.541 36.578 209.541 36.578 209.54 36.578C209.54 36.578 209.539 36.578 209.539 36.578C209.538 36.578 209.538 36.578 209.538 36.578C209.537 36.578 209.537 36.578 209.536 36.578C209.536 36.578 209.535 36.578 209.535 36.578C209.535 36.578 209.534 36.578 209.534 36.578C209.533 36.578 209.533 36.578 209.532 36.578C209.532 36.578 209.531 36.578 209.531 36.578C209.531 36.578 209.53 36.578 209.53 36.578C209.529 36.578 209.529 36.578 209.528 36.578C209.528 36.578 209.528 36.578 209.527 36.578C209.527 36.578 209.526 36.578 209.526 36.578C209.525 36.578 209.525 36.578 209.524 36.578C209.524 36.578 209.524 36.578 209.523 36.578C209.523 36.578 209.522 36.578 209.522 36.578C209.521 36.578 209.521 36.578 209.52 36.578C209.52 36.578 209.52 36.578 209.519 36.578C209.519 36.578 209.518 36.578 209.518 36.578C209.517 36.578 209.517 36.578 209.517 36.578C209.516 36.578 209.516 36.578 209.515 36.578C209.515 36.578 209.514 36.578 209.514 36.578C209.513 36.578 209.513 36.578 209.513 36.578C209.512 36.578 209.512 36.578 209.511 36.578C209.511 36.578 209.51 36.578 209.51 36.578C209.509 36.578 209.509 36.578 209.509 36.578C209.508 36.578 209.508 36.578 209.507 36.578C209.507 36.578 209.506 36.578 209.506 36.578C209.505 36.578 209.505 36.578 209.505 36.578C209.504 36.578 209.504 36.578 209.503 36.578C209.503 36.578 209.502 36.578 209.502 36.578C209.501 36.578 209.501 36.578 209.501 36.578C209.5 36.578 209.5 36.578 209.499 36.578C209.499 36.578 209.498 36.578 209.498 36.578C209.497 36.578 209.497 36.578 209.497 36.578C209.496 36.578 209.496 36.578 209.495 36.578C209.495 36.578 209.494 36.578 209.494 36.578C209.493 36.578 209.493 36.578 209.492 36.578C209.492 36.578 209.492 36.578 209.491 36.578C209.491 36.578 209.49 36.578 209.49 36.578C209.489 36.578 209.489 36.578 209.488 36.578C209.488 36.578 209.488 36.578 209.487 36.578C209.487 36.578 209.486 36.578 209.486 36.578C209.485 36.578 209.485 36.578 209.484 36.578C209.484 36.578 209.484 36.578 209.483 36.578C209.483 36.578 209.482 36.578 209.482 36.578C209.481 36.578 209.481 36.578 209.48 36.578C209.48 36.578 209.479 36.578 209.479 36.578C209.479 36.578 209.478 36.578 209.478 36.578C209.477 36.578 209.477 36.578 209.476 36.578C209.476 36.578 209.475 36.578 209.475 36.578C209.475 36.578 209.474 36.578 209.474 36.578C209.473 36.578 209.473 36.578 209.472 36.578C209.472 36.578 209.471 36.578 209.471 36.578C209.47 36.578 209.47 36.578 209.47 36.578C209.469 36.578 209.469 36.578 209.468 36.578C209.468 36.578 209.467 36.578 209.467 36.578C209.466 36.578 209.466 36.578 209.465 36.578C209.465 36.578 209.465 36.578 209.464 36.578C209.464 36.578 209.463 36.578 209.463 36.578C209.462 36.578 209.462 36.578 209.461 36.578C209.461 36.578 209.46 36.578 209.46 36.578C209.46 36.578 209.459 36.578 209.459 36.578C209.458 36.578 209.458 36.578 209.457 36.578C209.457 36.578 209.456 36.578 209.456 36.578C209.455 36.578 209.455 36.578 209.455 36.578C209.454 36.578 209.454 36.578 209.453 36.578C209.453 36.578 209.452 36.578 209.452 36.578C209.451 36.578 209.451 36.578 209.45 36.578C209.45 36.578 209.449 36.578 209.449 36.578C209.449 36.578 209.448 36.578 209.448 36.578C209.447 36.578 209.447 36.578 209.446 36.578C209.446 36.578 209.445 36.578 209.445 36.578C209.444 36.578 209.444 36.578 209.444 36.578C209.443 36.578 209.443 36.578 209.442 36.578C209.442 36.578 209.441 36.578 209.441 36.578C209.44 36.578 209.44 36.578 209.439 36.578C209.439 36.578 209.438 36.578 209.438 36.578C209.438 36.578 209.437 36.578 209.437 36.578C209.436 36.578 209.436 36.578 209.435 36.578C209.435 36.578 209.434 36.578 209.434 36.578C209.433 36.578 209.433 36.578 209.432 36.578C209.432 36.578 209.432 36.578 209.431 36.578C209.431 36.578 209.43 36.578 209.43 36.578C209.429 36.578 209.429 36.578 209.428 36.578C209.428 36.578 209.427 36.578 209.427 36.578C209.426 36.578 209.426 36.578 209.426 36.578C209.425 36.578 209.425 36.578 209.424 36.578C209.424 36.578 209.423 36.578 209.423 36.578C209.422 36.578 209.422 36.578 209.421 36.578C209.421 36.578 209.42 36.578 209.42 36.578C209.42 36.578 209.419 36.578 209.419 36.578C209.418 36.578 209.418 36.578 209.417 36.578C209.417 36.578 209.416 36.578 209.416 36.578C209.415 36.578 209.415 36.578 209.414 36.578C209.414 36.578 209.413 36.578 209.413 36.578C209.413 36.578 209.412 36.578 209.412 36.578C209.411 36.578 209.411 36.578 209.41 36.578C209.41 36.578 209.409 36.578 209.409 36.578C209.408 36.578 209.408 36.578 209.407 36.578C209.407 36.578 209.406 36.578 209.406 36.578C209.406 36.578 209.405 36.578 209.405 36.578C209.404 36.578 209.404 36.578 209.403 36.578C209.403 36.578 209.402 36.578 209.402 36.578C209.401 36.578 209.401 36.578 209.4 36.578C209.4 36.578 209.399 36.578 209.399 36.578C209.398 36.578 209.398 36.578 209.398 36.578C209.397 36.578 209.397 36.578 209.396 36.578C209.396 36.578 209.395 36.578 209.395 36.578C209.394 36.578 209.394 36.578 209.393 36.578C209.393 36.578 209.392 36.578 209.392 36.578C209.391 36.578 209.391 36.578 209.39 36.578C209.39 36.578 209.39 36.578 209.389 36.578C209.389 36.578 209.388 36.578 209.388 36.578C209.387 36.578 209.387 36.578 209.386 36.578C209.386 36.578 209.385 36.578 209.385 36.578C209.384 36.578 209.384 36.578 209.383 36.578C209.383 36.578 209.382 36.578 209.382 36.578C209.382 36.578 209.381 36.578 209.381 36.578C209.38 36.578 209.38 36.578 209.379 36.578C209.379 36.578 209.378 36.578 209.378 36.578C209.377 36.578 209.377 36.578 209.376 36.578C209.376 36.578 209.375 36.578 209.375 36.578C209.374 36.578 209.374 36.578 209.373 36.578C209.373 36.578 209.372 36.578 209.372 36.578C209.372 36.578 209.371 36.578 209.371 36.578C209.37 36.578 209.37 36.578 209.369 36.578C209.369 36.578 209.368 36.578 209.368 36.578C209.367 36.578 209.367 36.578 209.366 36.578C209.366 36.578 209.365 36.578 209.365 36.578C209.364 36.578 209.364 36.578 209.363 36.578C209.363 36.578 209.362 36.578 209.362 36.578C209.362 36.578 209.361 36.578 209.361 36.578C209.36 36.578 209.36 36.578 209.359 36.578C209.359 36.578 209.358 36.578 209.358 36.578C209.357 36.578 209.357 36.578 209.356 36.578C209.356 36.578 209.355 36.578 209.355 36.578C209.354 36.578 209.354 36.578 209.353 36.578C209.353 36.578 209.352 36.578 209.352 36.578C209.351 36.578 209.351 36.578 209.351 36.578C209.35 36.578 209.35 36.578 209.349 36.578C209.349 36.578 209.348 36.578 209.348 36.578C209.347 36.578 209.347 36.578 209.346 36.578C209.346 36.578 209.345 36.578 209.345 36.578C209.344 36.578 209.344 36.578 209.343 36.578C209.343 36.578 209.342 36.578 209.342 36.578C209.341 36.578 209.341 36.578 209.34 36.578C209.34 36.578 209.339 36.578 209.339 36.578C209.338 36.578 209.338 36.578 209.338 36.578C209.337 36.578 209.337 36.578 209.336 36.578C209.336 36.578 209.335 36.578 209.335 36.578C209.334 36.578 209.334 36.578 209.333 36.578C209.333 36.578 209.332 36.578 209.332 36.578C209.331 36.578 209.331 36.578 209.33 36.578C209.33 36.578 209.329 36.578 209.329 36.578C209.328 36.578 209.328 36.578 209.327 36.578C209.327 36.578 209.326 36.578 209.326 36.578C209.325 36.578 209.325 36.578 209.324 36.578C209.324 36.578 209.323 36.578 209.323 36.578C209.322 36.578 209.322 36.578 209.322 36.578C209.321 36.578 209.321 36.578 209.32 36.578C209.32 36.578 209.319 36.578 209.319 36.578C209.318 36.578 209.318 36.578 209.317 36.578C209.317 36.578 209.316 36.578 209.316 36.578C209.315 36.578 209.315 36.578 209.314 36.578C209.314 36.578 209.313 36.578 209.313 36.578C209.312 36.578 209.312 36.578 209.311 36.578C209.311 36.578 209.31 36.578 209.31 36.578C209.309 36.578 209.309 36.578 209.308 36.578C209.308 36.578 209.307 36.578 209.307 36.578C209.306 36.578 209.306 36.578 209.305 36.578C209.305 36.578 209.304 36.578 209.304 36.578C209.303 36.578 209.303 36.578 209.302 36.578C209.302 36.578 209.301 36.578 209.301 36.578C209.3 36.578 209.3 36.578 209.299 36.578C209.299 36.578 209.299 36.578 209.298 36.578C209.298 36.578 209.297 36.578 209.297 36.578V40.578ZM209.866 40.5771C210.753 40.604 211.785 40.4773 212.645 39.8741C213.625 39.1868 214.027 38.1396 214.027 37.108H210.027C210.027 37.1249 210.024 37.0444 210.084 36.9176C210.148 36.7802 210.248 36.6692 210.348 36.5994C210.435 36.5381 210.477 36.5399 210.413 36.5537C210.349 36.5678 210.214 36.5858 209.987 36.5789L209.866 40.5771ZM214.027 37.108C214.027 36.0429 213.591 35.0075 212.633 34.3276C211.776 33.7188 210.742 33.5691 209.824 33.5969L209.945 37.5951C210.16 37.5886 210.292 37.6072 210.356 37.622C210.42 37.6367 210.39 37.6407 210.317 37.5889C210.235 37.5304 210.145 37.4338 210.085 37.3079C210.027 37.1887 210.027 37.1073 210.027 37.108H214.027ZM209.885 33.596C209.686 33.596 209.433 33.5955 209.118 33.5639L208.72 37.5441C209.244 37.5965 209.663 37.596 209.885 37.596V33.596ZM232.882 51.346V49.346H231.566L231.045 50.5548L232.882 51.346ZM224.104 48.154L225.912 49.0102L225.913 49.0074L224.104 48.154ZM232.882 29.548L234.691 30.4014L234.697 30.3889L232.882 29.548ZM241.45 29.59L243.261 28.7411L243.256 28.7301L241.45 29.59ZM250.27 48.406L248.459 49.2549L248.48 49.2988L248.503 49.3418L250.27 48.406ZM241.45 51.346L243.27 50.5164L242.736 49.346H241.45V51.346ZM235.696 44.668L233.855 43.8857L232.673 46.668H235.696V44.668ZM238.552 44.668V46.668H241.575L240.393 43.8857L238.552 44.668ZM237.124 41.308L238.965 40.5257L237.124 36.1947L235.284 40.5257L237.124 41.308ZM231.045 50.5548C230.518 51.7791 230.038 52.4119 229.624 52.7473C229.267 53.036 228.831 53.21 228.094 53.21V57.21C229.583 57.21 230.954 56.817 232.14 55.8562C233.27 54.9421 234.07 53.6429 234.719 52.1372L231.045 50.5548ZM228.094 53.21C226.649 53.21 225.516 52.1014 225.516 50.59H221.516C221.516 54.2866 224.416 57.21 228.094 57.21V53.21ZM225.516 50.59C225.516 50.1347 225.639 49.5861 225.912 49.0102L222.297 47.2978C221.814 48.3179 221.516 49.4493 221.516 50.59H225.516ZM225.913 49.0074L234.691 30.4014L231.073 28.6946L222.295 47.3006L225.913 49.0074ZM234.697 30.3889C235.182 29.3412 236.09 28.776 237.124 28.776V24.776C234.462 24.776 232.178 26.3108 231.068 28.7071L234.697 30.3889ZM237.124 28.776C238.196 28.776 239.116 29.3393 239.644 30.4499L243.256 28.7301C242.105 26.3127 239.832 24.776 237.124 24.776V28.776ZM239.639 30.4389L248.459 49.2549L252.081 47.5571L243.261 28.7411L239.639 30.4389ZM248.503 49.3418C248.713 49.74 248.816 50.2116 248.816 50.632H252.816C252.816 49.6244 252.583 48.5 252.038 47.4702L248.503 49.3418ZM248.816 50.632C248.816 52.0121 247.647 53.21 246.154 53.21V57.21C249.785 57.21 252.816 54.2919 252.816 50.632H248.816ZM246.154 53.21C245.437 53.21 245.066 53.0561 244.752 52.8001C244.36 52.4799 243.875 51.8443 243.27 50.5164L239.63 52.1756C240.327 53.7037 241.123 55.0001 242.222 55.8979C243.4 56.8599 244.729 57.21 246.154 57.21V53.21ZM241.45 49.346H232.882V53.346H241.45V49.346ZM235.696 46.668H238.552V42.668H235.696V46.668ZM240.393 43.8857L238.965 40.5257L235.284 42.0903L236.712 45.4503L240.393 43.8857ZM235.284 40.5257L233.855 43.8857L237.537 45.4503L238.965 42.0903L235.284 40.5257ZM269.151 39.166L267.326 39.9836L269.107 43.9593L270.961 40.0172L269.151 39.166ZM273.813 29.254L272.014 28.3802L272.009 28.3914L272.003 28.4028L273.813 29.254ZM281.079 28.036L279.704 29.4879V29.4879L281.079 28.036ZM282.507 31.102L280.534 31.4308L280.536 31.4405L280.538 31.4501L282.507 31.102ZM285.699 49.162L283.73 49.5101L283.736 49.5457L283.744 49.5811L285.699 49.162ZM276.753 51.682L278.721 51.3277L278.718 51.3087L278.714 51.2898L276.753 51.682ZM275.703 46.432L277.664 46.0398L276.266 39.0468L273.824 45.7472L275.703 46.432ZM273.897 51.388L275.775 52.0765L275.776 52.0728L273.897 51.388ZM264.447 51.43L262.571 52.1236L262.572 52.1256L264.447 51.43ZM262.599 46.432L264.475 45.7384L261.88 38.7202L260.627 46.0972L262.599 46.432ZM261.843 50.884L263.814 51.2228L263.815 51.2188L261.843 50.884ZM252.645 49.036L250.676 48.6855L250.665 48.75L250.657 48.8151L252.645 49.036ZM255.837 31.102L257.806 31.4525L257.808 31.4408L255.837 31.102ZM264.993 29.884L263.151 30.6619L263.159 30.6819L263.168 30.7016L264.993 29.884ZM270.961 40.0172L275.623 30.1052L272.003 28.4028L267.341 38.3148L270.961 40.0172ZM275.612 30.1278C275.976 29.3786 276.895 28.776 277.887 28.776V24.776C275.435 24.776 273.078 26.1894 272.014 28.3802L275.612 30.1278ZM277.887 28.776C278.515 28.776 279.281 29.0877 279.704 29.4879L282.455 26.5841C281.281 25.4723 279.527 24.776 277.887 24.776V28.776ZM279.704 29.4879C280.088 29.8525 280.328 30.1942 280.534 31.4308L284.48 30.7732C284.182 28.9858 283.666 27.7315 282.455 26.5841L279.704 29.4879ZM280.538 31.4501L283.73 49.5101L287.669 48.8139L284.477 30.7539L280.538 31.4501ZM283.744 49.5811C283.837 50.0163 283.867 50.4207 283.867 50.716H287.867C287.867 50.1713 287.813 49.4837 287.655 48.7429L283.744 49.5811ZM283.867 50.716C283.867 52.1072 282.771 53.21 281.331 53.21V57.21C284.931 57.21 287.867 54.3648 287.867 50.716H283.867ZM281.331 53.21C279.807 53.21 278.904 52.3435 278.721 51.3277L274.785 52.0363C275.358 55.2205 278.151 57.21 281.331 57.21V53.21ZM278.714 51.2898L277.664 46.0398L273.742 46.8242L274.792 52.0742L278.714 51.2898ZM273.824 45.7472L272.018 50.7032L275.776 52.0728L277.582 47.1168L273.824 45.7472ZM272.019 50.6995C271.647 51.714 271.188 52.3285 270.745 52.6843C270.325 53.0213 269.818 53.21 269.151 53.21V57.21C270.668 57.21 272.072 56.7477 273.249 55.8037C274.401 54.8785 275.223 53.582 275.775 52.0765L272.019 50.6995ZM269.151 53.21C268.388 53.21 267.919 53.0228 267.563 52.7368C267.17 52.4215 266.731 51.8366 266.322 50.7344L262.572 52.1256C263.129 53.6274 263.908 54.9325 265.059 55.8562C266.246 56.8092 267.646 57.21 269.151 57.21V53.21ZM266.323 50.7364L264.475 45.7384L260.723 47.1256L262.571 52.1236L266.323 50.7364ZM260.627 46.0972L259.871 50.5492L263.815 51.2188L264.571 46.7668L260.627 46.0972ZM259.872 50.5452C259.701 51.5404 259.316 52.198 258.892 52.5935C258.483 52.9755 257.939 53.21 257.223 53.21V57.21C258.901 57.21 260.436 56.6255 261.623 55.5165C262.796 54.421 263.523 52.9156 263.814 51.2228L259.872 50.5452ZM257.223 53.21C255.745 53.21 254.561 52.1582 254.561 50.17H250.561C250.561 54.0618 253.242 57.21 257.223 57.21V53.21ZM254.561 50.17C254.561 49.9214 254.589 49.6539 254.633 49.2569L250.657 48.8151C250.617 49.1741 250.561 49.6626 250.561 50.17H254.561ZM254.614 49.3865L257.806 31.4525L253.868 30.7515L250.676 48.6855L254.614 49.3865ZM257.808 31.4408C257.984 30.421 258.361 29.762 258.765 29.3742C259.148 29.0065 259.662 28.776 260.373 28.776V24.776C258.69 24.776 257.167 25.3645 255.996 26.4878C254.846 27.591 254.153 29.095 253.866 30.7632L257.808 31.4408ZM260.373 28.776C261.531 28.776 262.661 29.5012 263.151 30.6619L266.836 29.1061C265.73 26.4868 263.163 24.776 260.373 24.776V28.776ZM263.168 30.7016L267.326 39.9836L270.976 38.3484L266.818 29.0664L263.168 30.7016Z" fill="black" mask="url(#path-2-outside-1_2_88)"/>
</svg>
